<?xml version="1.0" encoding="UTF-8" standalone="no"?>
<!DOCTYPE svg PUBLIC "-//W3C//DTD SVG 1.1//EN" "http://www.w3.org/Graphics/SVG/1.1/DTD/svg11.dtd">
<!-- Created with Vectornator (http://vectornator.io/) -->
<svg height="100%" stroke-miterlimit="10" style="fill-rule:nonzero;clip-rule:evenodd;stroke-linecap:round;stroke-linejoin:round;" version="1.1" viewBox="3790.03 1884.12 1486.69 1393.26" width="100%" xml:space="preserve" xmlns="http://www.w3.org/2000/svg" xmlns:vectornator="http://vectornator.io" xmlns:xlink="http://www.w3.org/1999/xlink">
<defs/>
<clipPath id="ArtboardFrame">
<rect height="1393.26" width="1486.69" x="3790.03" y="1884.12"/>
</clipPath>
<g clip-path="url(#ArtboardFrame)" id="Layer" vectornator:layerName="Layer">
<g opacity="1" vectornator:layerName="Group 2">
<path d="M4805.86 1887.11C4807.67 1888.92 4808.76 1891 4808.76 1892.45C4808.76 1894.08 4810.38 1896.8 4813.46 1900.51C4823.6 1912.37 4827.94 1918.25 4830.57 1923.77L4833.38 1929.56L4835.1 1927.66C4837.27 1925.31 4837.9 1925.31 4839.89 1927.48C4841.07 1928.84 4841.61 1931.1 4841.79 1936.35C4841.97 1941.87 4842.79 1945.58 4845.69 1953.73C4847.77 1959.34 4849.67 1964.23 4849.94 1964.5C4850.94 1965.5 4850.3 1948.57 4849.13 1941.06C4848.22 1935.72 4847.13 1932.1 4845.5 1929.65C4842.43 1925.04 4839.53 1916.71 4839.53 1912.64C4839.53 1908.56 4841.88 1908.38 4845.69 1912.09C4849.85 1916.35 4852.2 1922.41 4853.2 1931.55C4853.74 1936.08 4854.56 1941.33 4855.01 1943.23C4855.55 1945.13 4856.1 1948.84 4856.28 1951.38C4856.46 1954 4857.09 1959.98 4857.54 1964.68C4858.09 1969.39 4858.54 1976.54 4858.54 1980.43C4858.54 1986.77 4858.81 1988.13 4860.98 1991.11C4862.25 1993.01 4863.7 1994.28 4864.06 1993.92C4864.42 1993.56 4865.6 1990.93 4866.69 1988.22C4867.77 1985.5 4870.49 1979.98 4872.84 1976L4877.09 1968.76L4877.37 1952.01L4877.64 1935.18L4874.65 1928.02C4872.3 1922.14 4871.75 1919.52 4871.66 1913.99C4871.66 1907.57 4871.75 1907.21 4873.75 1906.93C4876.82 1906.48 4878 1907.93 4880.72 1915.17C4882.98 1921.42 4883.16 1923.14 4883.79 1940.7C4883.88 1943.41 4884.15 1943.96 4884.79 1942.96C4885.24 1942.24 4885.69 1940.33 4885.69 1938.8C4885.69 1935.36 4888.5 1931.55 4890.4 1932.37C4891.31 1932.64 4892.03 1934.54 4892.39 1937.26C4892.75 1939.61 4893.21 1943.32 4893.48 1945.4L4894.02 1949.3L4895.83 1946.94C4896.83 1945.67 4899.81 1943.68 4902.35 1942.6C4904.88 1941.42 4908.23 1939.43 4909.86 1938.07C4914.39 1934.27 4920.63 1931.92 4926.61 1931.83C4931.49 1931.65 4932.22 1931.92 4934.21 1934.18L4936.38 1936.71L4934.57 1940.06C4933.49 1941.87 4931.68 1944.77 4930.41 1946.49C4924.89 1954.18 4924.16 1965.77 4928.69 1974.64C4931.49 1980.16 4932.85 1992.2 4931.13 1995.73C4930.59 1996.82 4929.96 2000.17 4929.77 2003.15C4929.5 2006.14 4928.33 2011.21 4926.97 2014.38L4924.71 2020.08L4926.7 2019.54C4927.78 2019.17 4931.22 2018.72 4934.3 2018.36C4938.83 2017.91 4940.37 2018.18 4942.36 2019.45L4944.89 2021.07L4942.54 2023.07C4941.18 2024.24 4939.64 2025.33 4939.01 2025.51C4938.19 2025.78 4937.83 2029.67 4937.83 2040.35L4937.74 2054.75L4934.66 2061.44C4931.68 2067.6 4931.59 2068.23 4932.85 2070.5C4934.12 2072.67 4934.75 2072.85 4941.9 2073.39C4951.05 2074.03 4956.57 2076.29 4957.02 2079.55C4957.56 2082.9 4954.67 2089.23 4951.32 2092.13L4948.33 2094.84L4952.68 2095.21C4955.03 2095.48 4958.74 2096.56 4960.82 2097.65C4962.9 2098.74 4964.89 2099.46 4965.17 2099.19C4965.98 2098.37 4961.73 2085.07 4957.74 2075.93C4953.76 2066.88 4949.87 2060.72 4945.61 2056.38C4940.55 2051.31 4939.19 2045.33 4942.81 2043.34C4946.34 2041.53 4957.56 2048.32 4965.08 2057.01C4966.16 2058.28 4968.79 2060.81 4971.05 2062.62C4973.31 2064.52 4976.21 2068.23 4977.75 2071.22C4979.2 2074.12 4981.46 2078.01 4982.73 2079.82C4985.35 2083.62 4990.78 2098.01 4993.05 2107.06C4994.86 2114.4 4995.31 2114.21 5000.11 2104.53C5001.83 2101 5005.08 2096.38 5007.35 2094.12C5010.79 2090.86 5011.87 2088.87 5013.41 2083.71C5016.85 2072.13 5019.93 2064.16 5022.92 2059.09L5025.99 2054.11L5022.37 2050.04C5018.57 2045.69 5016.49 2040.08 5017.3 2036.55C5017.94 2034.11 5022.28 2032.93 5027.35 2033.84C5032.78 2034.92 5036.31 2038.91 5039.03 2046.96C5040.29 2050.94 5041.38 2054.84 5041.38 2055.56C5041.38 2056.47 5043.19 2057.01 5047.9 2057.46C5060.48 2058.73 5067.36 2062.89 5071.16 2071.58C5072.16 2073.84 5073.97 2076.2 5075.14 2076.83C5079.22 2079 5080.75 2089.32 5077.77 2095.03C5076.77 2097.02 5076.41 2099.37 5076.68 2101.36C5077.13 2104.26 5077.41 2103.81 5080.75 2094.57C5083.2 2087.78 5084.28 2083.44 5084.1 2081C5083.74 2076.11 5085.46 2065.88 5087.27 2061.99C5088.18 2060.09 5089.72 2058.55 5090.89 2058.28C5098.31 2056.38 5097.32 2068.59 5088.27 2091.77C5083.11 2104.98 5082.93 2107.88 5086.55 2118.02C5087.72 2121.46 5088.27 2124.71 5088 2127.25C5087.81 2129.42 5088 2131.23 5088.36 2131.23C5089.72 2131.23 5098.41 2120.91 5098.41 2119.37C5098.41 2118.56 5097.86 2116.21 5097.14 2114.21C5095.96 2110.87 5095.96 2110.41 5097.41 2109.15C5099.58 2107.15 5102.3 2107.34 5104.29 2109.51C5106.46 2111.86 5107.19 2111.77 5107.82 2109.06C5109.99 2100.37 5114.79 2092.31 5117.78 2092.31C5118.41 2092.31 5119.5 2093.49 5120.31 2094.84C5121.76 2097.2 5121.76 2097.92 5120.49 2103.17C5119.04 2109.51 5116.42 2114.49 5113.7 2115.84C5112.25 2116.66 5111.98 2117.84 5111.98 2123.81C5111.98 2127.61 5111.35 2133.22 5110.62 2136.21C5109.9 2139.2 5109.36 2142 5109.27 2142.37C5109.27 2143.27 5115.15 2138.56 5128.55 2126.8L5138.23 2118.29L5138.23 2113.58C5138.23 2108.42 5139.32 2106.79 5144.21 2105.16C5147.74 2103.99 5151.81 2106.16 5154.52 2110.59C5158.15 2116.57 5156.52 2120.1 5148.91 2122.27C5145.56 2123.27 5140.68 2126.89 5125.38 2139.92C5114.79 2148.97 5102.66 2159.47 5098.41 2163.27C5094.15 2167.17 5086.55 2173.32 5081.39 2177.12C5076.23 2180.83 5072.25 2184.09 5072.43 2184.36C5073.42 2185.36 5108.18 2169.52 5116.33 2164.36C5120.76 2161.55 5126.65 2161.28 5127.19 2163.91C5127.55 2165.81 5118.95 2175.22 5113.88 2178.48C5109.45 2181.29 5106.01 2181.65 5103.38 2179.75C5101.94 2178.75 5101.21 2178.84 5097.86 2180.92C5093.97 2183.28 5092.43 2185.36 5095.42 2184.18C5099.04 2182.83 5107.09 2181.83 5110.08 2182.37C5113.79 2183.1 5119.4 2185.72 5123.48 2188.8C5125.56 2190.43 5127.55 2190.97 5130.81 2190.97C5145.2 2190.97 5162.31 2197.85 5167.74 2205.73C5170.91 2210.43 5172.72 2215.5 5172.81 2219.67C5172.9 2221.84 5173.08 2223.56 5173.26 2223.56C5173.44 2223.56 5176.97 2220.75 5181.05 2217.31C5191.27 2208.8 5197.7 2204.73 5215.62 2195.86C5230.83 2188.26 5239.25 2183.82 5242.87 2181.47C5243.86 2180.83 5245.22 2178.48 5245.95 2176.4C5247.21 2172.14 5250.11 2168.34 5251.83 2168.34C5253.55 2168.34 5254.18 2174.59 5253.1 2181.02C5251.29 2193.05 5247.48 2202.01 5236.17 2221.66C5232.46 2228.17 5229.74 2233.97 5229.11 2237.04C5228.57 2239.85 5226.3 2250.26 5224.31 2260.22C5215.62 2301.4 5207.75 2321.68 5192.09 2342.68C5178.24 2361.23 5176.52 2363.31 5172.63 2365.67C5170.64 2366.93 5166.2 2371.64 5162.49 2376.53C5148.19 2395.08 5124.38 2416.08 5107.46 2424.86C5104.74 2426.31 5100.85 2429.12 5098.86 2431.2C5093.16 2437.17 5088.09 2439.71 5076.5 2442.06C5066.82 2444.05 5059.66 2446.86 5055.41 2450.21C5053.69 2451.66 5053.96 2451.66 5059.48 2451.29C5068.17 2450.75 5073.42 2449.57 5083.02 2446.32C5100.58 2440.16 5120.58 2428.67 5136.69 2415.18C5149.27 2404.77 5155.43 2400.06 5165.93 2393C5170.46 2390.02 5176.97 2385.13 5180.41 2382.23C5199.33 2366.12 5219.97 2354.44 5244.14 2346.21C5260.34 2340.59 5261.24 2339.96 5271.56 2327.29C5273.1 2325.39 5274.19 2324.84 5275.36 2325.3C5276.81 2325.84 5276.9 2326.93 5276.54 2338.06C5276.27 2345.3 5275.73 2350.64 5275.09 2351.46C5274.46 2352.18 5274.19 2352.9 5274.46 2353.18C5275.18 2353.9 5269.93 2366.03 5264.41 2376.44C5254.36 2395.45 5241.6 2411.56 5227.03 2423.78C5217.43 2431.83 5202.59 2441.16 5194.35 2444.42C5191.64 2445.5 5182.4 2449.57 5173.8 2453.56C5158.33 2460.71 5143.57 2466.14 5139.59 2466.14C5135.61 2466.14 5136.42 2467.68 5140.77 2468.22C5153.35 2469.76 5184.03 2482.7 5197.97 2492.3C5221.33 2508.41 5243.86 2534.21 5251.83 2553.85C5255.45 2562.72 5257.71 2572.49 5257.71 2579.28C5257.71 2587.43 5256.63 2587.97 5249.75 2583.09C5243.5 2578.74 5237.62 2575.75 5225.13 2570.5C5219.97 2568.33 5211.64 2563.99 5206.57 2560.82C5201.14 2557.29 5193.81 2553.76 5188.2 2551.68C5176.79 2547.51 5168.1 2541.54 5155.61 2529.32C5147.37 2521.26 5140.68 2515.92 5138.78 2515.92C5138.32 2515.92 5139.5 2517.37 5141.31 2519.18C5143.21 2520.99 5146.02 2524.25 5147.56 2526.33C5149.18 2528.41 5155.61 2536.47 5161.86 2544.07C5185.21 2572.59 5192.18 2586.34 5193.99 2607.34C5194.35 2611.42 5194.17 2616.94 5193.45 2620.92C5190.73 2637.39 5174.17 2670.61 5169.19 2669.62C5168.46 2669.44 5167.02 2666.81 5165.84 2663.73C5161.86 2652.78 5158.51 2648.44 5137.24 2627.26C5111.71 2601.82 5102.39 2589.69 5091.98 2567.97C5088 2559.82 5086 2554.12 5077.86 2528.14C5075.32 2520 5071.97 2513.3 5069.08 2510.58C5067.18 2508.77 5067.09 2508.77 5061.75 2510.4C5054.32 2512.75 5042.65 2514.38 5038.48 2513.75C5029.52 2512.3 5019.39 2506.33 5004.9 2493.93C4994.31 2484.79 5000.38 2492.03 5019.39 2511.22C5030.25 2522.08 5042.74 2534.03 5047.08 2537.65C5054.96 2544.16 5055.23 2544.25 5059.94 2544.16C5064.19 2544.07 5065.1 2544.34 5066.63 2546.34C5068.35 2548.6 5068.35 2548.6 5066.54 2553.12C5063.38 2560.64 5057.94 2563.26 5054.05 2559.37C5053.06 2558.37 5051.97 2556.29 5051.7 2554.84C5051.25 2553.03 5049.16 2550.59 5044.64 2546.88C5033.6 2537.83 5010.06 2514.38 4999.02 2501.44C4985.71 2485.87 4984.27 2484.33 4987.07 2489.22C4990.6 2495.29 4994.04 2499.99 4996.48 2502.25C4997.75 2503.52 4998.84 2504.79 4998.84 2505.15C4998.84 2505.51 5000.47 2508.14 5002.37 2511.13C5004.36 2514.02 5007.71 2519.81 5009.97 2523.89C5012.14 2527.96 5015.76 2533.21 5018.03 2535.56C5027.98 2546.15 5029.25 2566.25 5020.74 2578.56C5016.22 2585.08 5012.42 2587.97 5002.01 2592.68C4990.78 2597.93 4986.35 2598.56 4980.73 2596.03L4977.02 2594.31L4972.14 2596.84C4966.43 2599.74 4964.71 2599.47 4961 2595.21C4959.1 2593.04 4958.2 2590.78 4957.74 2587.34C4957.29 2583.9 4956.39 2581.73 4954.76 2580.01C4951.86 2576.93 4951.23 2571.23 4953.22 2565.89C4955.03 2561.09 4954.12 2559.82 4948.6 2559.01C4944.71 2558.37 4941.81 2555.93 4937.29 2549.41C4935.93 2547.51 4935.93 2547.51 4921.9 2554.3C4906.06 2561.9 4889.04 2568.87 4877.37 2572.59C4872.3 2574.12 4868.13 2576.12 4866.05 2577.93C4858.99 2583.81 4848.58 2591.5 4842.79 2595.03C4836.54 2598.83 4817.99 2607.89 4814.37 2608.97C4810.02 2610.33 4810.11 2611.87 4814.55 2611.87C4819.35 2611.87 4834.46 2606.08 4841.34 2601.55C4854.47 2593.04 4867.5 2585.89 4873.02 2584.26C4875.74 2583.45 4879.63 2582 4881.62 2581.09C4890.58 2576.84 4904.7 2576.48 4916.92 2580.01C4920.36 2581 4925.25 2582.09 4927.78 2582.45C4934.48 2583.36 4940.91 2587.43 4939.28 2589.78C4938.92 2590.24 4934.12 2594.31 4928.69 2598.74C4923.17 2603.27 4915.84 2609.79 4912.4 2613.32C4905.7 2620.11 4899.63 2629.25 4900.63 2630.79C4900.9 2631.33 4903.89 2631.78 4907.24 2631.78C4914.57 2631.78 4924.52 2634.68 4933.76 2639.57C4941.72 2643.73 4953.22 2654.77 4958.83 2663.46C4965.17 2673.15 4969.87 2690.8 4969.87 2704.47C4969.87 2707.09 4970.69 2712.52 4971.68 2716.69C4972.68 2720.85 4973.49 2724.56 4973.49 2725.1C4973.49 2726.82 4968.97 2725.83 4954.94 2720.85C4941.99 2716.32 4939.55 2715.78 4931.86 2715.51C4927.15 2715.33 4916.02 2714.51 4907.24 2713.7C4885.87 2711.8 4870.4 2711.71 4863.97 2713.52C4847.41 2718.22 4841.79 2719.49 4833.65 2720.49C4828.67 2721.12 4823.6 2721.75 4822.33 2721.94C4821.07 2722.12 4809.84 2722.75 4797.44 2723.2C4784.95 2723.75 4771.73 2724.74 4768.02 2725.47C4751.19 2728.72 4723.22 2742.94 4709.64 2755.06C4707.11 2757.33 4700.41 2762.22 4694.52 2766.02C4685.29 2772.08 4678.41 2778.24 4678.41 2780.41C4678.41 2781.5 4682.76 2780.32 4687.92 2777.87C4695.61 2774.34 4699.41 2773.26 4707.11 2772.53C4714.35 2771.9 4714.53 2771.81 4722.49 2766.02C4726.84 2762.76 4731.91 2758.78 4733.72 2757.15C4742.23 2749.54 4752 2744.56 4769.38 2739.04C4776.8 2736.69 4785.04 2733.79 4787.57 2732.71C4793.55 2730.08 4801.15 2728.36 4821.97 2725.01C4846.14 2721.03 4853.38 2720.76 4864.15 2723.11C4882.98 2727.19 4906.15 2736.15 4917.65 2743.75C4925.7 2749 4937.92 2760.68 4943.35 2768.19C4949.6 2776.97 4963.63 2808.47 4966.71 2820.69C4968.15 2826.66 4968.7 2835.08 4967.7 2836.17C4966.71 2837.07 4955.12 2838.07 4944.08 2838.07C4932.67 2838.16 4903.71 2834.08 4890.67 2830.65C4886.15 2829.47 4878.27 2827.93 4873.02 2827.39C4858.27 2825.67 4839.26 2821.77 4834.73 2819.42C4833.38 2818.79 4829.48 2817.34 4826.13 2816.34C4822.79 2815.26 4816 2812.27 4811.02 2809.65C4806.04 2807.02 4799.43 2803.58 4796.35 2802.04C4790.47 2799.06 4782.51 2796.34 4782.51 2797.24C4782.6 2797.61 4785.49 2799.87 4789.02 2802.4C4798.8 2809.19 4807.49 2818.34 4825.95 2841.24C4851.84 2873.19 4856.19 2879.8 4861.53 2896.09C4862.79 2899.8 4865.51 2906.68 4867.5 2911.29C4872.21 2921.88 4874.38 2930.12 4875.83 2942.16C4877.82 2959.81 4875.74 2973.39 4867.68 2995.65C4865.51 3001.36 4862.88 3009.96 4861.71 3014.75C4860.62 3019.46 4858.54 3025.62 4857.18 3028.24C4854.65 3033.31 4846.41 3042.72 4844.51 3042.72C4843.88 3042.72 4841.34 3040.55 4838.81 3037.84C4833.74 3032.31 4828.67 3029.42 4818.71 3026.43C4805.41 3022.45 4797.17 3017.11 4778.52 3000.36C4755.89 2980 4748.74 2972.03 4732.99 2949.67C4713.17 2921.7 4703.76 2901.97 4699.23 2879.34C4698.15 2873.82 4696.34 2865.95 4695.16 2861.69C4694.07 2857.44 4691.63 2848.66 4689.91 2842.23C4686.47 2829.83 4685.11 2822.59 4684.21 2812.54C4683.75 2807.2 4683.48 2806.48 4681.85 2806.48C4678.23 2806.48 4666.74 2816.25 4642.57 2839.97C4629.17 2853.18 4616.41 2865.4 4614.24 2867.21C4610.71 2870.29 4610.44 2870.74 4610.98 2873.82C4611.79 2878.08 4609.8 2881.24 4605.82 2882.06C4600.75 2883.14 4596.13 2885.95 4595.5 2888.39C4595.14 2890.02 4593.87 2890.93 4590.34 2892.11C4584.28 2894.01 4573.69 2900.16 4562.73 2908.13C4548.52 2918.35 4539.02 2924.42 4531.78 2927.68C4528.07 2929.4 4522.55 2932.48 4519.56 2934.56C4508.79 2942.25 4485.07 2967.87 4468.6 2989.68C4459.46 3001.81 4453.48 3008.69 4450.86 3010.14C4448.87 3011.13 4448.41 3011.04 4445.88 3008.06C4444.34 3006.34 4441.9 3004.43 4440.45 3003.8C4439 3003.26 4437.55 3002.17 4437.28 3001.54C4436.56 2999.64 4460.27 2967.96 4475.21 2950.85C4479.55 2945.87 4488.33 2936.28 4494.58 2929.58C4500.82 2922.79 4507.61 2914.82 4509.51 2911.93C4511.5 2908.94 4515.03 2903.6 4517.3 2900.16C4519.65 2896.63 4523.81 2889.93 4526.62 2885.23C4529.42 2880.52 4533.5 2873.91 4535.58 2870.65C4550.97 2846.67 4550.51 2847.75 4553.95 2827.3C4555.13 2820.05 4556.76 2812.45 4557.48 2810.28C4558.21 2808.2 4558.66 2805.93 4558.39 2805.21C4558.03 2804.31 4554.04 2804.03 4539.2 2804.12C4520.83 2804.12 4520.28 2804.12 4510.51 2801.32C4480.18 2792.63 4477.74 2792.09 4469.32 2792.27C4464.89 2792.36 4460.9 2792 4460.36 2791.54C4459 2790.18 4456.65 2773.89 4456.65 2766.02C4456.65 2757.69 4458.28 2751.72 4462.44 2744.93C4464.07 2742.21 4465.97 2738.5 4466.7 2736.78C4469.14 2730.44 4472.31 2725.83 4477.74 2720.4C4484.26 2713.97 4491.05 2709.99 4502.36 2706.01C4510.05 2703.29 4511.41 2703.11 4524.99 2702.84C4536.67 2702.57 4541.1 2702.93 4547.62 2704.29C4552.05 2705.19 4558.39 2706.55 4561.65 2707.09C4564.91 2707.73 4567.71 2708.45 4567.98 2708.81C4568.26 2709.08 4570.43 2709.63 4572.96 2709.99C4575.41 2710.26 4578.57 2710.8 4579.84 2711.07C4582.01 2711.53 4582.38 2711.16 4584.28 2706.28C4586.81 2699.76 4588.53 2695.69 4590.7 2691.43L4592.33 2688.08L4587.72 2682.83C4585.27 2679.94 4581.74 2675.5 4580.02 2672.88L4576.95 2668.26L4570.61 2669.44C4567.17 2670.07 4564 2670.79 4563.55 2671.07C4562.73 2671.61 4560.02 2672.06 4539.02 2675.23C4532.77 2676.14 4524.81 2677.58 4521.37 2678.31C4510.33 2680.75 4485.52 2680.03 4465.34 2676.59C4459.09 2675.5 4452.76 2675.14 4444.34 2675.41L4432.21 2675.68L4432.21 2663.83C4432.21 2649.52 4433.03 2646.54 4441.26 2629.88C4449.59 2613.32 4458.37 2602.37 4469.32 2595.21C4477.65 2589.69 4481.27 2588.06 4491.5 2584.9C4504.89 2580.91 4509.15 2580.1 4517.48 2579.92L4525.08 2579.74L4524.45 2574.76C4523.45 2566.34 4521.1 2559.91 4516.75 2553.85C4510.24 2544.62 4504.99 2534.3 4501.91 2524.52C4500.28 2519.54 4497.29 2512.57 4495.21 2509.13C4491.59 2503.25 4482.9 2487.14 4482.9 2486.41C4482.9 2485.42 4487.33 2484.06 4492.95 2483.43C4500.91 2482.34 4514.49 2483.61 4523.18 2486.14C4549.52 2493.93 4574.23 2513.93 4593.96 2543.53C4596.95 2548.06 4600.39 2552.85 4601.57 2554.12C4602.74 2555.48 4604.64 2557.74 4605.82 2559.28C4608.17 2562.45 4614.15 2563.81 4618.58 2562.27C4620.3 2561.63 4621.57 2561.63 4621.84 2562.18C4622.2 2562.63 4623.2 2562.99 4624.19 2562.99C4625.46 2562.99 4625.82 2562.63 4625.28 2561.81C4624.92 2561.27 4624.74 2560.09 4624.83 2559.37C4625.1 2557.65 4617.95 2547.15 4609.71 2537.01C4597.4 2521.9 4591.52 2512.66 4587.45 2502.44C4585.36 2497 4582.2 2490.22 4580.48 2487.32C4576.31 2480.35 4564.64 2455.64 4563.91 2452.11C4562.82 2447.22 4560.56 2441.43 4555.22 2429.93C4552.33 2423.69 4548.52 2414.91 4546.8 2410.29C4544.27 2403.32 4544 2401.78 4544.99 2400.88C4546.71 2399.43 4560.47 2400.7 4565.99 2402.78C4568.35 2403.68 4575.13 2406.22 4581.11 2408.48C4600.93 2415.9 4604.28 2417.62 4628.18 2433.46C4648.54 2446.86 4663.57 2460.8 4669.27 2471.57C4671.71 2476.01 4672.44 2476.82 4673.71 2476.19C4676.24 2474.83 4679.95 2470.48 4682.03 2466.32C4683.12 2464.24 4684.84 2461.88 4685.93 2461.16C4687.56 2460.07 4688.1 2460.07 4690.36 2461.43C4693.44 2463.24 4693.8 2462.88 4697.78 2454.73L4700.77 2448.49L4697.87 2442.61C4696.24 2439.35 4694.43 2434.46 4693.8 2431.74C4693.17 2429.03 4692.08 2424.95 4691.45 2422.78C4690.72 2420.52 4690.18 2417.35 4690.18 2415.63C4690.18 2413.91 4688.55 2407.39 4686.56 2401.06C4682.58 2388.21 4681.13 2382.68 4680.68 2378.79C4677.33 2349.92 4677.6 2347.11 4683.3 2352.36C4686.65 2355.53 4689.18 2362.23 4690.81 2372.46C4691.63 2377.43 4692.71 2383.14 4693.17 2385.13L4694.16 2388.75L4694.89 2383.32C4696.34 2373.27 4695.43 2365.03 4692.17 2358.06C4689 2351.27 4685.74 2339.15 4685.02 2331C4684.57 2326.65 4684.75 2325.84 4686.02 2325.84C4686.83 2325.84 4688.55 2327.38 4689.91 2329.28C4691.36 2331.09 4694.52 2334.53 4697.06 2336.88C4701.77 2341.32 4705.12 2347.02 4709.1 2357.88C4710.37 2361.32 4711.81 2364.04 4712.36 2364.04C4713.9 2363.77 4713.71 2357.34 4711.9 2350.01C4710.73 2345.12 4710.46 2342.13 4711 2340.78C4711.72 2338.87 4711.45 2338.51 4708.92 2337.61C4706.56 2336.88 4706.29 2336.43 4707.38 2335.8C4708.1 2335.34 4709.55 2334.89 4710.46 2334.89C4712.99 2334.89 4711.63 2333.9 4708.1 2333.17C4705.66 2332.63 4705.21 2332.18 4705.39 2330.55C4705.66 2328.56 4704.3 2327.83 4703.3 2329.46C4702.31 2331 4699.87 2330.55 4700.5 2328.92C4700.95 2327.74 4700.59 2327.56 4698.33 2327.83C4695.7 2328.19 4695.52 2328.1 4696.06 2325.84C4696.43 2324.03 4696.24 2323.22 4695.25 2322.85C4694.43 2322.49 4693.8 2321.4 4693.8 2320.41C4693.8 2319.41 4693.17 2318.6 4692.44 2318.6C4691.72 2318.6 4690.36 2317.78 4689.55 2316.79C4688.64 2315.79 4687.46 2314.98 4686.83 2314.98C4686.29 2314.98 4678.14 2311.09 4668.82 2306.38C4659.5 2301.67 4651.17 2297.78 4650.35 2297.78C4649.54 2297.78 4648.54 2297.42 4648 2296.97C4645.1 2294.34 4627.45 2291.08 4625.64 2292.89C4625.37 2293.16 4626 2294.97 4627.18 2296.78C4628.27 2298.59 4629.44 2300.77 4629.81 2301.67C4631.89 2307.37 4645.19 2322.85 4653.07 2328.83C4655.69 2330.82 4655.97 2331.45 4654.88 2332.18C4652.34 2333.81 4644.83 2334.89 4636.05 2334.89C4631.25 2334.89 4626.37 2335.16 4625.28 2335.43C4624.01 2335.8 4622.38 2337.97 4620.48 2341.95C4618.94 2345.3 4616.05 2349.65 4614.06 2351.73C4611.61 2354.26 4610.62 2355.89 4611.07 2356.89C4612.16 2359.87 4610.53 2368.29 4608.17 2371.01C4607 2372.46 4604.82 2376.08 4603.29 2379.06C4599.85 2386.03 4596.77 2388.57 4593.69 2387.21C4591.7 2386.3 4588.98 2382.86 4586.54 2377.89C4585.09 2375.17 4582.01 2375.17 4575.86 2377.98C4568.98 2380.96 4552.33 2382.59 4549.79 2380.51C4549.07 2379.79 4547.89 2379.24 4547.35 2379.24C4546.35 2379.24 4546.08 2379.79 4544.45 2387.21C4543 2393.55 4537.84 2399.97 4532.14 2402.78C4528.07 2404.77 4527.89 2404.95 4529.97 2405.4C4531.23 2405.67 4533.05 2406.4 4534.04 2407.03C4535.58 2407.94 4535.67 2408.3 4534.58 2410.2C4531.87 2415.18 4527.52 2418.98 4523.36 2420.16C4519.56 2421.15 4518.74 2421.06 4515.94 2419.52C4514.13 2418.62 4510.87 2415.72 4508.7 2413.1C4505.89 2409.93 4503.63 2408.12 4501.64 2407.76C4494.3 2406.13 4485.25 2399.16 4481.99 2392.46C4479.73 2387.57 4479.64 2381.51 4481.99 2376.98C4483.26 2374.45 4483.62 2372.55 4483.26 2370.1C4482.72 2367.12 4483.08 2366.3 4485.98 2363.31C4488.96 2360.24 4491.05 2355.62 4491.05 2351.82C4491.05 2349.92 4491.23 2349.92 4486.25 2352.09C4483.99 2353.09 4479.82 2354.08 4477.02 2354.35C4474.12 2354.62 4469.96 2355.44 4467.69 2356.16C4462.99 2357.79 4459.55 2357.34 4456.74 2354.62C4455.02 2353.09 4454.75 2352 4455.02 2348.2L4455.29 2343.58L4451.31 2342.86C4446.15 2341.95 4441.81 2337.88 4439.81 2332C4437.01 2323.4 4439.09 2320.14 4451.04 2314.16C4456.11 2311.54 4456.56 2311.18 4455.29 2309.91C4453.66 2308.19 4453.66 2309 4455.38 2303.21C4456.38 2299.68 4456.65 2296.97 4456.11 2292.89C4455.74 2289.81 4455.56 2286.1 4455.65 2284.66C4456.02 2279.41 4458.73 2266.46 4460.27 2262.93C4464.07 2254.15 4473.21 2245.1 4483.53 2240.03C4486.16 2238.67 4488.33 2237.41 4488.33 2237.04C4488.33 2236.77 4486.25 2236.23 4483.71 2235.96C4476.38 2235.05 4472.04 2231.34 4474.93 2228.35C4477.47 2225.91 4482.18 2225.55 4488.87 2227.27C4492.31 2228.17 4496.3 2228.9 4497.83 2228.9L4500.55 2228.9L4498.11 2226.73C4491.86 2221.29 4474.48 2221.66 4462.71 2227.45C4456.74 2230.44 4456.11 2230.62 4454.66 2229.26C4452.85 2227.63 4452.49 2223.47 4453.93 2220.75C4455.93 2217.13 4460.72 2216.14 4475.12 2216.23C4482.45 2216.32 4489.6 2216.59 4490.96 2216.86L4493.31 2217.49L4490.77 2214.69C4489.33 2213.24 4486.88 2209.44 4485.25 2206.36L4482.45 2200.75L4472.85 2200.3C4462.35 2199.84 4458.28 2200.93 4457.1 2204.64C4456.74 2205.64 4455.2 2207.26 4453.66 2208.17C4451.13 2209.71 4450.68 2209.71 4448.32 2208.53C4443.62 2206.09 4441.72 2198.58 4444.61 2193.69C4446.51 2190.43 4449.59 2189.61 4453.03 2191.33C4454.66 2192.15 4458.64 2192.6 4463.62 2192.69C4467.96 2192.69 4473.76 2192.96 4476.29 2193.33L4481.09 2193.87L4481.09 2187.08L4481.09 2180.2L4478.1 2179.75C4476.56 2179.57 4471.4 2178.93 4466.88 2178.48C4460.18 2177.85 4457.74 2177.12 4454.84 2175.22C4452.85 2173.96 4451.22 2172.42 4451.22 2171.96C4451.22 2171.51 4452.58 2170.42 4454.12 2169.52C4458.1 2167.44 4465.25 2167.62 4474.75 2169.97C4478.92 2171.06 4482.54 2171.78 4482.72 2171.6C4482.81 2171.42 4483.08 2170.15 4483.17 2168.71C4483.35 2166.62 4482.9 2165.99 4480.64 2165.36C4473.49 2163.18 4469.41 2159.74 4470.95 2157.12C4471.31 2156.49 4479.1 2156.76 4485.98 2157.66C4487.43 2157.93 4487.97 2157.03 4488.87 2152.96C4489.51 2150.24 4490.59 2146.35 4491.41 2144.36C4492.31 2141.91 4492.77 2137.48 4492.86 2130.6L4492.86 2120.55L4488.24 2115.12C4483.53 2109.51 4479.46 2106.25 4473.85 2103.62C4470.68 2102.18 4470.59 2102.18 4462.08 2106.16C4457.37 2108.33 4452.94 2110.78 4452.21 2111.59C4451.58 2112.4 4450.95 2114.94 4450.86 2117.2C4450.68 2121.91 4449.59 2123.09 4445.06 2123.09C4441.35 2123.09 4438.09 2121 4434.84 2116.39C4432.03 2112.68 4431.4 2107.97 4433.3 2106.07C4434.65 2104.71 4439 2104.71 4441.17 2106.07C4442.62 2106.97 4443.34 2106.7 4445.7 2104.35C4447.24 2102.81 4451.31 2100.37 4454.84 2098.92C4461.36 2096.2 4462.08 2095.03 4457.1 2095.03C4455.56 2095.03 4453.48 2094.48 4452.49 2093.76C4450.31 2092.13 4451.4 2089.96 4455.65 2087.33C4457.28 2086.34 4460.09 2084.16 4461.9 2082.53C4466.79 2078.19 4473.3 2076.47 4485.43 2076.47C4490.96 2076.47 4495.57 2076.29 4495.57 2076.02C4495.57 2075.29 4484.26 2064.43 4477.29 2058.46C4472.4 2054.2 4470.86 2052.21 4469.32 2048.14C4466.88 2041.71 4467.24 2039 4470.59 2037.19C4472.04 2036.37 4473.12 2035.56 4473.12 2035.29C4473.12 2035.01 4472.85 2033.29 4472.49 2031.39C4470.5 2020.98 4482.63 2028.41 4489.33 2041.71C4491.41 2046.06 4493.94 2049.5 4495.75 2050.85C4500.91 2054.57 4519.38 2066.06 4519.74 2065.7C4519.92 2065.61 4519.2 2063.53 4518.2 2061.26C4516.84 2058.19 4516.48 2056.1 4516.93 2053.84C4517.3 2051.85 4517.11 2050.67 4516.57 2050.67C4516.03 2050.67 4511.86 2047.14 4507.43 2042.89C4496.48 2032.48 4487.61 2018.09 4491.23 2016.73C4496.3 2014.74 4511.32 2028.95 4509.69 2034.2C4509.33 2035.29 4510.24 2036.82 4512.5 2039.09C4518.29 2044.52 4519.56 2044.88 4523.81 2041.98C4527.34 2039.54 4527.43 2039.36 4526.8 2035.47C4526.35 2032.39 4525.44 2030.85 4523.36 2029.13C4519.74 2026.14 4508.15 2014.47 4502.81 2008.4C4498.02 2002.88 4497.02 2000.26 4495.66 1989.57C4494.76 1982.79 4494.76 1981.43 4495.84 1980.25C4496.93 1979.26 4497.56 1979.17 4499.19 1980.07C4501.73 1981.43 4503.36 1985.32 4506.34 1997.27C4508.7 2006.68 4508.88 2006.86 4514.13 2011.84C4517.11 2014.65 4520.46 2017.36 4521.55 2018C4523.36 2018.9 4523.63 2018.81 4524.17 2016.82C4524.9 2013.83 4523.45 2011.39 4516.66 2004.33C4510.78 1998.17 4508.42 1994.1 4507.25 1987.76C4506.89 1985.77 4506.34 1982.61 4505.98 1980.79C4505.35 1977.72 4505.53 1977.36 4507.79 1976.27C4510.14 1975.18 4510.51 1975.36 4512.68 1978.08C4515.03 1980.79 4519.11 1990.3 4520.37 1995.82C4521.19 1999.17 4523.45 2002.52 4525.71 2003.79C4527.34 2004.6 4527.43 2004.51 4526.98 2002.7C4525.8 1998.35 4527.52 1997.27 4535.67 1997.27C4544.27 1997.27 4550.97 1998.9 4556.58 2002.16L4560.56 2004.42L4561.11 2001.61C4561.38 2000.07 4561.65 1997.81 4561.65 1996.54C4561.65 1993.65 4565.45 1985.5 4567.8 1983.42C4568.8 1982.51 4570.07 1980.7 4570.7 1979.35C4571.24 1977.99 4573.69 1975.64 4575.95 1974.1C4578.76 1972.29 4580.11 1970.75 4579.93 1969.75C4579.48 1967.49 4581.38 1965.59 4585.91 1963.69C4593.51 1960.43 4596.77 1961.88 4600.48 1970.11C4602.02 1973.64 4602.29 1973.83 4602.29 1971.83C4602.38 1970.48 4603.29 1968.3 4604.28 1966.95C4606.18 1964.68 4606.18 1964.14 4605.19 1958.35C4604.19 1952.83 4603.65 1951.92 4600.48 1949.39C4596.23 1945.86 4595.68 1941.78 4599.03 1938.61C4602.02 1935.72 4610.89 1935.81 4615.05 1938.61C4620.94 1942.6 4621.39 1949.3 4615.96 1951.38C4612.79 1952.55 4612.88 1952.28 4614.6 1960.61C4616.05 1967.31 4619.31 1976.27 4622.66 1982.7L4624.74 1986.77L4625.37 1980.89C4625.64 1977.72 4625.91 1972.83 4626 1970.11C4626.1 1964.23 4628.09 1953.01 4630.53 1944.59C4631.8 1940.15 4633.34 1937.44 4636.41 1934C4638.68 1931.46 4641.3 1929.38 4642.21 1929.38C4645.65 1929.38 4647.46 1934.99 4645.28 1939.25C4643.38 1942.96 4644.2 1949.84 4647.19 1956.36C4648.36 1958.89 4650.17 1965.05 4651.17 1970.11C4653.07 1978.89 4656.51 1988.94 4660.4 1996.54C4661.4 1998.54 4662.39 1999.98 4662.57 1999.8C4662.66 1999.71 4661.76 1995.64 4660.49 1990.93C4657.69 1980.52 4657.59 1969.12 4660.04 1957.44C4661.4 1951.11 4662.12 1949.57 4663.93 1948.66C4665.83 1947.76 4666.47 1947.85 4668.09 1949.39C4669.18 1950.38 4670.27 1952.55 4670.54 1954.09C4670.99 1957.26 4668.73 1965.23 4665.74 1970.84C4663.21 1975.64 4663.66 1980.07 4667.55 1990.84C4669.09 1994.92 4670.27 1998.9 4670.27 1999.71C4670.27 2000.44 4671.17 2002.61 4672.26 2004.42L4674.34 2007.68L4674.97 2001.61C4675.25 1998.26 4676.6 1991.93 4677.87 1987.4C4680.77 1977.54 4680.86 1973.64 4678.41 1971.47C4676.15 1969.39 4675.34 1965.05 4676.15 1958.62C4676.69 1954.27 4677.33 1952.92 4680.95 1949.02C4683.3 1946.58 4686.47 1943.96 4688.1 1943.32C4689.64 1942.6 4692.44 1941.06 4694.16 1939.88C4695.88 1938.71 4699.32 1937.44 4701.68 1937.17C4704.03 1936.8 4707.11 1936.08 4708.46 1935.54C4710.64 1934.72 4711.18 1934.9 4712.81 1936.71C4713.71 1937.89 4714.62 1939.52 4714.62 1940.24C4714.62 1940.97 4715.62 1943.23 4716.79 1945.22C4718.42 1947.76 4719.15 1948.48 4719.51 1947.49C4719.78 1946.76 4720.68 1944.32 4721.41 1942.05C4724.21 1934.09 4729.01 1931.74 4733.27 1936.35C4737.25 1940.61 4738.79 1944.23 4739.51 1950.2C4740.42 1958.8 4740.96 1961.06 4742.23 1961.06C4743.95 1961.06 4746.3 1964.14 4746.3 1966.4C4746.3 1967.67 4749.11 1971.11 4754.17 1976.27C4758.61 1980.61 4763.86 1986.14 4766.03 1988.67C4769.2 1992.29 4769.83 1992.74 4769.38 1990.93C4767.12 1981.43 4766.03 1971.83 4766.12 1960.79C4766.21 1953.91 4765.85 1947.58 4765.31 1946.67C4764.86 1945.67 4762.41 1943.41 4759.88 1941.6C4753.54 1936.99 4753 1935.63 4755.26 1930.83C4757.98 1925.31 4757.61 1922.5 4753.54 1915.8C4748.02 1906.93 4748.74 1904.13 4757.16 1900.78C4760.06 1899.6 4763.68 1899.06 4769.56 1899.06C4777.8 1899.06 4777.89 1899.06 4781.06 1902.14C4783.05 1904.13 4785.22 1907.66 4786.76 1911.64C4788.84 1917.16 4790.38 1919.15 4796.99 1925.76C4801.24 1930.02 4807.76 1937.44 4811.38 1942.33C4815 1947.21 4818.17 1951.02 4818.35 1950.92C4818.53 1950.74 4817.9 1948.03 4816.9 1944.86C4815.18 1939.07 4813.01 1935.72 4811.02 1935.72C4808.94 1935.72 4800.07 1913.63 4800.16 1908.56C4800.16 1906.12 4800.61 1905.21 4802.15 1904.49C4804.77 1903.31 4804.77 1902.77 4801.88 1900.51C4800.25 1899.24 4798.8 1898.79 4797.35 1899.15C4793.46 1900.15 4790.74 1898.79 4788.84 1894.99C4787.3 1892 4787.21 1891 4788.03 1889.28C4790.38 1884.85 4791.56 1884.12 4797.44 1884.12C4802.51 1884.12 4803.23 1884.4 4805.86 1887.11ZM4811.47 1911.55C4811.47 1912.18 4813.28 1915.71 4815.54 1919.52C4818.53 1924.58 4820.34 1929.29 4822.79 1938.43C4827.22 1955.09 4826.95 1954.27 4827.85 1952.83C4828.31 1952.1 4828.67 1950.29 4828.67 1948.84C4828.76 1947.3 4829.3 1944.5 4830.03 1942.51C4831.29 1938.89 4831.29 1938.8 4827.4 1931.92C4824.23 1926.4 4812.65 1910.46 4811.65 1910.37C4811.56 1910.37 4811.47 1910.92 4811.47 1911.55ZM4834.91 1965.59C4835 1971.83 4835.64 1977.9 4836.27 1979.17C4837.18 1981.25 4842.52 1983.69 4843.6 1982.61C4844.42 1981.79 4842.25 1969.03 4839.89 1961.24C4838.08 1955.27 4837.27 1953.73 4836.09 1954C4834.73 1954.27 4834.55 1955.54 4834.91 1965.59ZM4649.36 2009.49C4648.91 2012.93 4648 2017.09 4647.46 2018.63C4646.37 2021.8 4646.19 2021.53 4660.31 2040.54C4668.37 2051.49 4670.27 2052.21 4670.27 2044.7C4670.27 2039.54 4670.09 2038.91 4658.41 2011.3C4656.51 2006.77 4654.06 2001.07 4652.89 1998.63L4650.81 1994.1L4650.53 1998.63C4650.44 2001.07 4649.9 2005.96 4649.36 2009.49ZM4483.26 2050.85C4483.53 2052.03 4483.8 2053.66 4483.8 2054.57C4483.8 2056.47 4490.59 2063.25 4499.19 2070.13C4506.07 2075.56 4510.69 2080.09 4517.11 2087.6C4523 2094.48 4525.08 2095.57 4533.14 2096.11C4537.66 2096.47 4541.37 2097.47 4546.08 2099.55C4549.7 2101.18 4552.87 2102.27 4553.14 2102C4553.77 2101.36 4550.33 2094.75 4548.61 2093.31C4547.71 2092.49 4545.99 2092.31 4543.64 2092.76C4541.01 2093.22 4539.02 2092.85 4536.12 2091.59C4530.69 2089.14 4522.91 2081.9 4522 2078.46C4521.37 2076.11 4520.1 2074.93 4515.21 2072.22C4507.16 2067.78 4499.28 2062.17 4491.23 2054.84C4484.26 2048.5 4482.36 2047.6 4483.26 2050.85ZM4768.39 2091.5C4763.14 2094.66 4762.95 2096.2 4767.03 2101.36C4770.83 2106.07 4773.09 2111.41 4772.19 2113.58C4771.92 2114.31 4768.84 2116.3 4765.31 2118.11C4757.34 2122.09 4756.26 2124.08 4758.88 2129.24C4762.14 2135.67 4761.05 2148.16 4757.16 2150.24C4754.9 2151.42 4751.37 2151.42 4747.11 2150.06C4745.12 2149.52 4743.31 2149.33 4743.04 2149.61C4742.41 2150.24 4746.12 2160.02 4747.3 2160.65C4748.38 2161.37 4753.63 2159.02 4758.88 2155.4C4766.48 2150.15 4773.27 2147.34 4778.61 2147.16C4783.59 2147.07 4784.23 2146.62 4782.14 2144.9C4778.79 2142.09 4775.26 2128.15 4775.26 2117.38C4775.26 2115.3 4774.36 2111.77 4773.36 2109.51C4771.46 2105.43 4770.83 2095.48 4772.1 2091.4C4772.82 2089.14 4772.19 2089.14 4768.39 2091.5ZM5096.96 2135.03C5089.26 2143.09 5084.92 2148.43 5081.75 2154.04C5078.94 2158.84 5077.32 2163.82 5078.49 2163.82C5080.3 2163.82 5090.71 2157.03 5094.06 2153.68C5096.05 2151.69 5099.04 2147.16 5100.67 2143.63C5103.66 2137.12 5105.56 2128.52 5104.02 2128.52C5103.56 2128.52 5100.4 2131.5 5096.96 2135.03ZM4958.56 2143.99C4953.04 2150.51 4945.98 2158.21 4942.81 2161.19C4939.64 2164.18 4937.2 2166.71 4937.38 2166.8C4937.56 2166.99 4940.37 2168.07 4943.62 2169.16C4955.03 2173.14 4965.44 2180.65 4969.96 2187.89C4971.95 2191.15 4972.95 2191.24 4973.77 2188.26C4974.13 2186.72 4973.31 2185.63 4969.78 2183.1C4963.27 2178.48 4962.72 2176.94 4966.61 2174.59C4970.69 2172.14 4971.05 2170.42 4970.96 2151.42C4970.87 2136.48 4970.51 2132.05 4969.15 2132.23C4968.79 2132.23 4963.99 2137.57 4958.56 2143.99ZM4675.34 2156.3C4676.24 2159.93 4679.23 2165.63 4680.22 2165.63C4680.77 2165.63 4681.13 2166.26 4681.13 2166.99C4681.13 2167.71 4683.39 2171.78 4686.11 2176.04C4694.16 2188.53 4706.2 2212.79 4705.12 2214.51C4704.66 2215.23 4709.64 2219.94 4710.91 2219.94C4711.36 2219.94 4711.9 2217.22 4712.27 2213.78C4712.9 2206.72 4715.52 2196.31 4717.79 2191.97C4719.33 2189.07 4719.33 2188.8 4717.52 2184.73C4716.43 2182.46 4714.98 2178.48 4714.17 2176.04C4712.27 2170.15 4706.47 2159.2 4704.48 2158.02C4703.4 2157.39 4700.86 2157.75 4694.8 2159.74C4686.83 2162.28 4686.47 2162.28 4683.39 2160.83C4681.67 2160.02 4679.68 2158.11 4678.87 2156.58C4677.06 2153.05 4674.52 2152.86 4675.34 2156.3ZM4640.31 2198.76C4639.94 2200.75 4639.49 2204.01 4639.49 2206.18C4639.49 2208.26 4638.86 2211.52 4638.04 2213.42C4637.23 2215.23 4635.96 2218.76 4635.24 2221.29C4634.51 2223.74 4633.25 2226.82 4632.52 2227.99C4631.44 2229.71 4631.35 2230.53 4632.25 2232.25C4632.88 2233.42 4642.03 2241.03 4652.53 2249.08C4679.32 2269.81 4685.29 2274.61 4692.17 2281.22C4695.43 2284.29 4698.6 2286.92 4699.14 2286.92C4699.68 2286.92 4700.05 2287.28 4699.87 2287.73C4699.59 2288.73 4706.56 2296.33 4708.46 2297.15C4709.46 2297.51 4709.82 2298.23 4709.55 2299.05C4709.19 2300.04 4710.27 2301.04 4713.17 2302.49C4715.43 2303.57 4717.33 2304.84 4717.33 2305.2C4717.33 2305.56 4717.97 2305.93 4718.69 2305.93C4720.59 2305.93 4720.41 2304.75 4717.24 2298.59C4715.16 2294.43 4714.8 2292.8 4715.52 2291.9C4716.79 2290.36 4715.25 2289.27 4712.81 2290.09C4710.46 2290.81 4710.46 2289.45 4712.9 2287.37L4714.71 2285.65L4712.63 2284.02C4711 2282.85 4710.73 2282.3 4711.63 2281.4C4712.99 2280.04 4713.17 2278.41 4711.9 2279.22C4710.46 2280.13 4707.38 2278.77 4707.38 2277.32C4707.38 2276.6 4708.01 2276.06 4708.74 2276.06C4710.37 2276.06 4710.55 2272.53 4708.92 2272.07C4704.12 2270.63 4704.21 2270.63 4706.38 2269.18C4707.92 2268 4708.19 2267.46 4707.29 2266.46C4706.74 2265.74 4705.66 2265.19 4704.93 2265.19C4703.12 2265.19 4702.58 2262.93 4703.76 2260.67C4704.57 2259.13 4704.57 2258.04 4703.76 2256.05C4702.76 2253.7 4702.49 2253.52 4701.49 2254.88C4700.77 2255.87 4699.77 2256.23 4698.78 2255.78C4697.24 2255.24 4697.24 2255.15 4698.78 2253.97C4700.41 2252.79 4700.41 2252.7 4698.42 2252.07C4697.15 2251.71 4695.61 2251.98 4694.25 2252.88C4691.9 2254.42 4691.63 2254.24 4691.99 2251.26C4692.08 2249.81 4691.72 2249.63 4689.27 2250.17C4686.38 2250.71 4686.38 2250.62 4686.83 2248C4687.37 2245.55 4687.19 2245.28 4685.11 2245.28C4683.03 2245.28 4682.85 2245.1 4683.93 2243.83C4684.57 2243.02 4685.2 2240.85 4685.29 2239.04C4685.29 2237.23 4685.65 2235.05 4686.11 2234.15C4686.56 2233.06 4686.38 2232.61 4685.29 2232.61C4684.48 2232.61 4683.84 2232.25 4683.84 2231.79C4683.84 2230.35 4661.49 2209.53 4647.19 2197.58C4644.65 2195.59 4642.3 2194.14 4641.94 2194.59C4641.48 2194.95 4640.76 2196.86 4640.31 2198.76ZM4714.53 2239.94C4712.99 2242.84 4713.99 2247.73 4718.33 2259.04C4721.86 2268.18 4722.31 2268.91 4722.95 2266.55C4723.31 2265.01 4723.22 2263.47 4722.68 2262.84C4722.13 2262.21 4721.95 2261.3 4722.22 2260.85C4722.95 2259.67 4727.2 2258.95 4727.83 2259.85C4728.11 2260.31 4729.01 2260.67 4729.83 2260.67C4730.91 2260.58 4730.64 2260.22 4729.01 2259.31C4726.11 2257.77 4724.58 2253.79 4724.58 2248C4724.58 2243.65 4723.4 2241.84 4718.87 2239.31C4716.07 2237.77 4715.71 2237.77 4714.53 2239.94ZM4757.16 2259.94C4752.18 2261.21 4746.66 2261.94 4741.5 2261.94L4733.54 2261.94L4736.52 2263.47C4738.15 2264.29 4740.51 2266.1 4741.68 2267.37C4744.94 2270.81 4749.29 2270.35 4753.63 2266.01C4755.71 2263.93 4757.43 2263.84 4758.97 2265.74C4759.97 2266.82 4759.88 2267.91 4758.7 2271.8C4757.25 2276.42 4755.8 2278.77 4750.46 2285.47C4748.38 2288.19 4748.11 2289 4749.02 2290.09C4750.28 2291.53 4753.54 2291.99 4753.54 2290.63C4753.54 2290.18 4755.35 2287.55 4757.61 2284.84C4759.88 2282.03 4761.69 2279.13 4761.69 2278.41C4761.69 2276.24 4766.03 2267.01 4768.57 2263.66C4773.09 2257.68 4770.01 2256.69 4757.16 2259.94ZM5021.92 2269.81C5005.54 2271.89 4974.31 2281.31 4967.79 2286.1C4966.43 2287.1 4964.99 2287.64 4964.53 2287.37C4964.08 2287.1 4962.36 2288.1 4960.73 2289.54L4957.74 2292.26L4960.28 2293.25C4961.64 2293.71 4962.99 2294.16 4963.36 2294.16C4963.72 2294.16 4966.34 2295.7 4969.24 2297.6C4974.85 2301.31 4979.29 2307.01 4980.83 2312.53C4981.55 2315.34 4982.55 2316.25 4986.35 2318.24C4988.79 2319.5 4991.14 2321.31 4991.33 2322.31C4991.6 2323.22 4991.87 2324.03 4991.96 2324.03C4992.05 2324.03 4994.31 2323.22 4997.03 2322.31C5001.37 2320.77 5002.28 2320.14 5004.09 2316.43C5005.45 2313.53 5007.44 2311.36 5010.42 2309.46C5014.59 2306.74 5014.95 2306.65 5023.01 2307.1C5032.51 2307.56 5032.51 2307.56 5039.03 2297.87C5043.28 2291.53 5043.55 2287.01 5039.66 2284.11C5036.13 2281.58 5032.96 2274.16 5033.69 2270.54C5034.23 2268.09 5034.14 2267.91 5032.15 2268.27C5031.06 2268.54 5026.35 2269.18 5021.92 2269.81ZM4723.31 2272.07C4721.41 2273.97 4721.5 2275.33 4723.67 2278.14C4724.67 2279.41 4725.75 2282.39 4726.02 2284.84C4726.3 2287.19 4726.93 2290 4727.38 2290.99C4727.83 2291.99 4728.74 2295.06 4729.46 2297.78C4730.19 2300.5 4731.27 2303.94 4731.82 2305.47L4732.9 2308.19L4733.9 2306.11C4734.62 2304.57 4734.62 2303.48 4733.81 2302.31C4732.99 2301.04 4733.08 2300.59 4734.08 2300.13C4735.8 2299.5 4735.8 2296.33 4734.08 2295.61C4732.99 2295.25 4733.18 2294.7 4735.08 2292.8C4736.89 2290.99 4737.25 2289.91 4736.8 2288C4736.52 2286.65 4735.62 2285.11 4734.89 2284.57C4734.26 2284.02 4733.63 2282.48 4733.63 2281.13C4733.63 2279.68 4733.27 2278.86 4732.72 2279.22C4732.18 2279.5 4731.46 2278.68 4730.91 2277.41C4730.37 2275.88 4729.46 2275.15 4728.47 2275.33C4727.29 2275.51 4726.75 2274.88 4726.57 2273.07C4726.21 2270.26 4725.3 2269.99 4723.31 2272.07ZM4561.92 2277.32C4559.11 2278.68 4557.03 2279.86 4557.3 2280.13C4557.48 2280.4 4559.93 2280.04 4562.64 2279.32C4565.36 2278.59 4569.52 2277.78 4572.06 2277.41C4577.31 2276.69 4578.21 2276.24 4577.4 2274.97C4576.4 2273.43 4567.53 2274.79 4561.92 2277.32ZM4802.69 2279.68C4802.15 2280.76 4801.33 2281.94 4800.88 2282.3C4799.7 2283.12 4793.82 2291.53 4792.1 2294.79C4791.38 2296.33 4789.84 2297.87 4788.84 2298.23C4787.39 2298.69 4787.21 2299.14 4787.94 2300.59C4789.11 2302.67 4792.64 2302.85 4794.27 2300.95C4794.91 2300.22 4796.08 2299.59 4796.99 2299.59C4797.89 2299.59 4799.07 2298.96 4799.7 2298.23C4800.34 2297.51 4803.05 2295.61 4805.77 2294.07C4808.48 2292.53 4810.48 2290.81 4810.29 2290.18C4810.11 2289.63 4808.94 2286.47 4807.76 2283.03C4805.5 2276.78 4804.5 2276.06 4802.69 2279.68ZM4538.57 2282.94C4531.23 2283.66 4526.71 2286.1 4524.99 2290.18C4524.27 2291.99 4523.63 2293.62 4523.63 2293.8C4523.63 2294.97 4527.34 2293.62 4532.86 2290.45C4536.39 2288.37 4541.73 2285.56 4544.81 2284.11C4549.61 2281.85 4549.88 2281.58 4547.17 2281.94C4545.45 2282.12 4541.55 2282.57 4538.57 2282.94ZM5061.2 2301.85C5063.65 2305.56 5065.91 2310.18 5066.18 2311.99C5067 2316.97 5064.64 2324.3 5060.12 2331.18C5057.94 2334.44 5055.95 2337.88 5055.59 2338.78C5055.23 2339.69 5055.59 2343.94 5056.32 2348.11C5057.58 2355.26 5057.49 2356.43 5055.95 2363.22C5054.32 2370.74 5052.51 2375.17 5049.35 2379.24C5046.45 2382.96 5041.56 2388.02 5039.39 2389.65L5037.31 2391.1L5039.48 2392.64C5040.75 2393.46 5043.37 2395.54 5045.27 2397.08C5049.8 2400.88 5051.7 2400.88 5054.23 2396.89C5056.86 2392.91 5059.48 2391.92 5066.27 2392.01C5077.5 2392.19 5077.86 2392.1 5079.94 2389.83C5081.03 2388.66 5082.56 2386.49 5083.29 2385.04C5087.45 2376.89 5095.6 2352.36 5097.05 2343.49C5097.41 2341.5 5098.22 2338.33 5098.95 2336.43C5099.67 2334.53 5100.03 2332.63 5099.76 2332.18C5099.49 2331.81 5097.77 2331.18 5095.87 2330.82C5093.97 2330.55 5091.07 2329.46 5089.53 2328.56C5086.46 2326.65 5083.29 2321.59 5084.56 2320.32C5084.92 2319.96 5087.27 2319.5 5089.81 2319.32C5094.88 2319.05 5095.78 2317.42 5092.07 2315.61C5088.27 2313.71 5085.64 2308.01 5085.91 2302.22L5086.19 2297.06L5075.78 2297.51C5067.9 2297.78 5064.46 2297.6 5061.75 2296.6C5059.76 2295.79 5057.85 2295.16 5057.49 2295.16C5057.13 2295.06 5058.76 2298.14 5061.2 2301.85ZM4810.38 2304.93C4807.22 2306.38 4803.6 2307.83 4802.24 2308.1C4797.71 2309.09 4797.44 2311.45 4800.7 2320.05C4805.95 2334.08 4810.48 2334.62 4823.24 2323.12L4826.77 2319.96L4824.51 2313.17C4821.79 2305.02 4820.16 2302.31 4817.81 2302.31C4816.9 2302.31 4813.55 2303.48 4810.38 2304.93ZM4914.39 2308.19C4912.58 2309.46 4911.04 2310.91 4911.04 2311.45C4911.04 2311.9 4912.49 2312.99 4914.3 2313.8C4917.1 2315.16 4917.56 2315.16 4918.28 2314.07C4919.37 2312.44 4919.46 2305.93 4918.46 2305.93C4918.1 2305.93 4916.29 2306.92 4914.39 2308.19ZM4495.12 2315.52C4484.26 2317.15 4474.03 2317.15 4469.96 2315.43C4468.15 2314.71 4466.15 2314.07 4465.61 2314.07C4464.07 2314.07 4465.07 2324.75 4466.97 2328.47C4469.41 2333.08 4474.84 2338.6 4478.83 2340.41C4482.54 2342.13 4490.59 2342.68 4492.58 2341.41C4493.22 2340.96 4494.49 2337.79 4495.39 2334.35C4497.11 2327.92 4501.18 2320.68 4506.52 2314.53L4509.6 2311.09L4506.43 2312.72C4504.71 2313.62 4499.64 2314.89 4495.12 2315.52ZM4868.68 2338.69C4868.22 2339.33 4867.59 2340.68 4867.23 2341.77C4866.69 2343.4 4867.68 2344.31 4874.11 2348.02C4878.27 2350.37 4882.71 2353.36 4884.06 2354.53C4886.96 2357.25 4888.14 2356.71 4888.95 2352.27C4889.31 2350.46 4890.13 2347.29 4890.85 2345.39C4891.49 2343.4 4891.85 2341.68 4891.67 2341.5C4891.49 2341.23 4889.13 2341.77 4886.51 2342.49C4879.45 2344.67 4877.64 2344.4 4874.47 2340.78C4871.48 2337.43 4870.12 2336.97 4868.68 2338.69ZM4829.66 2444.23C4831.2 2448.31 4831.02 2462.16 4829.21 2476.82C4828.31 2484.42 4827.76 2490.85 4828.04 2491.12C4828.22 2491.39 4830.66 2490.31 4833.29 2488.68C4836 2487.14 4839.89 2485.06 4841.97 2484.15C4845.14 2482.79 4846.23 2481.62 4848.58 2477C4852.47 2469.31 4857.63 2464.06 4864.6 2460.62C4868.59 2458.72 4871.03 2456.82 4872.03 2455.01C4872.84 2453.56 4874.38 2451.02 4875.37 2449.39L4877.28 2446.5L4870.85 2446.95C4867.32 2447.13 4861.62 2447.86 4858.09 2448.49L4851.84 2449.67L4844.96 2446.5C4837.99 2443.24 4830.48 2440.79 4829.39 2441.43C4829.03 2441.61 4829.12 2442.88 4829.66 2444.23ZM4995.22 2460.62C4995.22 2463.51 5031.6 2482.43 5037.31 2482.43C5037.85 2482.43 5039.66 2481.26 5041.38 2479.81L5044.55 2477.27L5038.21 2473.2C5025.9 2465.23 5024.91 2464.87 5012.23 2464.33C5002.28 2463.97 5000.47 2463.6 4998.2 2461.88C4995.22 2459.53 4995.22 2459.53 4995.22 2460.62ZM4711.99 2469.13C4710.37 2472.02 4709.1 2474.47 4709.28 2474.65C4712.54 2476.82 4719.33 2480.8 4719.6 2480.53C4719.78 2480.35 4719.51 2478.36 4719.15 2476.1C4718.69 2473.83 4718.33 2470.12 4718.24 2467.77C4718.24 2465.51 4717.97 2462.88 4717.7 2462.07C4716.97 2460.35 4716.7 2460.71 4711.99 2469.13ZM5003.73 2476.91C5005.08 2479.08 5023.37 2490.31 5030.52 2493.38C5040.11 2497.55 5044.91 2497.91 5051.97 2494.92C5057.49 2492.66 5058.22 2491.48 5055.77 2488.5L5054.05 2486.23L5049.53 2487.95C5046.99 2488.86 5043.28 2489.67 5041.2 2489.67C5035.04 2489.67 5023.73 2486.14 5013.95 2481.07C5004.36 2476.19 5002.91 2475.55 5003.73 2476.91ZM5052.69 2502.35C5047.26 2504.7 5041.83 2504.61 5035.5 2502.25C5032.69 2501.17 5030.16 2500.54 5029.98 2500.81C5029.25 2501.53 5037.76 2505.97 5041.83 2506.96C5045.18 2507.78 5046.18 2507.69 5050.07 2505.6C5052.51 2504.34 5056.68 2502.89 5059.21 2502.35C5061.84 2501.71 5064.01 2500.9 5064.01 2500.35C5064.01 2499 5057.94 2500.08 5052.69 2502.35ZM4646.73 2617.93C4646.1 2619.83 4644.38 2623.91 4642.93 2627.08C4641.39 2630.42 4640.49 2633.41 4640.85 2634.32C4641.21 2635.13 4642.84 2640.56 4644.47 2646.36C4646.19 2652.15 4649.81 2662.47 4652.53 2669.26C4655.33 2676.14 4658.14 2684.46 4658.77 2687.72C4659.68 2692.25 4660.4 2693.88 4661.67 2694.15C4663.12 2694.42 4663.21 2693.97 4662.75 2689.62C4662.12 2684.73 4658.23 2667.9 4657.32 2666.45C4656.33 2664.91 4651.26 2634.68 4650.81 2627.71C4649.81 2613.86 4648.81 2611.42 4646.73 2617.93ZM4600.48 2708.99L4597.67 2716.32L4599.85 2718.04C4600.93 2719.04 4604.64 2721.12 4607.9 2722.84C4611.25 2724.47 4617.86 2728.09 4622.66 2730.9C4627.45 2733.61 4631.71 2735.88 4632.16 2735.88C4632.61 2735.88 4633.88 2734.79 4634.88 2733.52C4638.41 2729.09 4637.59 2727.55 4627.09 2718.95C4621.75 2714.6 4614.87 2708.63 4611.7 2705.82C4608.17 2702.57 4605.55 2700.76 4604.73 2701.12C4604.01 2701.39 4602.11 2704.92 4600.48 2708.99ZM4647.82 2743.3C4646.28 2744.84 4646.46 2748.09 4648.18 2749.54C4649 2750.18 4651.26 2753.16 4653.25 2756.06C4659.04 2764.57 4661.67 2760.77 4656.69 2750.99C4652.25 2742.48 4650.35 2740.76 4647.82 2743.3ZM4633.61 2790.73C4629.08 2792.9 4622.38 2795.34 4618.58 2796.25C4612.43 2797.61 4611.43 2798.15 4609.53 2801.05C4607.27 2804.4 4581.83 2838.34 4576.22 2845.4C4574.5 2847.66 4571.33 2851.74 4569.16 2854.45C4566.99 2857.17 4564.91 2859.88 4564.45 2860.52C4559.75 2866.13 4545.36 2886.49 4545.36 2887.4C4545.36 2887.58 4543.55 2890.48 4541.28 2893.73C4537.03 2900.07 4536.48 2901.52 4538.3 2901.52C4539.83 2901.52 4547.53 2896.9 4548.34 2895.45C4548.7 2894.82 4549.43 2894.28 4549.97 2894.28C4551.78 2894.28 4565.45 2882.69 4580.48 2868.21L4596.23 2853.18L4600.3 2854.27C4603.83 2855.27 4604.55 2855.17 4606.72 2853.64C4610.71 2850.83 4627.72 2832.91 4634.24 2824.67C4641.03 2816.16 4643.11 2812.36 4643.11 2808.74C4643.11 2805.75 4653.43 2781.86 4656.42 2777.78C4658.23 2775.25 4657.32 2775.7 4650.17 2780.77C4645.56 2784.12 4638.04 2788.56 4633.61 2790.73ZM4677.06 2793.44C4674.88 2794.89 4670.63 2800.78 4671.26 2801.5C4671.44 2801.59 4674.16 2800.68 4677.24 2799.42C4681.76 2797.61 4682.94 2796.7 4682.94 2795.16C4682.94 2791.63 4680.77 2791 4677.06 2793.44ZM4573.6 2812.09C4570.43 2825.21 4570.25 2826.39 4571.6 2826.39C4572.6 2826.39 4589.44 2803.94 4589.62 2802.4C4589.71 2801.86 4587.35 2801.23 4584.55 2800.96C4581.65 2800.68 4578.67 2800.41 4577.94 2800.32C4576.85 2800.14 4575.86 2802.95 4573.6 2812.09Z" fill="#000000" fill-rule="nonzero" opacity="1" stroke="none" vectornator:layerName="path 1"/>
<path d="M4348.02 2212.18C4349.12 2212.38 4351.82 2213.88 4353.92 2215.48C4356.12 2217.08 4358.92 2218.38 4360.22 2218.38C4367.12 2218.38 4383.92 2227.88 4393.12 2236.98C4399.52 2243.48 4403.52 2248.48 4403.52 2250.08C4403.52 2250.78 4405.32 2254.98 4407.52 2259.38C4409.72 2263.78 4411.52 2267.88 4411.52 2268.48C4411.52 2269.18 4412.12 2270.48 4412.82 2271.28C4416.12 2275.18 4419.52 2295.48 4419.52 2310.88C4419.52 2321.18 4417.32 2338.38 4414.02 2353.38C4413.72 2354.78 4412.82 2359.38 4412.02 2363.68C4408.02 2384.58 4403.72 2394.18 4394.32 2403.48L4388.12 2409.48L4387.42 2421.18C4387.02 2427.58 4386.22 2434.28 4385.72 2435.98C4384.22 2440.88 4383.12 2451.68 4384.22 2451.28C4384.82 2451.08 4388.32 2448.08 4392.02 2444.58C4398.42 2438.68 4398.72 2438.28 4397.22 2436.58C4394.82 2433.98 4395.12 2431.08 4398.02 2428.38C4400.22 2426.28 4400.92 2426.08 4402.62 2427.18C4405.62 2429.08 4407.72 2427.08 4407.02 2422.98C4406.32 2419.48 4407.42 2416.48 4411.02 2411.48C4412.42 2409.58 4414.42 2405.28 4415.42 2401.98C4418.92 2390.88 4425.32 2378.68 4428.92 2376.18C4432.32 2373.88 4433.82 2378.08 4431.32 2382.68C4430.72 2383.88 4430.02 2387.88 4430.02 2391.58C4429.82 2396.18 4429.12 2399.48 4427.62 2402.48C4423.72 2409.88 4426.92 2411.68 4433.52 2405.78C4435.72 2403.78 4437.52 2401.18 4437.52 2399.98C4437.62 2395.58 4441.32 2390.18 4449.02 2383.28C4453.42 2379.38 4459.02 2375.08 4461.52 2373.78C4464.02 2372.58 4467.62 2369.78 4469.52 2367.78C4471.42 2365.78 4475.82 2362.78 4479.22 2361.28C4482.62 2359.68 4486.62 2357.28 4488.22 2355.78C4492.32 2351.98 4501.12 2347.78 4508.02 2346.48C4511.32 2345.78 4515.62 2344.78 4517.62 2344.28C4523.62 2342.78 4530.72 2343.28 4535.52 2345.48C4538.02 2346.68 4543.42 2347.98 4547.52 2348.48C4557.82 2349.58 4570.92 2351.88 4572.52 2352.88C4574.22 2353.98 4571.12 2356.38 4567.92 2356.38C4565.42 2356.38 4552.62 2360.98 4550.62 2362.68C4549.92 2363.28 4548.32 2366.08 4547.02 2368.88C4544.12 2375.48 4542.22 2376.98 4534.72 2378.78C4528.12 2380.28 4527.92 2380.38 4520.02 2386.98C4513.42 2392.38 4508.42 2394.78 4500.52 2396.28C4496.92 2396.98 4492.12 2397.98 4489.82 2398.48C4487.52 2398.98 4483.92 2399.38 4481.82 2399.38C4479.72 2399.38 4475.32 2400.08 4472.02 2400.88C4468.72 2401.68 4462.42 2402.58 4458.02 2402.98C4447.82 2403.88 4443.02 2406.18 4433.22 2415.38C4425.52 2422.58 4424.22 2424.38 4427.02 2424.38C4429.12 2424.38 4429.92 2428.88 4428.52 2432.28C4427.72 2434.28 4425.52 2436.18 4421.92 2438.08C4418.92 2439.58 4416.52 2441.48 4416.52 2442.08C4416.52 2443.68 4417.02 2443.68 4421.62 2442.38C4424.02 2441.68 4426.62 2439.78 4429.02 2436.78C4433.32 2431.48 4445.42 2422.28 4450.52 2420.38C4452.42 2419.68 4454.42 2418.78 4455.02 2418.38C4455.52 2417.98 4457.32 2417.38 4458.92 2416.98C4460.52 2416.58 4463.72 2414.98 4466.12 2413.28C4473.02 2408.58 4496.22 2398.58 4504.02 2396.98C4513.42 2395.08 4524.72 2394.58 4534.02 2395.58C4539.52 2396.18 4544.42 2397.08 4544.92 2397.48C4545.52 2397.98 4548.22 2398.38 4550.92 2398.38C4554.32 2398.38 4557.12 2399.08 4559.42 2400.48C4561.22 2401.58 4564.62 2403.18 4566.92 2404.08C4569.12 2405.08 4571.52 2406.28 4572.12 2406.78C4572.82 2407.38 4575.72 2409.88 4578.62 2412.38C4581.52 2414.88 4585.82 2419.48 4588.12 2422.68C4590.52 2425.88 4595.02 2430.38 4598.22 2432.78C4612.02 2443.08 4614.62 2450.18 4608.52 2461.18C4606.72 2464.58 4604.82 2470.38 4603.52 2477.18C4600.32 2493.48 4595.52 2505.08 4589.02 2512.28C4584.92 2516.78 4584.82 2517.68 4587.52 2523.78C4589.52 2528.58 4592.52 2544.68 4592.52 2550.88C4592.52 2554.28 4592.42 2554.38 4589.72 2553.78C4588.22 2553.38 4585.32 2551.78 4583.22 2550.18C4581.22 2548.68 4577.82 2546.08 4575.72 2544.48C4571.52 2541.28 4564.12 2539.38 4556.12 2539.38C4552.32 2539.38 4549.22 2540.18 4544.92 2542.28C4541.72 2543.88 4534.72 2546.18 4529.52 2547.38C4524.32 2548.58 4518.72 2549.98 4517.22 2550.58C4513.62 2551.98 4493.92 2551.88 4486.02 2550.48C4482.02 2549.88 4475.82 2549.78 4467.52 2550.38C4460.62 2550.88 4447.42 2551.28 4438.22 2551.28C4422.22 2551.28 4420.62 2551.08 4408.22 2547.78C4385.42 2541.78 4380.02 2540.88 4376.82 2542.48C4366.22 2547.78 4363.82 2549.58 4364.22 2551.68C4364.52 2553.18 4363.72 2554.78 4361.72 2556.68L4358.72 2559.58L4360.62 2563.68C4363.52 2570.18 4363.32 2570.78 4357.62 2569.98C4352.92 2569.38 4352.62 2569.48 4349.72 2572.88C4346.62 2576.68 4345.52 2576.48 4344.02 2571.38C4342.52 2566.18 4341.62 2566.08 4336.32 2570.68C4333.52 2572.98 4330.32 2575.68 4329.12 2576.68C4327.02 2578.48 4327.02 2578.58 4331.52 2577.88C4334.02 2577.58 4336.42 2576.88 4336.92 2576.28C4339.22 2574.08 4346.42 2576.18 4349.52 2579.88C4350.72 2581.38 4350.72 2581.78 4349.12 2582.98C4345.92 2585.28 4338.72 2585.88 4336.62 2583.98C4334.82 2582.28 4323.12 2581.68 4320.92 2583.18C4318.82 2584.58 4310.52 2596.58 4308.42 2601.28C4306.02 2606.48 4302.52 2616.28 4302.52 2617.58C4302.52 2618.08 4303.42 2617.98 4304.42 2617.38C4307.22 2615.98 4312.12 2616.18 4313.42 2617.78C4314.12 2618.58 4314.82 2620.78 4315.22 2622.58C4315.82 2626.28 4315.62 2626.48 4305.02 2634.28C4299.42 2638.38 4296.52 2643.08 4299.02 2643.98C4299.92 2644.38 4301.52 2643.78 4302.82 2642.58C4306.32 2639.48 4311.12 2637.38 4315.02 2637.38C4318.82 2637.38 4319.32 2637.98 4317.12 2639.78C4315.72 2640.98 4314.02 2646.38 4315.12 2646.38C4315.52 2646.38 4317.22 2645.48 4318.92 2644.48C4320.62 2643.38 4325.12 2641.38 4329.02 2639.88C4332.82 2638.38 4338.02 2636.18 4340.52 2634.98C4347.42 2631.68 4361.12 2631.98 4368.52 2635.48C4371.52 2636.98 4374.42 2638.28 4375.02 2638.48C4377.82 2639.68 4383.52 2643.68 4383.52 2644.58C4383.52 2645.28 4380.62 2645.48 4374.92 2645.08C4367.02 2644.48 4365.82 2644.68 4361.42 2646.88C4358.12 2648.58 4354.92 2649.38 4351.32 2649.38C4348.42 2649.38 4343.82 2650.08 4341.12 2650.88C4338.32 2651.78 4332.32 2652.38 4327.12 2652.38C4322.02 2652.38 4315.32 2653.08 4312.22 2653.88C4309.02 2654.68 4305.12 2655.38 4303.52 2655.38C4301.92 2655.38 4300.32 2655.78 4300.02 2656.38C4299.72 2656.88 4300.32 2657.38 4301.52 2657.38C4306.52 2657.38 4325.62 2667.88 4333.72 2675.08C4336.92 2677.88 4337.82 2678.18 4340.02 2677.38C4345.12 2675.48 4362.52 2677.18 4374.22 2680.68C4379.62 2682.38 4392.72 2688.08 4393.52 2689.18C4394.82 2691.08 4400.62 2692.58 4407.02 2692.88C4414.42 2693.18 4425.42 2695.68 4439.52 2700.38C4444.22 2701.88 4450.52 2703.48 4453.52 2703.88C4456.52 2704.18 4460.32 2704.68 4462.02 2704.88C4465.72 2705.28 4473.32 2707.98 4484.02 2712.58C4488.42 2714.48 4493.32 2716.38 4495.02 2716.78C4500.22 2718.08 4507.42 2723.38 4512.12 2729.48C4516.12 2734.78 4524.52 2750.08 4524.52 2752.18C4524.52 2754.78 4528.42 2756.38 4534.62 2756.38C4538.12 2756.38 4545.72 2757.08 4551.52 2757.78C4557.32 2758.58 4562.32 2758.98 4562.62 2758.78C4563.72 2758.08 4572.82 2762.48 4577.02 2765.68C4579.22 2767.38 4583.62 2771.18 4586.72 2774.08C4589.82 2776.98 4593.12 2779.38 4593.92 2779.38C4596.72 2779.38 4607.52 2791.18 4610.12 2796.98C4612.02 2801.38 4613.32 2802.68 4617.22 2804.78C4619.92 2806.08 4623.12 2808.38 4624.52 2809.88C4625.92 2811.38 4627.92 2812.98 4629.12 2813.38C4630.22 2813.88 4633.52 2815.88 4636.32 2817.98C4642.62 2822.68 4642.22 2824.08 4632.72 2828.38C4621.82 2833.48 4621.42 2833.68 4619.42 2836.38C4612.02 2846.18 4608.62 2849.98 4606.72 2850.88C4605.52 2851.38 4604.52 2852.58 4604.52 2853.58C4604.52 2855.78 4597.22 2862.58 4589.92 2867.18C4583.82 2870.98 4577.22 2872.88 4564.12 2874.48C4557.52 2875.28 4555.62 2875.98 4552.12 2878.78C4537.72 2890.38 4530.42 2893.08 4510.02 2894.48C4495.42 2895.48 4494.62 2895.48 4485.52 2893.08C4480.32 2891.68 4471.52 2889.18 4466.02 2887.38C4449.82 2882.18 4442.72 2880.48 4430.52 2878.88C4415.52 2876.98 4399.52 2871.48 4392.02 2865.78C4380.42 2856.98 4357.32 2855.48 4325.12 2861.58C4321.22 2862.38 4316.42 2864.38 4310.62 2867.88C4305.92 2870.68 4300.22 2873.88 4298.12 2874.98C4292.52 2877.68 4292.62 2878.98 4298.42 2879.78C4303.42 2880.48 4304.62 2881.18 4320.22 2892.38C4324.42 2895.38 4325.92 2895.88 4332.02 2896.18C4342.52 2896.68 4360.12 2894.78 4368.02 2892.28C4378.82 2888.88 4394.12 2888.58 4405.32 2891.48C4421.22 2895.58 4429.22 2899.98 4432.52 2906.38C4433.72 2908.78 4436.92 2911.98 4441.02 2914.88C4453.42 2923.78 4459.32 2932.68 4461.02 2944.88C4462.02 2952.58 4463.42 2957.38 4466.12 2963.58C4468.72 2969.58 4468.82 2970.78 4468.12 2991.08C4467.72 3003.88 4466.22 3008.08 4462.22 3006.78C4461.02 3006.38 4457.32 3005.48 4454.02 3004.78C4448.42 3003.68 4447.32 3003.78 4436.02 3006.58C4417.92 3011.18 4405.72 3010.68 4391.52 3004.78C4384.92 3002.08 4356.92 2982.78 4351.02 2976.88C4348.32 2974.08 4344.62 2968.88 4342.82 2965.38C4339.22 2957.98 4330.32 2932.68 4328.42 2924.38C4326.82 2917.08 4322.02 2905.88 4318.32 2900.68C4310.42 2889.78 4295.82 2882.98 4287.22 2886.28C4283.92 2887.58 4284.52 2889.38 4288.32 2889.38C4291.92 2889.48 4294.22 2891.28 4296.02 2895.68C4298.32 2901.28 4297.92 2903.38 4293.52 2907.48C4291.32 2909.58 4289.52 2912.18 4289.52 2913.18C4289.52 2914.28 4288.92 2915.68 4288.12 2916.28C4286.32 2917.78 4285.02 2917.18 4275.02 2910.28C4265.12 2903.48 4262.82 2903.18 4256.82 2907.98C4254.22 2910.08 4251.82 2911.98 4251.62 2912.08C4251.32 2912.28 4252.52 2913.88 4254.22 2915.68C4258.62 2920.28 4260.52 2924.58 4260.52 2930.18C4260.52 2935.68 4261.72 2937.38 4265.62 2937.38C4268.62 2937.38 4273.32 2939.18 4282.02 2943.58C4294.62 2950.08 4302.42 2958.08 4310.12 2972.58C4312.82 2977.58 4316.62 2983.68 4318.62 2986.18C4324.22 2992.88 4327.32 2999.28 4329.52 3008.58C4331.62 3016.78 4334.12 3024.18 4337.62 3031.88C4342.02 3041.78 4344.82 3063.98 4343.12 3076.88C4341.72 3088.08 4335.92 3102.68 4330.42 3109.08C4328.92 3110.78 4326.22 3114.98 4324.42 3118.38C4320.92 3124.98 4315.12 3130.68 4308.92 3133.78C4306.72 3134.88 4303.42 3137.48 4301.52 3139.68L4297.92 3143.58L4292.42 3138.28C4289.32 3135.28 4282.42 3130.18 4276.92 3126.98C4263.22 3118.68 4256.32 3113.28 4252.62 3107.78C4250.92 3105.18 4249.52 3102.68 4249.52 3102.18C4249.52 3101.78 4247.62 3101.38 4245.22 3101.38C4238.42 3101.38 4225.72 3094.38 4218.12 3086.28C4210.82 3078.58 4201.92 3065.48 4200.52 3060.38C4199.92 3058.48 4198.32 3052.78 4196.92 3047.88C4194.92 3040.98 4194.22 3035.68 4193.82 3025.18C4193.22 3011.78 4193.32 3011.28 4196.42 3002.18C4198.12 2997.08 4200.22 2990.28 4201.12 2987.18C4201.92 2983.98 4204.22 2979.28 4206.12 2976.68C4208.02 2973.98 4210.22 2970.88 4211.12 2969.68C4213.32 2966.58 4212.12 2963.78 4207.12 2960.88C4201.82 2957.78 4193.72 2957.38 4191.22 2960.08C4190.42 2961.08 4188.12 2965.38 4186.12 2969.68L4182.62 2977.38L4185.02 2980.98C4192.82 2992.48 4194.12 3007.98 4188.72 3024.68C4185.02 3035.88 4184.32 3037.18 4175.52 3047.88C4164.62 3061.28 4158.82 3066.88 4153.82 3069.08C4137.42 3076.18 4135.32 3076.68 4122.82 3077.28L4110.62 3077.88L4102.72 3089.88C4098.32 3096.48 4089.72 3108.38 4083.62 3116.38C4077.42 3124.38 4066.92 3138.18 4060.22 3147.08C4047.42 3164.18 4042.82 3170.28 4038.22 3176.08C4036.72 3178.08 4035.52 3180.88 4035.52 3182.38C4035.52 3184.38 4033.52 3187.18 4027.22 3193.48C4022.72 3198.08 4017.22 3204.78 4015.12 3208.38C4012.92 3211.98 4010.22 3215.98 4009.02 3217.38C4004.82 3222.08 3994.52 3241.28 3993.02 3247.08C3992.22 3250.28 3990.82 3253.28 3989.92 3253.88C3985.82 3256.38 3982.12 3260.08 3979.12 3264.78C3975.02 3271.18 3969.22 3277.38 3967.32 3277.38C3966.52 3277.38 3965.22 3276.28 3964.52 3274.88C3963.52 3273.08 3962.82 3272.68 3961.62 3273.38C3960.62 3273.88 3959.32 3273.88 3958.42 3273.38C3957.72 3272.88 3956.22 3272.68 3955.22 3272.98C3953.62 3273.48 3953.72 3272.98 3955.92 3269.68C3960.72 3262.28 3979.02 3232.98 3979.52 3231.88C3979.82 3231.28 3981.22 3229.28 3982.72 3227.38C3984.12 3225.48 3989.52 3217.08 3994.52 3208.88C4006.22 3189.78 4018.22 3173.08 4023.02 3168.88C4024.72 3167.48 4030.52 3157.88 4030.52 3156.58C4030.52 3155.98 4031.12 3155.08 4031.82 3154.68C4032.52 3154.28 4033.62 3152.48 4034.32 3150.88C4037.12 3144.48 4042.82 3137.38 4045.12 3137.38C4048.62 3137.38 4056.52 3127.88 4076.32 3099.48C4086.32 3085.18 4094.52 3073.28 4094.52 3072.98C4094.52 3072.68 4093.22 3072.38 4091.52 3072.38C4089.12 3072.38 4088.42 3071.88 4088.02 3069.68C4087.72 3068.08 4086.72 3064.58 4085.82 3061.88C4083.52 3054.78 4081.82 3043.88 4082.62 3041.68C4083.02 3040.68 4083.42 3038.78 4083.42 3037.58C4083.52 3036.28 4084.82 3032.28 4086.52 3028.68C4088.12 3025.18 4089.52 3021.98 4089.52 3021.68C4089.52 3021.38 4092.02 3017.38 4095.02 3012.88C4100.02 3005.28 4105.52 2999.48 4110.12 2996.78C4111.72 2995.78 4110.92 2995.58 4106.02 2995.58C4093.02 2995.48 4086.32 2989.88 4082.12 2975.28C4080.72 2970.18 4080.72 2969.28 4082.12 2966.28C4087.12 2954.98 4089.72 2952.38 4096.62 2951.48L4100.62 2950.88L4100.82 2943.28C4101.02 2933.68 4104.02 2928.68 4111.72 2924.78C4116.12 2922.58 4117.82 2922.18 4123.62 2922.58C4129.32 2922.88 4131.02 2923.38 4134.22 2925.98C4138.62 2929.48 4142.52 2936.48 4142.52 2940.88C4142.52 2942.58 4141.62 2945.68 4140.42 2947.78C4139.32 2949.88 4138.52 2951.68 4138.72 2951.78C4138.92 2951.98 4141.92 2952.88 4145.42 2953.78C4152.22 2955.68 4153.02 2955.38 4153.92 2950.88C4154.22 2949.78 4155.12 2945.68 4156.02 2941.68C4158.02 2932.68 4157.22 2930.58 4148.72 2921.28L4142.52 2914.58L4132.32 2913.98C4118.32 2913.18 4110.72 2913.28 4106.02 2914.48C4103.82 2915.08 4095.62 2918.48 4087.72 2922.08C4079.42 2925.78 4070.32 2929.18 4065.72 2930.08C4059.82 2931.38 4056.82 2932.58 4052.72 2935.68C4049.92 2937.88 4047.52 2939.98 4047.52 2940.48C4047.52 2940.98 4046.62 2941.38 4045.52 2941.38C4044.42 2941.38 4040.92 2942.68 4037.72 2944.28C4030.32 2947.98 4023.42 2950.28 4016.12 2951.48C4012.92 2951.98 4007.72 2953.38 4004.42 2954.48C3999.92 2956.08 3998.12 2956.28 3996.52 2955.38C3993.72 2953.88 3989.52 2946.98 3989.52 2943.88C3989.52 2936.58 3998.12 2928.08 4012.92 2920.88C4023.42 2915.68 4033.82 2913.38 4046.42 2913.38C4056.82 2913.28 4057.12 2913.28 4062.52 2909.78C4065.62 2907.78 4072.92 2904.78 4079.52 2902.78C4085.82 2900.88 4093.52 2898.38 4096.62 2897.28C4106.42 2893.98 4109.92 2894.78 4120.52 2902.88C4128.32 2908.78 4131.62 2910.18 4136.82 2909.48C4137.62 2909.38 4127.42 2896.28 4120.92 2889.08L4117.52 2885.38L4109.72 2887.28C4101.82 2889.18 4091.22 2890.88 4079.12 2891.98C4075.32 2892.28 4070.12 2893.18 4067.62 2893.98C4065.12 2894.78 4061.82 2895.38 4060.42 2895.38C4059.02 2895.38 4054.02 2896.28 4049.42 2897.48C4041.12 2899.58 4037.62 2899.58 4025.42 2897.78C4022.22 2897.38 4017.32 2897.88 4009.82 2899.38C4001.52 2901.08 3996.42 2901.48 3988.92 2901.18C3979.82 2900.78 3978.22 2900.48 3969.12 2896.28C3960.82 2892.58 3958.12 2890.78 3953.12 2885.58C3949.72 2882.08 3945.22 2878.38 3943.12 2877.18C3938.42 2874.78 3933.82 2869.98 3931.92 2865.68C3930.52 2862.48 3930.82 2855.58 3932.52 2850.38C3933.02 2848.98 3933.92 2845.68 3934.72 2842.88C3936.02 2838.08 3940.32 2832.58 3949.52 2823.78C3954.82 2818.88 3963.62 2814.58 3971.32 2813.48C3975.02 2812.88 3980.72 2811.88 3984.02 2811.28C3990.42 2810.08 4007.82 2810.78 4013.42 2812.38C4016.02 2813.08 4016.72 2812.98 4017.12 2811.58C4018.92 2806.18 4020.32 2803.48 4023.12 2800.38C4024.82 2798.48 4026.62 2795.88 4027.02 2794.58C4027.42 2793.28 4029.92 2790.88 4032.62 2789.28C4035.32 2787.58 4037.52 2785.48 4037.52 2784.68C4037.52 2783.88 4040.32 2780.58 4043.72 2777.28L4050.02 2771.48L4047.62 2764.38C4044.02 2753.98 4036.82 2741.88 4030.02 2734.88C4021.52 2726.08 4005.12 2717.38 3997.12 2717.38C3993.52 2717.38 3983.62 2723.68 3977.92 2729.58C3975.62 2731.98 3971.42 2737.28 3968.62 2741.48C3965.82 2745.68 3962.22 2750.38 3960.52 2751.78C3957.32 2754.38 3950.22 2756.88 3948.52 2755.88C3946.92 2754.88 3940.62 2758.18 3935.02 2762.88C3929.72 2767.38 3929.52 2767.48 3919.92 2768.48C3914.12 2769.08 3908.02 2770.38 3904.62 2771.78C3890.82 2777.48 3889.42 2777.78 3866.52 2777.78L3845.02 2777.78L3836.12 2774.48C3831.32 2772.68 3825.32 2769.88 3823.02 2768.28C3815.22 2762.98 3808.52 2760.58 3799.92 2759.78C3788.32 2758.88 3788.32 2758.88 3792.82 2749.98C3796.22 2743.48 3796.62 2742.08 3796.02 2738.08C3795.22 2732.98 3797.12 2722.98 3799.22 2721.28C3799.92 2720.68 3800.52 2719.68 3800.52 2718.98C3800.52 2718.38 3802.12 2714.58 3804.12 2710.48C3807.12 2704.68 3808.72 2702.58 3812.32 2700.28C3814.82 2698.68 3817.32 2697.38 3817.82 2697.38C3818.42 2697.38 3821.22 2694.98 3824.12 2691.98C3829.02 2687.08 3836.22 2682.78 3842.72 2680.88C3845.22 2680.18 3855.92 2675.98 3861.32 2673.68C3864.92 2672.08 3873.82 2669.28 3877.02 2668.78C3878.12 2668.58 3881.22 2667.98 3884.02 2667.38C3886.72 2666.88 3894.72 2666.78 3901.72 2667.08C3911.02 2667.48 3915.22 2667.28 3917.52 2666.38C3919.82 2665.38 3920.92 2665.38 3921.82 2666.28C3922.42 2666.88 3924.32 2667.38 3926.12 2667.38C3931.02 2667.38 3937.12 2669.88 3944.22 2674.98C3947.82 2677.48 3953.32 2680.48 3956.42 2681.58C3967.72 2685.78 3980.02 2695.78 3987.32 2706.68C3989.82 2710.48 3990.72 2710.88 3998.62 2711.78C4001.12 2712.08 4006.82 2713.48 4011.42 2714.88C4016.02 2716.38 4019.82 2717.38 4020.02 2717.18C4021.62 2715.58 4009.32 2693.18 4005.12 2690.08C3993.52 2681.28 3986.32 2667.68 3977.12 2636.48C3974.62 2627.98 3972.22 2620.78 3971.82 2620.38C3971.32 2620.08 3968.32 2618.98 3965.02 2617.88C3957.92 2615.68 3953.52 2612.48 3944.22 2602.68C3940.42 2598.68 3936.72 2595.38 3935.92 2595.38C3935.22 2595.38 3934.02 2594.78 3933.32 2594.08C3932.62 2593.48 3929.72 2591.28 3927.02 2589.48C3924.22 2587.58 3921.72 2585.58 3921.32 2585.08C3921.02 2584.48 3918.12 2581.38 3914.82 2577.98C3905.92 2568.68 3902.02 2560.48 3899.52 2545.88C3898.22 2538.08 3893.92 2531.48 3882.02 2519.08C3871.72 2508.38 3870.82 2507.18 3868.62 2500.28C3867.32 2496.18 3864.42 2489.08 3862.32 2484.38C3853.82 2466.18 3852.22 2448.68 3856.72 2425.38C3858.52 2416.18 3865.92 2403.18 3873.82 2395.28C3875.72 2393.48 3877.02 2390.18 3878.62 2383.78C3881.12 2373.38 3885.52 2360.38 3886.52 2360.38C3886.92 2360.38 3887.72 2359.28 3888.32 2357.88C3889.92 2354.28 3895.32 2351.38 3900.22 2351.38C3903.52 2351.38 3905.82 2352.38 3911.12 2355.88C3914.82 2358.38 3918.52 2361.28 3919.22 2362.38C3920.02 2363.48 3925.12 2367.18 3930.62 2370.58C3936.22 2374.08 3941.72 2377.58 3943.02 2378.38C3944.32 2379.18 3947.52 2381.18 3950.22 2382.78C3952.82 2384.38 3957.52 2387.78 3960.52 2390.38C3969.52 2398.08 3974.22 2401.08 3979.12 2402.28C3986.62 2404.18 3990.22 2408.78 4001.82 2430.38C4014.52 2454.28 4013.92 2453.08 4015.72 2457.38C4020.42 2468.18 4021.02 2471.68 4020.92 2485.88C4020.92 2493.58 4020.42 2501.88 4019.72 2504.38C4016.92 2514.68 4016.52 2520.78 4017.62 2534.08C4018.72 2546.58 4018.22 2555.88 4015.92 2564.28C4015.42 2565.78 4015.62 2566.48 4016.22 2566.08C4016.82 2565.68 4017.52 2563.98 4017.92 2562.28C4018.22 2560.58 4021.02 2553.98 4024.02 2547.68C4032.52 2530.08 4040.02 2521.08 4050.82 2515.48C4054.02 2513.88 4059.02 2510.38 4061.82 2507.68C4067.82 2502.18 4074.12 2497.38 4075.42 2497.38C4075.92 2497.38 4080.22 2495.58 4084.92 2493.38C4089.62 2491.18 4094.22 2489.38 4095.02 2489.38C4095.82 2489.38 4098.32 2488.18 4100.52 2486.78C4105.12 2483.68 4107.52 2484.18 4109.82 2488.68L4111.52 2491.88L4111.02 2488.78C4109.12 2478.58 4111.12 2456.08 4114.42 2449.58C4114.92 2448.68 4116.52 2445.18 4118.02 2441.88C4119.52 2438.58 4121.12 2434.98 4121.72 2433.78C4122.82 2431.38 4145.42 2408.98 4150.62 2405.18C4155.12 2401.88 4161.52 2399.18 4163.22 2399.78C4163.92 2400.08 4167.12 2399.18 4170.32 2397.78C4177.72 2394.38 4185.12 2394.28 4192.12 2397.28C4197.12 2399.48 4197.42 2399.48 4202.62 2397.88C4206.82 2396.68 4208.62 2395.48 4211.02 2392.38C4212.62 2390.18 4216.32 2386.98 4219.32 2385.28C4222.22 2383.68 4226.62 2380.18 4229.12 2377.68C4231.52 2375.08 4233.52 2373.38 4233.52 2373.78C4233.52 2374.28 4234.22 2374.08 4235.02 2373.38C4236.22 2372.38 4237.32 2372.68 4241.22 2375.18C4243.92 2376.88 4248.02 2378.98 4250.52 2379.98C4255.62 2381.98 4256.72 2382.88 4264.52 2390.38C4267.62 2393.38 4272.72 2398.28 4275.82 2401.28C4282.62 2407.68 4288.32 2416.58 4293.82 2429.38C4294.62 2431.28 4295.82 2436.18 4296.42 2440.18C4297.02 2444.28 4298.22 2448.78 4298.92 2450.18C4304.82 2461.88 4310.62 2490.78 4309.02 2500.28C4308.32 2504.38 4309.82 2507.98 4314.92 2515.08L4317.32 2518.38L4317.92 2515.88C4319.42 2509.78 4326.02 2514.98 4327.12 2523.18C4328.22 2531.88 4329.72 2530.48 4329.22 2521.28C4328.52 2509.78 4328.62 2510.38 4324.32 2505.48C4320.92 2501.58 4320.52 2500.48 4320.52 2495.78C4320.52 2492.88 4320.82 2489.88 4321.12 2488.98C4322.32 2485.88 4326.52 2487.18 4331.22 2491.98C4335.52 2496.28 4335.72 2496.68 4335.12 2500.68C4334.72 2502.98 4334.22 2508.68 4333.92 2513.38L4333.32 2521.88L4337.62 2515.88C4339.92 2512.58 4348.82 2499.58 4357.32 2487.08L4372.82 2464.18L4374.62 2454.08C4375.62 2448.48 4377.22 2439.18 4378.02 2433.38C4378.92 2427.58 4380.12 2420.58 4380.72 2417.68C4382.72 2408.28 4379.52 2403.18 4363.82 2391.18C4353.42 2383.18 4344.62 2370.18 4340.22 2356.38C4338.82 2351.68 4336.22 2345.58 4334.52 2342.88C4332.72 2340.08 4324.52 2331.08 4316.12 2322.88C4301.52 2308.48 4300.72 2307.48 4296.02 2297.88C4292.22 2289.98 4291.02 2286.18 4290.12 2279.48C4289.12 2271.38 4289.02 2271.08 4285.12 2267.98C4275.52 2260.48 4272.02 2256.08 4269.62 2248.48C4267.82 2242.68 4267.42 2239.58 4267.72 2234.28C4268.02 2230.08 4267.72 2226.18 4266.92 2223.78C4263.72 2214.58 4266.12 2212.98 4283.92 2212.58C4313.52 2211.98 4346.12 2211.78 4348.02 2212.18ZM4410.62 2438.28C4405.82 2443.98 4405.52 2444.98 4409.32 2442.98C4412.72 2441.28 4415.12 2438.58 4415.82 2435.58C4416.62 2432.18 4415.12 2432.98 4410.62 2438.28ZM4397.02 2458.38C4392.02 2461.48 4382.12 2472.48 4370.52 2487.78C4364.72 2495.38 4359.02 2503.08 4357.82 2504.88L4355.62 2508.18L4359.52 2507.68C4365.32 2506.88 4368.52 2509.28 4368.52 2514.38C4368.52 2516.48 4368.12 2519.38 4367.62 2520.68C4366.62 2523.18 4362.12 2525.38 4357.92 2525.38C4356.52 2525.38 4354.02 2526.98 4351.82 2529.18C4348.82 2532.18 4343.22 2536.78 4339.62 2539.08C4339.42 2539.18 4340.22 2540.48 4341.42 2541.98C4342.52 2543.48 4343.52 2545.68 4343.52 2546.88C4343.52 2550.18 4346.02 2551.88 4348.82 2550.68C4352.92 2548.78 4372.22 2534.48 4373.72 2532.18C4374.52 2530.88 4375.52 2526.98 4375.92 2523.48C4376.82 2515.68 4379.42 2508.48 4383.12 2503.68C4384.62 2501.68 4389.82 2492.08 4394.62 2482.48C4399.52 2472.78 4405.22 2462.18 4407.42 2458.88C4409.62 2455.58 4411.52 2452.58 4411.52 2452.18C4411.52 2451.28 4401.62 2455.58 4397.02 2458.38ZM4142.02 2501.88C4139.22 2501.88 4134.62 2501.48 4131.72 2501.08C4126.72 2500.38 4126.42 2500.38 4127.42 2502.18C4128.62 2504.38 4127.12 2506.38 4124.52 2506.38C4123.62 2506.38 4122.62 2506.68 4122.32 2506.98C4121.92 2507.28 4123.92 2511.38 4126.62 2516.08C4129.32 2520.68 4131.52 2524.68 4131.52 2524.88C4131.52 2524.98 4132.72 2527.78 4134.22 2530.98C4137.52 2537.98 4137.42 2537.48 4137.92 2553.88C4138.22 2560.98 4138.82 2569.28 4139.42 2572.28C4142.22 2585.98 4140.22 2597.38 4132.52 2612.38C4129.92 2617.58 4127.42 2623.18 4127.02 2624.78C4125.82 2630.18 4119.42 2642.78 4115.42 2647.48L4111.62 2652.18L4114.22 2652.88C4116.12 2653.28 4117.72 2652.88 4119.72 2651.38C4121.32 2650.18 4125.22 2648.78 4128.32 2648.18C4131.42 2647.58 4135.02 2646.68 4136.22 2646.08C4139.32 2644.68 4141.12 2645.78 4143.62 2650.58C4144.82 2652.88 4146.82 2655.68 4148.22 2656.68C4151.12 2658.98 4154.02 2664.48 4157.22 2673.88C4159.02 2679.28 4159.52 2682.68 4159.32 2688.68C4159.22 2692.98 4158.82 2696.68 4158.32 2696.98C4157.92 2697.28 4157.52 2698.68 4157.52 2700.18C4157.42 2707.28 4149.62 2716.78 4140.62 2720.58C4127.32 2726.18 4123.52 2728.68 4117.42 2735.78C4109.82 2744.48 4109.52 2744.68 4101.32 2747.38C4097.72 2748.48 4093.92 2750.38 4092.92 2751.48C4091.02 2753.58 4089.22 2764.28 4090.52 2765.68C4090.92 2766.08 4095.32 2767.38 4100.32 2768.38C4111.52 2770.78 4115.12 2772.18 4122.92 2777.68C4126.22 2780.08 4131.02 2783.08 4133.52 2784.28C4139.52 2787.28 4146.92 2794.58 4150.72 2801.18L4153.82 2806.48L4155.52 2801.38C4157.92 2794.18 4162.32 2789.98 4169.12 2788.38C4173.42 2787.38 4175.32 2787.28 4178.52 2788.28C4190.42 2791.78 4196.32 2806.88 4189.62 2816.28C4187.12 2819.78 4187.52 2820.98 4193.02 2827.88C4194.82 2830.08 4197.22 2833.88 4198.52 2836.38L4200.82 2840.88L4203.02 2834.88C4204.32 2831.58 4206.72 2823.48 4208.52 2816.88C4210.32 2810.28 4213.02 2800.38 4214.62 2794.98L4217.42 2784.98L4212.92 2781.08C4209.72 2778.28 4208.22 2775.98 4207.42 2772.88C4206.52 2769.38 4205.72 2768.28 4203.22 2767.48C4197.72 2765.48 4191.52 2766.68 4191.52 2769.78C4191.52 2772.18 4184.52 2779.18 4179.92 2781.38C4164.32 2788.98 4146.92 2770.28 4154.42 2753.88C4157.82 2746.48 4164.92 2741.38 4172.12 2741.38C4173.32 2741.38 4176.32 2742.28 4178.92 2743.48C4184.02 2745.68 4190.12 2752.78 4191.12 2757.68C4191.72 2759.98 4192.62 2760.68 4197.42 2761.98C4200.52 2762.78 4203.62 2763.68 4204.22 2763.88C4205.02 2764.18 4205.52 2763.38 4205.52 2762.08C4205.52 2760.58 4202.62 2756.98 4196.92 2751.38C4187.62 2742.18 4184.02 2736.28 4182.42 2727.78C4181.82 2724.78 4180.12 2720.18 4178.52 2717.58C4176.22 2713.98 4175.32 2710.98 4174.72 2704.88C4174.22 2700.38 4174.22 2695.88 4174.62 2694.58C4175.12 2693.28 4175.52 2690.88 4175.52 2689.28C4175.52 2687.68 4176.22 2684.78 4177.02 2682.78C4178.42 2679.38 4178.32 2679.18 4175.02 2673.98C4173.12 2670.98 4169.52 2666.88 4167.02 2664.78C4161.92 2660.68 4159.52 2656.78 4159.52 2652.98C4159.52 2647.28 4169.52 2640.58 4175.82 2641.98C4179.52 2642.78 4187.52 2649.98 4187.52 2652.48C4187.52 2653.48 4187.92 2654.48 4188.42 2654.78C4190.02 2655.78 4192.72 2667.78 4192.92 2675.38C4193.32 2685.18 4196.12 2690.98 4202.02 2693.78C4204.22 2694.78 4207.92 2697.08 4210.12 2698.98C4212.42 2700.78 4217.52 2703.48 4221.32 2704.98C4232.52 2709.08 4239.52 2716.28 4239.52 2723.58C4239.52 2728.38 4240.92 2726.08 4244.52 2715.38C4246.32 2710.18 4248.12 2704.98 4248.62 2703.88C4250.22 2700.48 4249.82 2696.18 4247.02 2687.88C4245.52 2683.48 4244.12 2679.28 4243.82 2678.48C4243.62 2677.48 4242.82 2677.98 4241.52 2680.08C4238.92 2684.38 4236.92 2685.28 4230.52 2685.08L4225.02 2684.88L4225.22 2680.98C4225.42 2678.28 4226.32 2676.08 4228.22 2674.18C4231.72 2670.48 4233.92 2669.88 4237.72 2671.78C4241.92 2673.98 4243.22 2673.78 4241.02 2671.38C4238.82 2668.98 4232.72 2668.68 4226.82 2670.78C4224.62 2671.58 4222.22 2671.78 4221.42 2671.38C4220.62 2670.98 4218.32 2670.38 4216.22 2669.98C4212.22 2669.28 4211.62 2668.38 4214.02 2666.38C4216.12 2664.68 4215.92 2662.38 4213.42 2659.68C4211.52 2657.78 4211.42 2657.18 4212.52 2655.88C4213.32 2654.88 4215.02 2654.38 4216.92 2654.58C4219.62 2654.88 4220.02 2654.58 4220.32 2652.18C4220.92 2646.98 4222.72 2647.18 4229.02 2653.28C4232.32 2656.38 4235.92 2660.48 4237.02 2662.38C4239.02 2665.88 4242.32 2667.28 4241.62 2664.38C4241.42 2663.58 4241.12 2659.48 4240.92 2655.38C4240.42 2644.78 4239.52 2638.28 4238.42 2636.18C4237.92 2635.18 4231.72 2628.68 4224.72 2621.58C4212.02 2608.88 4205.52 2600.38 4199.62 2588.58C4192.52 2574.48 4187.62 2558.68 4187.52 2549.88C4187.52 2546.58 4186.32 2539.58 4185.02 2534.48C4182.42 2524.48 4181.72 2511.78 4183.42 2505.68C4183.92 2503.98 4184.12 2502.38 4183.92 2502.08C4183.62 2501.88 4181.62 2502.08 4179.22 2502.58C4176.22 2503.28 4172.92 2503.18 4167.52 2502.08C4162.72 2501.18 4157.72 2500.88 4153.52 2501.28C4149.92 2501.58 4144.72 2501.88 4142.02 2501.88ZM4303.12 2523.88C4301.32 2531.68 4301.02 2537.98 4302.42 2538.88C4302.92 2539.18 4303.72 2538.48 4304.02 2537.38C4304.92 2534.68 4305.52 2534.98 4309.92 2540.18C4312.02 2542.78 4313.52 2545.68 4313.52 2547.18C4313.62 2549.58 4313.72 2549.68 4314.62 2548.08C4315.22 2547.08 4315.72 2543.08 4315.72 2539.08C4315.82 2533.38 4315.42 2530.98 4313.52 2527.38C4309.92 2520.38 4306.22 2515.18 4305.52 2516.08C4305.12 2516.48 4304.02 2519.98 4303.12 2523.88ZM4340.62 2529.78C4336.52 2535.58 4338.52 2535.88 4344.82 2530.38C4350.12 2525.68 4351.02 2523.78 4349.52 2519.78L4348.42 2516.98L4346.12 2521.08C4344.82 2523.38 4342.32 2527.28 4340.62 2529.78ZM4322.42 2529.58C4323.02 2531.38 4323.72 2534.18 4324.02 2535.68C4324.62 2538.58 4326.52 2538.48 4326.52 2535.58C4326.42 2533.28 4322.62 2524.98 4321.92 2525.68C4321.62 2525.98 4321.82 2527.68 4322.42 2529.58ZM4298.02 2554.58C4297.62 2556.38 4296.62 2558.98 4295.72 2560.38C4294.92 2561.68 4293.12 2567.08 4291.82 2572.38C4289.12 2583.38 4283.12 2594.28 4274.72 2603.38C4271.92 2606.58 4269.52 2609.58 4269.52 2610.18C4269.52 2611.18 4272.32 2612.38 4275.82 2612.78C4278.82 2613.18 4281.52 2616.68 4282.42 2621.38L4283.22 2625.88L4288.92 2614.08C4299.12 2592.68 4307.72 2570.88 4310.02 2560.58C4310.62 2557.48 4310.52 2557.28 4306.22 2555.48C4303.72 2554.38 4301.42 2553.08 4301.12 2552.48C4299.82 2550.48 4298.72 2551.28 4298.02 2554.58ZM4337.12 2557.08C4331.62 2564.08 4332.22 2565.28 4338.62 2560.18C4341.12 2558.18 4342.52 2556.18 4342.52 2554.68C4342.52 2551.28 4341.22 2551.88 4337.12 2557.08ZM4323.32 2561.68C4320.12 2568.08 4318.22 2573.38 4319.22 2573.38C4319.52 2573.38 4321.02 2572.48 4322.52 2571.38C4327.92 2567.58 4330.72 2560.68 4328.92 2555.98C4328.02 2553.58 4326.82 2554.88 4323.32 2561.68ZM4012.52 2571.98C4012.52 2572.68 4011.92 2573.68 4011.22 2574.08C4009.92 2574.88 4005.52 2584.68 4005.52 2586.88C4005.52 2587.58 4004.92 2588.68 4004.12 2589.28C4003.32 2589.88 4000.82 2594.38 3998.42 2599.18C3995.32 2605.58 3992.42 2609.58 3987.82 2614.08C3984.32 2617.48 3981.52 2621.18 3981.52 2622.18C3981.52 2625.48 3983.62 2635.78 3984.92 2638.88C3985.62 2640.48 3987.02 2644.58 3987.92 2647.88C3991.22 2659.28 3994.82 2667.18 3999.22 2672.88C4001.72 2675.98 4003.92 2678.38 4004.12 2678.08C4004.32 2677.88 4003.92 2676.18 4003.12 2674.28C4002.42 2672.38 4001.52 2666.08 4001.22 2660.08C4000.72 2650.28 4000.82 2649.38 4002.42 2649.38C4003.52 2649.38 4004.92 2650.88 4006.02 2653.38C4007.82 2657.38 4008.92 2658.18 4010.02 2656.38C4011.02 2654.78 4013.22 2655.18 4014.02 2657.08C4014.42 2658.08 4014.92 2661.78 4015.12 2665.38C4015.42 2668.98 4016.02 2673.48 4016.52 2675.38C4016.92 2677.28 4018.32 2682.68 4019.52 2687.38C4020.62 2691.98 4023.62 2700.08 4026.12 2705.38C4030.92 2715.58 4039.52 2730.38 4040.62 2730.38C4040.92 2730.38 4041.42 2722.18 4041.72 2712.08L4042.12 2693.88L4037.82 2688.08C4033.32 2681.88 4029.52 2671.88 4029.02 2664.58C4028.82 2661.98 4027.02 2656.98 4024.42 2652.08C4022.02 2647.58 4019.32 2642.28 4018.32 2640.38C4017.42 2638.48 4015.52 2632.18 4014.32 2626.38C4012.32 2617.28 4012.02 2613.38 4012.22 2596.68C4012.42 2579.18 4012.82 2575.28 4015.02 2568.88C4015.72 2566.88 4015.62 2566.88 4014.12 2568.78C4013.22 2569.88 4012.52 2571.28 4012.52 2571.98ZM4261.42 2620.98C4260.72 2622.38 4257.32 2626.08 4254.02 2629.18C4250.72 2632.18 4247.92 2635.68 4247.72 2636.78C4247.62 2637.98 4247.22 2640.78 4246.92 2643.18C4246.62 2645.48 4246.62 2648.18 4247.02 2649.18C4247.52 2650.58 4248.02 2650.28 4249.32 2647.38C4250.62 2644.78 4252.12 2643.48 4255.22 2642.38C4261.22 2640.38 4265.82 2642.58 4268.62 2648.98C4270.62 2653.38 4270.62 2653.58 4268.82 2657.18C4267.62 2659.78 4266.02 2661.18 4263.92 2661.78C4260.22 2662.88 4257.82 2666.48 4256.02 2673.48C4254.72 2678.18 4254.82 2678.58 4257.02 2681.18L4259.32 2683.88L4261.02 2679.88C4261.92 2677.68 4264.92 2670.48 4267.72 2663.88C4270.42 2657.28 4274.22 2648.38 4276.12 2644.08C4281.12 2632.58 4280.72 2630.28 4273.12 2628.88C4268.02 2627.88 4265.52 2625.28 4265.52 2620.88C4265.52 2616.88 4263.62 2616.88 4261.42 2620.98ZM4297.82 2626.08C4289.92 2643.88 4289.62 2645.18 4294.72 2639.58C4300.02 2633.78 4301.52 2630.78 4301.52 2625.38C4301.52 2619.38 4300.72 2619.48 4297.82 2626.08ZM4249.32 2664.88C4251.52 2677.28 4253.52 2678.78 4253.52 2667.98C4253.52 2663.68 4253.12 2660.38 4252.52 2660.38C4252.02 2660.38 4250.82 2658.98 4250.02 2657.28C4249.12 2655.58 4248.22 2654.38 4247.92 2654.58C4247.72 2654.78 4248.32 2659.48 4249.32 2664.88ZM4287.32 2661.48C4284.32 2662.78 4277.62 2675.88 4269.42 2696.38C4266.02 2704.88 4261.72 2714.98 4259.82 2718.78C4256.92 2724.48 4256.52 2726.08 4257.42 2727.78C4258.52 2729.88 4259.12 2729.88 4282.12 2729.68C4308.92 2729.38 4307.42 2729.68 4324.82 2719.58L4334.62 2713.88L4334.02 2710.38C4333.62 2708.48 4333.12 2701.88 4332.92 2695.68C4332.62 2689.08 4331.82 2683.08 4331.02 2680.98C4328.32 2674.58 4315.02 2666.28 4301.02 2662.28C4293.92 2660.18 4290.42 2659.98 4287.32 2661.48ZM4072.92 2678.48C4070.22 2680.18 4065.72 2683.28 4063.02 2685.38C4060.22 2687.48 4056.72 2689.58 4055.22 2689.88C4050.12 2691.18 4049.22 2694.68 4049.12 2715.48C4049.02 2731.58 4049.22 2734.38 4050.72 2735.98C4051.72 2737.18 4052.12 2738.88 4051.82 2740.58C4051.32 2743.08 4056.22 2760.78 4058.32 2764.08C4058.92 2765.08 4061.02 2765.18 4067.62 2764.28C4072.22 2763.68 4077.92 2763.48 4080.22 2763.78C4083.92 2764.28 4084.52 2764.08 4084.52 2762.48C4084.52 2757.38 4082.92 2753.98 4078.42 2749.48C4072.92 2743.98 4071.52 2741.08 4071.52 2735.08C4071.42 2732.78 4070.62 2726.88 4069.62 2722.08C4067.12 2709.58 4068.72 2701.08 4074.82 2693.78C4076.32 2691.98 4077.52 2689.48 4077.52 2688.08C4077.52 2686.78 4078.22 2683.68 4079.02 2681.38C4079.82 2679.08 4080.52 2676.78 4080.52 2676.28C4080.52 2674.58 4077.92 2675.38 4072.92 2678.48ZM4287.32 2740.48C4289.02 2742.18 4291.52 2745.58 4292.72 2748.18C4294.02 2750.68 4297.42 2754.78 4300.32 2757.28C4306.02 2762.28 4309.02 2767.48 4311.02 2776.18C4311.72 2779.28 4312.82 2783.68 4313.42 2785.88C4315.42 2793.78 4314.42 2812.08 4311.42 2821.08C4307.72 2832.28 4298.52 2843.88 4287.92 2850.68C4285.82 2851.98 4282.92 2854.38 4281.52 2855.88C4280.12 2857.38 4275.82 2860.78 4271.92 2863.38C4264.72 2868.28 4263.22 2870.38 4262.12 2877.48L4261.52 2881.08L4269.22 2881.68L4277.02 2882.18L4282.92 2876.58C4289.82 2869.78 4294.82 2862.48 4296.62 2856.38C4297.32 2853.88 4298.32 2851.28 4298.92 2850.58C4300.62 2848.28 4308.02 2843.58 4311.02 2842.78C4313.62 2842.18 4313.72 2842.28 4313.22 2844.98C4313.02 2846.58 4312.02 2850.58 4311.12 2853.78C4310.22 2856.98 4309.62 2859.88 4309.82 2860.08C4310.02 2860.28 4312.62 2859.38 4315.62 2858.08C4323.52 2854.58 4329.82 2853.38 4341.52 2852.98C4348.72 2852.78 4353.02 2852.18 4355.12 2851.08C4358.42 2849.38 4370.42 2836.68 4370.52 2834.78C4370.52 2833.88 4366.52 2830.68 4357.52 2824.58C4352.82 2821.38 4341.32 2810.08 4336.52 2803.88C4334.42 2801.08 4331.22 2795.08 4329.42 2790.58C4327.72 2785.98 4324.72 2779.88 4322.82 2777.08C4318.72 2771.08 4315.72 2764.68 4312.62 2755.18C4308.32 2742.38 4302.22 2737.68 4289.62 2737.48L4284.12 2737.38L4287.32 2740.48ZM4258.92 2739.98C4253.22 2742.68 4248.82 2748.48 4246.42 2756.58C4245.22 2760.58 4242.92 2767.18 4241.32 2771.28C4239.72 2775.28 4238.62 2778.78 4238.72 2778.88C4238.92 2779.08 4239.92 2778.48 4241.12 2777.48C4242.32 2776.48 4243.42 2774.18 4243.72 2771.68C4244.02 2769.38 4245.72 2764.38 4247.52 2760.48C4250.02 2755.08 4251.52 2753.18 4254.02 2751.88C4255.92 2751.08 4258.32 2748.78 4259.62 2746.78C4260.82 2744.78 4262.92 2742.08 4264.42 2740.78L4267.02 2738.38L4264.62 2738.38C4263.42 2738.38 4260.82 2739.08 4258.92 2739.98ZM4232.42 2743.08C4231.22 2745.18 4229.22 2747.78 4228.02 2748.88C4226.02 2750.68 4225.62 2751.98 4225.32 2760.08C4225.22 2765.18 4225.32 2768.98 4225.62 2768.58C4225.92 2768.18 4228.12 2762.08 4230.42 2754.98C4232.82 2747.88 4234.92 2741.48 4235.22 2740.78C4236.22 2738.08 4234.62 2739.48 4232.42 2743.08ZM4211.82 2759.48C4209.22 2761.68 4210.32 2765.68 4214.52 2769.08C4216.62 2770.88 4218.82 2772.38 4219.32 2772.38C4220.42 2772.38 4221.62 2760.58 4220.82 2757.58C4220.32 2755.58 4220.12 2755.48 4216.72 2756.98C4214.82 2757.78 4212.62 2758.88 4211.82 2759.48ZM4161.82 2821.18C4162.82 2822.18 4163.52 2823.58 4163.52 2824.28C4163.52 2824.88 4164.22 2825.68 4165.02 2825.98C4165.82 2826.38 4166.52 2827.38 4166.52 2828.38C4166.52 2831.28 4169.82 2833.28 4178.52 2835.48C4187.52 2837.68 4194.02 2840.58 4194.82 2842.58C4195.12 2843.28 4195.42 2842.88 4195.42 2841.58C4195.52 2838.28 4192.12 2832.08 4188.62 2829.08C4185.12 2826.18 4179.12 2823.98 4176.92 2824.78C4174.52 2825.68 4165.42 2823.28 4163.72 2821.28C4162.82 2820.28 4161.62 2819.38 4161.12 2819.38C4160.62 2819.38 4160.92 2820.18 4161.82 2821.18ZM4222.32 2835.38C4219.82 2837.28 4217.22 2843.38 4214.02 2854.88C4213.12 2858.18 4209.42 2868.88 4205.92 2878.78C4202.32 2888.58 4199.62 2896.78 4199.72 2896.88C4199.92 2897.08 4201.82 2897.38 4204.02 2897.58C4207.82 2897.88 4208.02 2897.78 4208.32 2894.88C4208.62 2891.68 4211.92 2881.48 4213.72 2877.98C4215.72 2874.08 4219.92 2870.38 4222.32 2870.38C4226.32 2870.38 4231.22 2873.28 4235.02 2877.88C4240.52 2884.68 4248.12 2887.28 4253.72 2884.28C4255.62 2883.28 4255.72 2882.58 4255.12 2876.08C4253.92 2863.88 4253.02 2861.88 4245.52 2854.38C4238.52 2847.38 4233.52 2840.58 4233.52 2838.08C4233.52 2836.78 4228.22 2833.58 4225.92 2833.48C4225.32 2833.38 4223.72 2834.28 4222.32 2835.38ZM4166.72 2845.48C4162.12 2847.78 4158.62 2850.68 4153.32 2856.68C4149.32 2861.18 4142.32 2868.58 4137.72 2873.18L4129.52 2881.58L4136.22 2890.18C4147.92 2904.98 4161.52 2917.38 4166.02 2917.38C4167.92 2917.38 4174.52 2908.48 4178.32 2900.78C4182.02 2893.38 4192.62 2863.28 4193.22 2858.18C4194.02 2852.38 4190.32 2846.78 4184.62 2844.98C4174.62 2841.78 4174.02 2841.78 4166.72 2845.48ZM4244.42 2902.98C4242.12 2904.08 4240.62 2904.28 4238.22 2903.48C4231.32 2901.38 4228.12 2901.38 4225.52 2903.28C4223.12 2905.18 4223.12 2905.28 4224.92 2907.28C4226.02 2908.48 4227.82 2909.38 4229.12 2909.38C4230.32 2909.38 4232.52 2909.78 4233.92 2910.38C4235.32 2910.88 4237.82 2911.08 4239.52 2910.78C4242.52 2910.18 4250.52 2903.98 4250.52 2902.28C4250.52 2900.88 4247.82 2901.18 4244.42 2902.98ZM4198.72 2903.08C4198.52 2903.88 4199.22 2904.38 4200.42 2904.38C4201.62 2904.38 4204.42 2906.08 4206.72 2908.08C4209.32 2910.48 4210.62 2911.18 4210.22 2910.08C4209.82 2908.98 4209.22 2907.08 4208.92 2905.68C4208.52 2904.38 4207.32 2902.78 4206.12 2902.38C4203.32 2901.18 4199.22 2901.58 4198.72 2903.08ZM4215.52 2916.58C4215.52 2918.48 4221.32 2923.68 4222.62 2922.78C4224.22 2921.78 4223.62 2913.18 4221.82 2911.08C4220.12 2909.28 4220.02 2909.28 4217.82 2912.08C4216.52 2913.58 4215.52 2915.58 4215.52 2916.58ZM4191.22 2916.58C4188.82 2920.58 4185.82 2925.78 4184.72 2927.98L4182.62 2932.08L4184.92 2933.18C4186.12 2933.68 4188.22 2936.28 4189.62 2938.78C4190.92 2941.28 4192.32 2943.38 4192.62 2943.38C4194.12 2943.38 4205.12 2932.88 4206.12 2930.48C4208.22 2925.58 4208.52 2917.48 4206.72 2915.18C4202.92 2910.48 4201.42 2909.38 4198.62 2909.38C4196.12 2909.38 4195.12 2910.38 4191.22 2916.58ZM4212.52 2925.88C4212.52 2927.48 4213.12 2928.38 4214.02 2928.38C4215.52 2928.38 4216.12 2925.28 4214.82 2924.08C4213.52 2922.68 4212.52 2923.48 4212.52 2925.88ZM4207.72 2944.68C4204.02 2947.98 4200.92 2951.08 4200.72 2951.48C4200.52 2951.88 4202.12 2952.78 4204.32 2953.28C4206.52 2953.88 4209.92 2955.48 4212.02 2956.98C4214.02 2958.38 4216.02 2959.28 4216.22 2958.98C4216.52 2958.68 4217.12 2954.48 4217.62 2949.68C4218.12 2944.88 4218.72 2940.38 4218.92 2939.68C4219.22 2939.08 4219.12 2938.38 4218.92 2938.08C4217.72 2936.88 4213.92 2939.08 4207.72 2944.68ZM4174.82 2949.78C4173.52 2953.68 4172.72 2956.98 4172.92 2957.18C4173.62 2957.88 4179.02 2954.58 4181.82 2951.78C4183.82 2949.88 4184.42 2948.48 4183.92 2946.98C4182.92 2943.68 4181.32 2942.28 4179.12 2942.58C4177.52 2942.78 4176.52 2944.48 4174.82 2949.78ZM4132.72 2965.08C4124.02 2968.18 4122.62 2969.88 4123.32 2975.88C4123.62 2978.58 4123.32 2980.98 4122.62 2981.78C4121.72 2982.78 4121.72 2983.38 4122.52 2983.88C4123.42 2984.48 4125.82 2983.08 4128.52 2980.38C4129.22 2979.68 4136.92 2975.98 4143.72 2972.98L4149.52 2970.48L4149.52 2965.88L4149.52 2961.28L4144.72 2961.88C4142.12 2962.28 4136.72 2963.68 4132.72 2965.08Z" fill="#000000" fill-rule="nonzero" opacity="1" stroke="none" vectornator:layerName="path 8"/>
</g>
</g>
</svg>
