<?xml version="1.0" encoding="UTF-8" standalone="no"?>
<!DOCTYPE svg PUBLIC "-//W3C//DTD SVG 1.1//EN" "http://www.w3.org/Graphics/SVG/1.1/DTD/svg11.dtd">
<!-- Created with Vectornator (http://vectornator.io/) -->
<svg height="100%" stroke-miterlimit="10" style="fill-rule:nonzero;clip-rule:evenodd;stroke-linecap:round;stroke-linejoin:round;" version="1.1" viewBox="1074.77 4148.37 226.139 552.19" width="100%" xml:space="preserve" xmlns="http://www.w3.org/2000/svg" xmlns:vectornator="http://vectornator.io" xmlns:xlink="http://www.w3.org/1999/xlink">
<defs/>
<clipPath id="ArtboardFrame">
<rect height="552.19" width="226.139" x="1074.77" y="4148.37"/>
</clipPath>
<g clip-path="url(#ArtboardFrame)" id="Layer" vectornator:layerName="Layer">
<g opacity="1" vectornator:layerName="Group 1">
<path d="M1210.27 4257.06C1198.76 4253.23 1188.43 4235.73 1174.27 4230.06C1161.65 4225.02 1143.11 4231.85 1134.27 4220.06C1123.69 4205.96 1121 4167.2 1139.27 4158.06C1141.9 4179.08 1155.49 4200.47 1175.27 4207.06C1175.27 4207.23 1206.18 4248.88 1210.27 4257.06Z" fill="#dfdfdf" fill-rule="nonzero" opacity="1" stroke="#dfdfdf" stroke-linecap="round" stroke-linejoin="round" stroke-width="1"/>
<path d="M1089.27 4228.06C1089.27 4210.96 1102.38 4190.06 1124.27 4190.06C1125.71 4210.2 1128.31 4254.45 1139.27 4269.06C1145.55 4277.44 1155.88 4284.29 1160.27 4293.06C1120.94 4312.73 1120.1 4238.34 1089.27 4228.06Z" fill="#dcdcdc" fill-rule="nonzero" opacity="1" stroke="#dcdcdc" stroke-linecap="round" stroke-linejoin="round" stroke-width="1"/>
<path d="M1292.27 4224.06C1292.27 4229.6 1301.66 4233.14 1300.27 4240.06C1296.61 4258.34 1240.54 4296.06 1219.27 4296.06C1238.26 4286.57 1248.81 4264.47 1250.27 4244.06C1251.17 4231.41 1240.35 4210.4 1252.27 4206.06C1275.6 4197.58 1277.43 4220.35 1292.27 4224.06Z" fill="#e6e6e6" fill-rule="nonzero" opacity="1" stroke="#e6e6e6" stroke-linecap="round" stroke-linejoin="round" stroke-width="1"/>
<path d="M1186.27 4692.06C1187.27 4692.06 1187.27 4692.06 1188.27 4692.06C1187.28 4695.03 1186.52 4697.06 1190.27 4697.06C1189.77 4698.56 1189.77 4698.56 1189.27 4700.06C1175.46 4693.16 1177.27 4641.93 1177.27 4632.06C1177.27 4616.73 1176.27 4601.4 1176.27 4586.06C1176.27 4515.23 1188.12 4449.27 1184.27 4378.06C1183.33 4360.71 1191.43 4332.3 1181.27 4317.06C1182.27 4316.06 1182.27 4316.06 1183.27 4315.06C1184.38 4318.4 1185.42 4321.65 1186.27 4325.06C1189.26 4325.06 1190.51 4320.9 1193.27 4319.06C1193.77 4320.06 1193.77 4320.06 1194.27 4321.06C1175.05 4330.67 1190.09 4382.78 1186.27 4398.06C1189.21 4398.06 1189.33 4396.06 1192.27 4396.06C1192.27 4413.59 1176.78 4497.09 1184.27 4512.06C1176.98 4515.71 1179.99 4569.84 1180.27 4576.06C1184.66 4576.06 1187.96 4564.38 1191.27 4561.06C1194.78 4568.08 1178.27 4581.07 1178.27 4588.06C1178.27 4623.74 1175.01 4658.29 1186.27 4692.06Z" fill="#676767" fill-rule="nonzero" opacity="1" stroke="#676767" stroke-linecap="round" stroke-linejoin="round" stroke-width="1"/>
<path d="M1139.27 4224.06C1138.27 4224.56 1138.27 4224.56 1137.27 4225.06C1136.27 4224.06 1136.27 4224.06 1135.27 4223.06C1109.82 4261.25 1173.53 4312.01 1209.27 4304.06C1207.77 4303.56 1207.77 4303.56 1206.27 4303.06C1218.03 4297.19 1213.51 4275.25 1211.27 4264.06C1208.53 4264.06 1209.57 4264.66 1208.27 4262.06C1209.77 4261.06 1209.77 4261.06 1211.27 4260.06C1195.83 4229.17 1163.79 4238.83 1138.27 4226.06C1138.77 4225.06 1138.77 4225.06 1139.27 4224.06Z" fill="#eaeaea" fill-rule="nonzero" opacity="1" stroke="#eaeaea" stroke-linecap="round" stroke-linejoin="round" stroke-width="1"/>
<path d="M1160.27 4446.06C1159.22 4448.16 1161.44 4452.92 1157.27 4453.06C1148.61 4453.37 1139.93 4453.34 1131.27 4453.06C1098.23 4452.03 1087.71 4410.37 1079.27 4385.06C1084.77 4382.32 1110.34 4387.8 1113.27 4388.06C1141.19 4390.6 1137.37 4421.16 1152.27 4436.06C1145.6 4436.06 1140.47 4425.17 1134.27 4422.06C1136.64 4429.17 1153.4 4446.06 1160.27 4446.06Z" fill="#e6e6e6" fill-rule="nonzero" opacity="1" stroke="#e6e6e6" stroke-linecap="round" stroke-linejoin="round" stroke-width="1"/>
<path d="M1275.27 4476.06C1275.27 4490.62 1252.59 4523.71 1258.27 4535.06C1243.78 4549.56 1222.1 4544.92 1203.27 4544.06C1205.64 4540.51 1205.27 4542.27 1205.27 4539.06C1203.77 4539.56 1203.77 4539.56 1202.27 4540.06C1202.27 4486.46 1237.65 4488.61 1275.27 4476.06Z" fill="#dedede" fill-rule="nonzero" opacity="1" stroke="#dedede" stroke-linecap="round" stroke-linejoin="round" stroke-width="1"/>
<path d="M1254.27 4180.06C1255.57 4177.47 1254.53 4178.06 1257.27 4178.06C1256.77 4179.06 1256.77 4179.06 1256.27 4180.06C1257.27 4180.06 1257.27 4180.06 1258.27 4180.06C1257.77 4181.06 1257.77 4181.06 1257.27 4182.06C1258.27 4182.06 1258.27 4182.06 1259.27 4182.06C1256.3 4188 1257.79 4196.02 1254.27 4203.06C1270.17 4203.06 1275.03 4210.98 1287.27 4215.06C1285.97 4217.68 1286.09 4219.06 1289.27 4219.06C1288.77 4220.06 1288.77 4220.06 1288.27 4221.06C1289.27 4221.56 1289.27 4221.56 1290.27 4222.06C1289.27 4222.56 1289.27 4222.56 1288.27 4223.06C1281.33 4209.18 1268.4 4206.75 1253.27 4205.06C1245.74 4227.66 1255.57 4252.61 1241.27 4274.06C1240.27 4273.56 1240.27 4273.56 1239.27 4273.06C1247.91 4255.78 1251.51 4236.49 1248.27 4217.06C1245.77 4218.56 1245.77 4218.56 1243.27 4220.06C1244.27 4218.06 1245.27 4216.06 1246.27 4214.06C1247.27 4214.56 1247.27 4214.56 1248.27 4215.06C1243.04 4204.6 1266.96 4192.75 1254.27 4180.06Z" fill="#6c6c6c" fill-rule="nonzero" opacity="1" stroke="#6c6c6c" stroke-linecap="round" stroke-linejoin="round" stroke-width="1"/>
<path d="M1247.27 4217.06C1250.78 4238.15 1246.8 4296.06 1214.27 4296.06C1214.27 4280.12 1218.5 4243.68 1199.27 4234.06C1211.56 4221.78 1232.99 4227.78 1247.27 4217.06Z" fill="#ebebeb" fill-rule="nonzero" opacity="1" stroke="#ebebeb" stroke-linecap="round" stroke-linejoin="round" stroke-width="1"/>
<path d="M1206.27 4303.06C1218.03 4297.19 1213.51 4275.25 1211.27 4264.06C1208.53 4264.06 1209.57 4264.66 1208.27 4262.06C1214.16 4258.14 1207.57 4247.37 1203.27 4243.06C1204.27 4242.06 1204.27 4242.06 1205.27 4241.06C1210.97 4258.18 1220.38 4277.73 1214.27 4296.06C1231.88 4296.06 1242.75 4289.75 1257.27 4280.06C1257.77 4281.56 1257.77 4281.56 1258.27 4283.06C1255.07 4283.06 1217.43 4299.74 1216.27 4302.06C1221.7 4302.06 1224.61 4307.07 1227.27 4311.06C1220.43 4307.64 1213.1 4306.48 1206.27 4303.06Z" fill="#757575" fill-rule="nonzero" opacity="1" stroke="#757575" stroke-linecap="round" stroke-linejoin="round" stroke-width="1"/>
<path d="M1186.27 4156.06C1186.27 4142.95 1239.61 4153.85 1241.27 4156.06C1245.34 4161.49 1246.01 4169.39 1250.27 4175.06C1252.1 4177.51 1252.4 4177.11 1255.27 4178.06C1252.49 4183.62 1261.2 4195.12 1253.27 4201.06C1235.93 4214.07 1209.97 4158.43 1186.27 4156.06Z" fill="#e0e0e0" fill-rule="nonzero" opacity="1" stroke="#e0e0e0" stroke-linecap="round" stroke-linejoin="round" stroke-width="1"/>
<path d="M1259.27 4534.06C1262.01 4528.58 1279.71 4473.37 1279.27 4472.06C1263.9 4472.06 1239.32 4475.01 1227.27 4487.06C1243.09 4481.79 1259.3 4481.39 1275.27 4476.06C1275.27 4485.29 1254.85 4531.85 1259.27 4534.06Z" fill="#8d8d8d" fill-rule="nonzero" opacity="1" stroke="#8d8d8d" stroke-linecap="round" stroke-linejoin="round" stroke-width="1"/>
<path d="M1197.27 4555.06C1195.77 4554.56 1195.77 4554.56 1194.27 4554.06C1202.77 4537.06 1205.36 4516.88 1214.27 4499.06C1215.73 4501.99 1202.72 4534.72 1201.27 4539.06C1205.02 4539.06 1203.82 4538.17 1205.27 4541.06C1204.27 4542.06 1204.27 4542.06 1203.27 4543.06C1220.29 4543.84 1234.34 4548.53 1249.27 4541.06C1249.27 4554.67 1207.6 4534.4 1197.27 4555.06Z" fill="#767676" fill-rule="nonzero" opacity="1" stroke="#767676" stroke-linecap="round" stroke-linejoin="round" stroke-width="1"/>
<path d="M1197.27 4235.06C1193.54 4227.61 1175.27 4212.82 1175.27 4207.06C1191.72 4207.06 1201.66 4190.06 1220.27 4190.06C1226.15 4190.06 1229.99 4197.31 1235.27 4199.06C1234.77 4200.06 1234.77 4200.06 1234.27 4201.06C1235.27 4202.06 1235.27 4202.06 1236.27 4203.06C1229.93 4209.4 1217.22 4209.12 1210.27 4216.06C1210.77 4217.06 1210.77 4217.06 1211.27 4218.06C1206.46 4222.87 1203.54 4231.93 1197.27 4235.06Z" fill="#dadada" fill-rule="nonzero" opacity="1" stroke="#dadada" stroke-linecap="round" stroke-linejoin="round" stroke-width="1"/>
<path d="M1155.27 4187.06C1155.27 4169.67 1186.75 4152.3 1202.27 4160.06C1210.87 4164.36 1218.7 4180.13 1222.27 4189.06C1193.5 4186.04 1184.53 4177.31 1155.27 4187.06Z" fill="#cfcfcf" fill-rule="nonzero" opacity="1" stroke="#cfcfcf" stroke-linecap="round" stroke-linejoin="round" stroke-width="1"/>
<path d="M1256.27 4178.06C1252.6 4175.62 1251.39 4172.18 1248.27 4169.06C1248.77 4168.06 1248.77 4168.06 1249.27 4167.06C1244.71 4167.06 1247.27 4163.99 1247.27 4161.06C1246.27 4161.06 1246.27 4161.06 1245.27 4161.06C1245.77 4160.06 1245.77 4160.06 1246.27 4159.06C1245.27 4159.06 1245.27 4159.06 1244.27 4159.06C1244.77 4158.06 1244.77 4158.06 1245.27 4157.06C1244.27 4157.06 1244.27 4157.06 1243.27 4157.06C1241.08 4150.49 1193.02 4144.62 1186.27 4153.06C1194.46 4148.15 1236.38 4149.54 1241.27 4156.06C1245.87 4162.2 1245.71 4178.06 1256.27 4178.06Z" fill="#565656" fill-rule="nonzero" opacity="1" stroke="#565656" stroke-linecap="round" stroke-linejoin="round" stroke-width="1"/>
<path d="M1077.27 4386.06C1090.65 4379.37 1131.39 4387.43 1137.27 4405.06C1138.27 4405.06 1138.27 4405.06 1139.27 4405.06C1139.27 4381.46 1089.13 4390.92 1078.27 4380.06C1075.74 4382.59 1076.69 4381.22 1075.27 4384.06C1076.27 4385.06 1076.27 4385.06 1077.27 4386.06Z" fill="#484848" fill-rule="nonzero" opacity="1" stroke="#484848" stroke-linecap="round" stroke-linejoin="round" stroke-width="1"/>
<path d="M1204.27 4308.06C1227.01 4296.69 1231.33 4329.09 1252.27 4336.06C1252.27 4337.06 1252.27 4337.06 1252.27 4338.06C1230.72 4338.06 1225.96 4311.16 1204.27 4308.06Z" fill="#aaaaaa" fill-rule="nonzero" opacity="1" stroke="#aaaaaa" stroke-linecap="round" stroke-linejoin="round" stroke-width="1"/>
<path d="M1077.27 4386.06C1078.27 4385.56 1078.27 4385.56 1079.27 4385.06C1086.46 4399.45 1089.05 4432.45 1104.27 4440.06C1103.27 4440.56 1103.27 4440.56 1102.27 4441.06C1088.98 4427.77 1085.57 4402.67 1077.27 4386.06Z" fill="#808080" fill-rule="nonzero" opacity="1" stroke="#808080" stroke-linecap="round" stroke-linejoin="round" stroke-width="1"/>
<path d="M1153.27 4184.06C1120.49 4167.67 1167.69 4129.91 1183.27 4161.06C1169.64 4170.15 1161.01 4168.59 1153.27 4184.06Z" fill="#cecece" fill-rule="nonzero" opacity="1" stroke="#cecece" stroke-linecap="round" stroke-linejoin="round" stroke-width="1"/>
<path d="M1126.27 4331.06C1145.68 4326.21 1156.17 4296.51 1177.27 4307.06C1175.97 4309.66 1176.27 4308.32 1176.27 4311.06C1154.72 4308.67 1149.36 4331.06 1126.27 4331.06Z" fill="#ababab" fill-rule="nonzero" opacity="1" stroke="#ababab" stroke-linecap="round" stroke-linejoin="round" stroke-width="1"/>
<path d="M1160.27 4171.06C1160.27 4176.39 1156.59 4181.79 1155.27 4187.06C1173.8 4187.06 1181.53 4174.69 1200.27 4184.06C1192.68 4187.86 1163.62 4176.36 1156.27 4191.06C1158.26 4193.06 1158.79 4194.82 1161.27 4196.06C1156.04 4197.81 1152.53 4190.58 1150.27 4186.06C1155.69 4182.45 1154.31 4174.05 1160.27 4171.06Z" fill="#9c9c9c" fill-rule="nonzero" opacity="1" stroke="#9c9c9c" stroke-linecap="round" stroke-linejoin="round" stroke-width="1"/>
<path d="M1150.27 4282.06C1133.52 4282.06 1129.58 4222.45 1132.27 4217.06C1134.62 4219.42 1137.84 4222.2 1139.27 4225.06C1136.33 4225.06 1137.74 4225.54 1135.27 4223.06C1122.04 4242.9 1142.04 4265.6 1150.27 4282.06Z" fill="#2a2a2a" fill-rule="nonzero" opacity="1" stroke="#2a2a2a" stroke-linecap="round" stroke-linejoin="round" stroke-width="1"/>
<path d="M1166.27 4303.06C1166.27 4298.07 1133.4 4290.48 1125.27 4285.06C1126.27 4284.56 1126.27 4284.56 1127.27 4284.06C1134.61 4291.41 1148.79 4292.69 1158.27 4295.06C1158.77 4294.06 1158.77 4294.06 1159.27 4293.06C1165.42 4296.14 1170.69 4300.78 1177.27 4304.06C1176.77 4305.56 1176.77 4305.56 1176.27 4307.06C1169.81 4303.19 1173.18 4304.45 1166.27 4303.06Z" fill="#262626" fill-rule="nonzero" opacity="1" stroke="#262626" stroke-linecap="round" stroke-linejoin="round" stroke-width="1"/>
<path d="M1160.27 4449.06C1163.92 4450.89 1165.78 4456.82 1170.27 4459.06C1168.27 4459.56 1168.27 4459.56 1166.27 4460.06C1160.31 4448.15 1105.27 4462.76 1105.27 4442.06C1116.92 4447.89 1154.26 4467.1 1160.27 4449.06Z" fill="#727272" fill-rule="nonzero" opacity="1" stroke="#727272" stroke-linecap="round" stroke-linejoin="round" stroke-width="1"/>
<path d="M1204.27 4227.06C1211.79 4212.03 1234.88 4205.99 1250.27 4204.06C1250.27 4208.09 1246.52 4211.56 1248.27 4215.06C1247.27 4214.56 1247.27 4214.56 1246.27 4214.06C1241.81 4219.65 1241.32 4217.16 1243.27 4221.06C1242.27 4222.06 1242.27 4222.06 1241.27 4223.06C1234.38 4219.62 1213.21 4224.83 1204.27 4227.06Z" fill="#eeeeee" fill-rule="nonzero" opacity="1" stroke="#eeeeee" stroke-linecap="round" stroke-linejoin="round" stroke-width="1"/>
<path d="M1139.27 4225.06C1158.81 4215.3 1178.48 4233.17 1194.27 4241.06C1188.99 4242.82 1174.43 4231.86 1167.27 4230.06C1158.55 4227.89 1143.54 4233.61 1139.27 4225.06Z" fill="#7c7c7c" fill-rule="nonzero" opacity="1" stroke="#7c7c7c" stroke-linecap="round" stroke-linejoin="round" stroke-width="1"/>
<path d="M1156.27 4191.06C1162.45 4178.7 1193 4184 1201.27 4186.06C1199.94 4188.73 1199.94 4187.4 1201.27 4190.06C1198.74 4192.59 1200.11 4191.64 1197.27 4193.06C1197.77 4194.06 1197.77 4194.06 1198.27 4195.06C1180.58 4212.75 1170.07 4204.87 1156.27 4191.06Z" fill="#e0e0e0" fill-rule="nonzero" opacity="1" stroke="#e0e0e0" stroke-linecap="round" stroke-linejoin="round" stroke-width="1"/>
<path d="M1095.27 4232.06C1094.77 4233.06 1094.77 4233.06 1094.27 4234.06C1103.29 4243.08 1104.59 4266.22 1116.27 4272.06C1116.27 4264.5 1115.95 4251.75 1110.27 4246.06C1111.27 4245.06 1111.27 4245.06 1112.27 4244.06C1108.67 4236.86 1102.13 4235.49 1095.27 4232.06Z" fill="#b0b0b0" fill-rule="nonzero" opacity="1" stroke="#b0b0b0" stroke-linecap="round" stroke-linejoin="round" stroke-width="1"/>
<path d="M1116.27 4275.06C1115.77 4274.06 1115.77 4274.06 1115.27 4273.06C1113.77 4273.56 1113.77 4273.56 1112.27 4274.06C1106.59 4262.71 1098.13 4248.65 1094.27 4237.06C1095.77 4237.06 1095.77 4237.06 1097.27 4237.06C1097.27 4249.27 1116.27 4263.79 1116.27 4275.06Z" fill="#5d5d5d" fill-rule="nonzero" opacity="1" stroke="#5d5d5d" stroke-linecap="round" stroke-linejoin="round" stroke-width="1"/>
<path d="M1213.27 4217.06C1212.27 4216.56 1212.27 4216.56 1211.27 4216.06C1215.24 4208.13 1230.13 4209.21 1236.27 4203.06C1235.27 4202.06 1235.27 4202.06 1234.27 4201.06C1235.27 4200.06 1235.27 4200.06 1236.27 4199.06C1241.28 4206.57 1245.65 4198.76 1252.27 4202.06C1244.48 4209.86 1223.03 4207.3 1213.27 4217.06Z" fill="#777777" fill-rule="nonzero" opacity="1" stroke="#777777" stroke-linecap="round" stroke-linejoin="round" stroke-width="1"/>
<path d="M1110.27 4246.06C1111.27 4245.06 1111.27 4245.06 1112.27 4244.06C1116.07 4259.25 1121.9 4271.97 1126.27 4285.06C1121.18 4285.06 1117.53 4277.2 1113.27 4275.06C1120.38 4271.51 1115.08 4250.87 1110.27 4246.06Z" fill="#696969" fill-rule="nonzero" opacity="1" stroke="#696969" stroke-linecap="round" stroke-linejoin="round" stroke-width="1"/>
<path d="M1094.27 4237.06C1087.07 4229.87 1080.61 4216.73 1089.27 4208.06C1089.77 4209.06 1089.77 4209.06 1090.27 4210.06C1077.19 4223.14 1096.49 4231.18 1106.27 4236.06C1102.41 4236.06 1098.79 4233.82 1095.27 4232.06C1094.77 4233.06 1094.77 4233.06 1094.27 4234.06C1095.27 4235.06 1095.27 4235.06 1096.27 4236.06C1095.27 4236.56 1095.27 4236.56 1094.27 4237.06Z" fill="#414141" fill-rule="nonzero" opacity="1" stroke="#414141" stroke-linecap="round" stroke-linejoin="round" stroke-width="1"/>
<path d="M1141.27 4155.06C1145.9 4145.8 1175.93 4152.39 1183.27 4156.06C1184.6 4153.4 1183.6 4154.4 1186.27 4153.06C1186.27 4154.56 1186.27 4154.56 1186.27 4156.06C1194.57 4156.06 1195.62 4154.42 1200.27 4159.06C1182.65 4164.94 1161.18 4148.43 1141.27 4155.06Z" fill="#505050" fill-rule="nonzero" opacity="1" stroke="#505050" stroke-linecap="round" stroke-linejoin="round" stroke-width="1"/>
<path d="M1157.27 4446.06C1155.26 4440.03 1138.99 4428.78 1133.27 4423.06C1139.13 4423.06 1159.55 4441.5 1157.27 4446.06Z" fill="#696969" fill-rule="nonzero" opacity="1" stroke="#696969" stroke-linecap="round" stroke-linejoin="round" stroke-width="1"/>
<path d="M1135.27 4161.06C1125.99 4179.63 1125.77 4198.58 1132.27 4218.06C1131.27 4218.06 1131.27 4218.06 1130.27 4218.06C1130.27 4210.65 1116.83 4161.06 1135.27 4161.06Z" fill="#646464" fill-rule="nonzero" opacity="1" stroke="#646464" stroke-linecap="round" stroke-linejoin="round" stroke-width="1"/>
<path d="M1235.27 4199.06C1224.57 4195.5 1212.39 4181.95 1200.27 4194.06C1199.27 4193.56 1199.27 4193.56 1198.27 4193.06C1199.77 4191.56 1199.77 4191.56 1201.27 4190.06C1200.77 4189.06 1200.77 4189.06 1200.27 4188.06C1208.52 4179.82 1230.42 4189.36 1235.27 4199.06Z" fill="#5a5a5a" fill-rule="nonzero" opacity="1" stroke="#5a5a5a" stroke-linecap="round" stroke-linejoin="round" stroke-width="1"/>
<path d="M1139.27 4405.06C1140.27 4404.56 1140.27 4404.56 1141.27 4404.06C1140.77 4405.06 1140.77 4405.06 1140.27 4406.06C1141.27 4406.06 1141.27 4406.06 1142.27 4406.06C1140.23 4410.14 1145.79 4418.62 1147.27 4423.06C1148.27 4423.06 1148.27 4423.06 1149.27 4423.06C1147.8 4426 1148.66 4430.06 1152.27 4430.06C1151.77 4431.06 1151.77 4431.06 1151.27 4432.06C1152.27 4432.06 1152.27 4432.06 1153.27 4432.06C1151.92 4434.76 1153.27 4435.94 1153.27 4439.06C1149.41 4427.48 1143.13 4416.66 1139.27 4405.06Z" fill="#545454" fill-rule="nonzero" opacity="1" stroke="#545454" stroke-linecap="round" stroke-linejoin="round" stroke-width="1"/>
<path d="M1176.27 4307.06C1178.72 4302.16 1199.63 4306.16 1207.27 4305.06C1205.94 4307.73 1206.94 4306.73 1204.27 4308.06C1210.68 4308.06 1218.07 4308.67 1221.27 4315.06C1212.63 4315.06 1208.17 4310.08 1198.27 4312.06C1198.77 4311.06 1198.77 4311.06 1199.27 4310.06C1193.02 4309.67 1183.02 4307.06 1176.27 4307.06Z" fill="#626262" fill-rule="nonzero" opacity="1" stroke="#626262" stroke-linecap="round" stroke-linejoin="round" stroke-width="1"/>
<path d="M1142.27 4155.06C1142.27 4167 1144.76 4176.55 1153.27 4185.06C1145.97 4187.5 1135.86 4158.27 1142.27 4155.06Z" fill="#545454" fill-rule="nonzero" opacity="1" stroke="#545454" stroke-linecap="round" stroke-linejoin="round" stroke-width="1"/>
<path d="M1227.27 4311.06C1228.27 4311.06 1228.27 4311.06 1229.27 4311.06C1229.27 4314.16 1231.15 4318.06 1234.27 4318.06C1234.27 4322.81 1240.64 4328.91 1245.27 4330.06C1241.94 4336.72 1227.27 4315.81 1227.27 4311.06Z" fill="#303030" fill-rule="nonzero" opacity="1" stroke="#303030" stroke-linecap="round" stroke-linejoin="round" stroke-width="1"/>
<path d="M1186.27 4325.06C1186.27 4318.32 1183.8 4315.37 1180.27 4310.06C1189.77 4309.56 1189.77 4309.56 1199.27 4309.06C1198.77 4310.06 1198.77 4310.06 1198.27 4311.06C1204.07 4313.96 1188.72 4325.06 1186.27 4325.06Z" fill="#cbcbcb" fill-rule="nonzero" opacity="1" stroke="#cbcbcb" stroke-linecap="round" stroke-linejoin="round" stroke-width="1"/>
<path d="M1239.27 4222.06C1239.27 4230.3 1210.73 4227.7 1201.27 4230.06C1210.27 4221.06 1227.54 4227.93 1239.27 4222.06Z" fill="#6b6b6b" fill-rule="nonzero" opacity="1" stroke="#6b6b6b" stroke-linecap="round" stroke-linejoin="round" stroke-width="1"/>
<path d="M1183.27 4315.06C1171.52 4315.06 1167.29 4312.55 1156.27 4318.06C1159.22 4309.21 1169.93 4311.06 1177.27 4311.06C1177.27 4309.56 1177.27 4309.56 1177.27 4308.06C1181.27 4306.73 1179.27 4306.73 1183.27 4308.06C1181.77 4309.06 1181.77 4309.06 1180.27 4310.06C1183.02 4312.81 1181.97 4311.17 1183.27 4315.06Z" fill="#747474" fill-rule="nonzero" opacity="1" stroke="#747474" stroke-linecap="round" stroke-linejoin="round" stroke-width="1"/>
<path d="M1116.27 4329.06C1128.54 4328.04 1131.39 4325.36 1141.27 4322.06C1141.77 4323.06 1141.77 4323.06 1142.27 4324.06C1135 4328.91 1124.45 4333.15 1116.27 4329.06Z" fill="#545454" fill-rule="nonzero" opacity="1" stroke="#545454" stroke-linecap="round" stroke-linejoin="round" stroke-width="1"/>
<path d="M1147.27 4326.06C1143.44 4333.73 1127.9 4335.38 1121.27 4332.06C1125.33 4330.04 1141.96 4326.06 1147.27 4326.06Z" fill="#6e6e6e" fill-rule="nonzero" opacity="1" stroke="#6e6e6e" stroke-linecap="round" stroke-linejoin="round" stroke-width="1"/>
<path d="M1243.27 4332.06C1246.61 4330.39 1257.37 4335.42 1261.27 4336.06C1253.5 4339.95 1243.73 4341.52 1237.27 4335.06C1241.2 4333.1 1248.04 4337.01 1252.27 4338.06C1252.27 4337.06 1252.27 4337.06 1252.27 4336.06C1248.33 4336.06 1246.05 4334.84 1243.27 4332.06Z" fill="#323232" fill-rule="nonzero" opacity="1" stroke="#323232" stroke-linecap="round" stroke-linejoin="round" stroke-width="1"/>
</g>
</g>
</svg>
