<?xml version="1.0" encoding="UTF-8" standalone="no"?>
<!DOCTYPE svg PUBLIC "-//W3C//DTD SVG 1.1//EN" "http://www.w3.org/Graphics/SVG/1.1/DTD/svg11.dtd">
<!-- Created with Vectornator (http://vectornator.io/) -->
<svg height="100%" stroke-miterlimit="10" style="fill-rule:nonzero;clip-rule:evenodd;stroke-linecap:round;stroke-linejoin:round;" version="1.1" viewBox="4023.5 4526.21 312.828 510.582" width="100%" xml:space="preserve" xmlns="http://www.w3.org/2000/svg" xmlns:vectornator="http://vectornator.io" xmlns:xlink="http://www.w3.org/1999/xlink">
<defs/>
<clipPath id="ArtboardFrame">
<rect height="510.582" width="312.828" x="4023.5" y="4526.21"/>
</clipPath>
<g clip-path="url(#ArtboardFrame)" id="Layer" vectornator:layerName="Layer">
<path d="M4024.31 5032C4046.44 5008.76 4062.86 4986.94 4076.25 4964.8C4082.2 4954.96 4087.54 4945.05 4092.52 4934.92L4092.52 4934.92C4092.21 4934.33 4092.12 4933.65 4092.26 4933C4097.68 4908.82 4098.81 4887.18 4097.55 4868.38C4096.69 4868.53 4095.81 4868.56 4094.94 4868.46C4092.45 4868.21 4089.62 4867.19 4086.24 4865.15C4083.77 4863.62 4081.42 4861.91 4079.2 4860.02C4069.2 4851.69 4063.03 4840.79 4058.19 4828.28C4053.36 4815.73 4049.79 4801.51 4045.04 4786.11C4042.18 4776.53 4041.96 4766.35 4044.41 4756.65C4046.34 4748.93 4049.44 4741.56 4053.59 4734.77C4055.66 4731.27 4058.03 4727.96 4060.65 4724.86C4061.4 4724.03 4062.56 4723.71 4063.62 4724.05C4064.68 4724.38 4065.45 4725.32 4065.56 4726.43C4066.08 4731.08 4068.09 4735.64 4071.24 4740.45C4075.93 4747.65 4083.17 4755.25 4090.84 4764.08C4098.52 4772.9 4106.65 4783 4113.1 4795.43C4119.64 4808.01 4120.08 4820.55 4118.07 4831.18C4116.3 4840.01 4112.99 4848.47 4108.29 4856.15C4107.12 4858.12 4105.83 4860.03 4104.46 4861.86C4104.22 4862.77 4103.85 4863.65 4103.36 4864.45C4103.24 4864.66 4103.1 4864.86 4102.96 4865.05C4104.32 4882.24 4103.68 4899.53 4101.07 4916.58C4107.72 4901.58 4113.9 4885.95 4120.28 4869.22C4135.28 4829.93 4144.31 4788.56 4149.57 4757.05C4152.2 4741.3 4153.89 4728 4154.92 4718.66C4155.44 4713.99 4155.79 4710.3 4156.01 4707.79C4156.12 4706.53 4156.2 4705.56 4156.25 4704.92C4156.28 4704.59 4156.3 4704.35 4156.31 4704.18C4149.26 4704.09 4142.25 4703.15 4135.42 4701.39C4132.19 4700.44 4129.11 4699.05 4126.25 4697.27C4124.29 4696.06 4122.39 4694.75 4120.56 4693.35C4112.96 4691.86 4105.6 4688.45 4098.69 4684.27C4090.91 4679.58 4083.69 4673.88 4077.44 4668.71C4071.22 4663.57 4065.93 4658.92 4062.32 4656.46C4055.64 4651.88 4051.15 4644.17 4048.86 4635.46C4046.51 4626.4 4046.61 4616.87 4049.17 4607.87C4049.62 4606.49 4050.2 4605.14 4050.88 4603.86C4051.64 4602.38 4052.56 4600.76 4053.6 4599.06C4058.74 4590.54 4066.65 4579.74 4068.62 4577.08C4069.62 4570.13 4072.02 4563.46 4075.66 4557.47C4079.54 4551 4084.86 4545.52 4091.21 4541.44C4099.66 4535.9 4109.76 4533.44 4119.81 4534.48C4124.29 4534.86 4128.67 4535.96 4132.79 4537.75C4133.14 4537.91 4133.44 4538.15 4133.7 4538.44C4136.36 4535.35 4139.67 4532.87 4143.39 4531.18C4149.89 4528.39 4157.79 4527.47 4165.46 4527.13C4173.12 4526.8 4180.56 4527.12 4185.84 4527.08C4190.78 4527.07 4198.31 4526.24 4205.99 4526.21C4213.68 4526.23 4221.6 4526.93 4227.74 4530.59C4228.28 4530.91 4228.8 4531.26 4229.3 4531.64C4235.09 4535.97 4238.26 4542.41 4240.12 4547.68C4240.99 4550.16 4241.67 4552.71 4242.15 4555.29C4246.68 4556.46 4251.01 4558.31 4255 4560.77C4259.29 4563.31 4263.15 4566.51 4266.45 4570.25C4269.59 4573.95 4271.91 4578.12 4272.51 4582.66C4272.96 4586.21 4272.35 4590.07 4271.35 4593.95C4270.15 4598.3 4268.61 4602.54 4266.74 4606.65C4268.55 4605.51 4270.46 4604.54 4272.45 4603.74C4273.28 4603.43 4274.22 4603.52 4274.97 4604C4275.72 4604.48 4276.2 4605.29 4276.27 4606.17C4276.67 4612.5 4276.73 4618.84 4276.44 4625.16C4276.22 4630.65 4275.6 4636.12 4274.6 4641.52C4273.54 4646.95 4271.97 4652.1 4269.46 4656.28C4269.16 4656.78 4268.85 4657.26 4268.51 4657.73C4265.72 4661.67 4261.37 4665.63 4256.14 4669.54C4247.71 4675.71 4238.59 4680.87 4228.96 4684.91C4224.53 4686.82 4219.95 4688.36 4215.27 4689.51C4211.89 4690.38 4208.41 4690.76 4204.93 4690.65C4200.77 4694.31 4196.36 4697.66 4191.73 4700.68C4188.98 4702.56 4185.68 4703.46 4182.37 4703.24C4181.54 4703.17 4180.71 4703.05 4179.89 4702.87C4177.55 4703.17 4174.91 4703.46 4172.06 4703.69C4168.9 4703.95 4165.51 4704.14 4161.96 4704.2C4161.96 4704.25 4161.97 4704.29 4161.97 4704.34L4161.97 4704.34C4161.95 4704.47 4157.43 4769.95 4136.44 4839.26C4151.18 4815.59 4165.03 4802.63 4175.46 4795.59C4185.03 4789.11 4191.68 4787.64 4193.38 4787.35L4193.55 4787.33L4193.38 4787.35C4191.97 4779.59 4191.02 4770.34 4192.26 4761.78C4192.92 4757.33 4194.97 4752.8 4197.73 4748.24C4203 4739.52 4210.94 4730.71 4217.59 4724C4224.24 4717.29 4229.58 4712.72 4229.63 4712.69C4230.24 4712.17 4231.04 4711.93 4231.84 4712.04C4232.63 4712.14 4233.35 4712.58 4233.8 4713.24C4233.83 4713.31 4234.42 4714.18 4235.26 4715.72C4237.87 4712.68 4240.7 4709.86 4243.75 4707.26C4247.2 4704.25 4251.11 4701.81 4255.33 4700.03C4259.61 4698.35 4264.42 4697.67 4269.15 4699.27C4272.31 4700.34 4275.35 4701.75 4278.2 4703.49C4281.94 4705.83 4285.44 4708.53 4288.64 4711.56C4291.44 4714.13 4293.75 4716.32 4295.69 4717.48C4296.36 4717.9 4297.09 4718.22 4297.86 4718.43C4302.73 4719.69 4310.62 4721.69 4317.23 4725.68C4320.64 4727.74 4323.78 4730.4 4325.86 4733.92C4328.72 4738.82 4330.21 4744.91 4331.21 4750.88C4332.21 4756.83 4332.67 4762.65 4333.21 4766.73C4333.71 4770.65 4335.19 4776.79 4335.92 4783.07C4336.33 4786.2 4336.43 4789.37 4336.22 4792.52C4336.06 4795.58 4335.23 4798.56 4333.79 4801.26L4333.54 4801.7C4330.56 4806.59 4325.83 4809.62 4321.94 4811.54C4320.25 4812.37 4318.5 4813.08 4316.71 4813.68C4315.92 4818.94 4314.08 4823.98 4311.31 4828.52C4309.75 4831.17 4307.81 4833.59 4305.56 4835.69C4303.42 4837.73 4300.82 4839.22 4297.97 4840.02C4295.1 4840.73 4291.91 4840.64 4288.6 4840.22C4283.78 4839.52 4279.03 4838.41 4274.4 4836.91L4274.36 4836.91C4275.62 4839.63 4276.55 4842.49 4277.11 4845.43C4277.27 4846.32 4276.99 4847.24 4276.35 4847.89C4275.72 4848.54 4274.82 4848.85 4273.92 4848.71C4273.91 4848.71 4267.1 4847.69 4258.68 4846.2C4250.24 4844.71 4240.2 4842.76 4233.48 4840.79C4229.43 4839.55 4225.55 4837.79 4221.95 4835.56C4215.02 4831.35 4208.89 4825.94 4203.83 4819.6C4201.55 4816.77 4199.62 4813.68 4198.07 4810.4C4196.68 4807.54 4195.91 4804.43 4195.82 4801.26C4195.83 4800.55 4195.91 4799.85 4196.08 4799.16C4195.58 4797.37 4195.05 4795.25 4194.5 4792.88L4194.5 4792.88C4194.48 4792.88 4194.46 4792.89 4194.44 4792.9L4194.44 4792.9C4194.04 4792.96 4187.64 4793.95 4177.66 4800.92C4167.69 4807.88 4154.14 4820.85 4139.58 4844.92C4134.44 4853.48 4129.75 4862.3 4125.52 4871.34C4112.04 4906.67 4099.38 4937.45 4081.08 4967.72C4067.49 4990.21 4050.79 5012.39 4028.39 5035.89C4027.7 5036.64 4026.66 5036.95 4025.67 5036.72C4024.68 5036.48 4023.89 5035.73 4023.61 5034.75C4023.33 5033.78 4023.59 5032.72 4024.31 5031.99L4024.31 5032ZM4118.94 4540.06C4110.26 4539.24 4101.56 4541.4 4094.27 4546.19C4088.65 4549.81 4083.94 4554.67 4080.48 4560.39C4078.13 4564.32 4076.34 4568.57 4075.17 4573C4074.74 4574.66 4074.47 4576.04 4074.33 4576.98C4074.25 4577.46 4074.2 4577.82 4074.19 4578.06L4074.15 4578.31L4074.15 4578.36C4074.11 4578.9 4073.92 4579.41 4073.6 4579.84C4073.6 4579.84 4073.01 4580.63 4072.03 4581.96C4069.11 4585.98 4062.67 4594.96 4058.42 4601.98C4057.43 4603.62 4056.58 4605.13 4055.91 4606.43C4055.39 4607.4 4054.95 4608.41 4054.59 4609.46C4052.32 4617.48 4052.23 4625.96 4054.32 4634.03C4056.34 4641.79 4060.34 4648.29 4065.51 4651.8C4069.63 4654.64 4074.87 4659.27 4081.04 4664.37C4087.19 4669.46 4094.22 4674.98 4101.62 4679.45C4104.22 4681.03 4106.9 4682.48 4109.66 4683.77C4104.31 4678.4 4099.25 4672.74 4094.51 4666.83C4085.64 4655.9 4079.52 4646.63 4079.48 4646.58C4079.05 4645.91 4078.91 4645.08 4079.12 4644.3C4079.32 4643.53 4079.85 4642.87 4080.56 4642.51C4080.72 4642.43 4087.04 4639.24 4097.17 4637.13C4097.82 4636.98 4098.49 4636.86 4099.17 4636.73C4096.85 4633.71 4094.79 4630.5 4093.03 4627.12C4090.73 4622.79 4089.19 4618.1 4088.48 4613.25C4087.69 4607.81 4088.53 4602.25 4090.89 4597.29C4091.7 4595.61 4092.57 4594.02 4093.48 4592.53C4098.05 4584.96 4103.6 4579.72 4108.44 4575.55C4113.28 4571.4 4117.32 4568.18 4119.05 4565.24C4119.32 4564.8 4119.55 4564.32 4119.74 4563.83C4121.54 4559.26 4124.19 4552.55 4128.01 4546.24C4128.71 4545.08 4129.45 4543.92 4130.25 4542.8C4126.64 4541.3 4122.83 4540.38 4118.94 4540.06L4118.94 4540.06ZM4234.63 4549.11C4232.98 4544.49 4230.17 4539.28 4225.93 4536.16C4225.57 4535.91 4225.2 4535.65 4224.82 4535.43C4220.41 4532.7 4213.29 4531.83 4206.01 4531.86C4198.69 4531.87 4191.31 4532.68 4185.89 4532.73C4180.37 4532.76 4173.05 4532.46 4165.69 4532.76C4158.34 4533.07 4150.97 4534.03 4145.62 4536.35C4140.63 4538.48 4136.28 4543.44 4132.84 4549.15C4129.33 4554.94 4126.78 4561.37 4125 4565.89C4124.7 4566.68 4124.32 4567.44 4123.87 4568.16C4121.2 4572.52 4116.8 4575.74 4112.13 4579.82C4107.43 4583.88 4102.42 4588.64 4098.3 4595.44C4097.49 4596.79 4096.71 4598.22 4095.98 4599.74C4094.08 4603.71 4093.42 4608.16 4094.08 4612.52C4094.9 4618.86 4098.01 4625.01 4100.98 4629.52C4102.19 4631.38 4103.51 4633.17 4104.93 4634.88C4105.21 4635.23 4105.47 4635.54 4105.69 4635.79C4113.62 4634.93 4121.63 4635.23 4129.47 4636.69C4127.25 4633.22 4124.43 4628.56 4121.82 4623.46C4119.16 4618.2 4116.7 4612.5 4115.38 4607.07C4114.72 4604.49 4114.41 4601.83 4114.45 4599.16C4114.48 4596.64 4115.15 4594.17 4116.4 4591.99C4117.57 4590.07 4119.25 4588.53 4121.25 4587.53C4130.52 4582.85 4140.81 4581.91 4150.63 4581.49C4156.08 4581.25 4161.37 4581.15 4166.29 4580.77C4167.31 4577.56 4168.73 4574.48 4170.51 4571.62C4175.93 4562.8 4183.73 4555.68 4193.01 4551.09C4197.75 4548.59 4202.96 4547.09 4208.3 4546.68C4215.35 4546.22 4221.38 4548.03 4226.58 4550.03C4230.04 4551.37 4233.18 4552.77 4236.03 4553.75C4235.65 4552.18 4235.18 4550.63 4234.63 4549.11ZM4266.91 4583.37C4266.53 4580.34 4264.83 4577.04 4262.15 4573.93C4259.25 4570.64 4255.85 4567.83 4252.08 4565.59C4248.12 4563.12 4243.75 4561.37 4239.18 4560.43C4239.16 4560.43 4239.14 4560.43 4239.13 4560.42C4237.88 4560.19 4236.64 4559.88 4235.43 4559.5C4235.02 4559.37 4234.62 4559.24 4234.23 4559.1C4232.61 4558.56 4231.02 4557.93 4229.42 4557.26C4224.6 4555.29 4219.71 4553.18 4214.3 4552.5C4208.89 4551.82 4202.93 4552.4 4195.57 4556.13C4187.23 4560.24 4180.22 4566.62 4175.35 4574.54C4174.28 4576.3 4173.35 4578.14 4172.56 4580.04C4174.11 4579.81 4175.64 4579.49 4177.15 4579.07C4184.4 4577.08 4192.77 4571.55 4201.04 4567.33C4205.18 4565.22 4209.34 4563.45 4213.56 4562.69C4217.8 4561.79 4222.22 4562.48 4225.98 4564.64L4225.99 4564.64L4226.09 4564.69C4228.15 4565.98 4229.85 4567.77 4231.04 4569.89C4233.2 4573.62 4234.21 4578.27 4234.66 4583.56C4235.29 4591.5 4234.55 4600.97 4233.28 4610.93C4231.99 4620.89 4230.17 4631.3 4228.58 4640.98C4228.17 4643.45 4227.74 4645.82 4227.28 4648.09C4230.04 4644.36 4233.28 4640.12 4236.8 4635.78C4242.22 4629 4248.06 4622.58 4254.28 4616.53C4255.01 4615.85 4255.74 4615.17 4256.47 4614.52C4258.78 4610.39 4260.85 4606.14 4262.67 4601.78C4264.04 4598.56 4265.17 4595.25 4266.05 4591.88C4266.83 4589.11 4267.12 4586.24 4266.91 4583.37L4266.91 4583.37ZM4218.03 4682.91C4226.41 4680.36 4236.21 4675.71 4244.75 4670.42C4248.78 4667.97 4252.63 4665.24 4256.28 4662.25C4259.14 4659.99 4261.7 4657.37 4263.9 4654.46C4264.15 4654.11 4264.39 4653.75 4264.63 4653.35C4266.61 4650.08 4268.08 4645.47 4269.07 4640.44C4270.54 4632.87 4270.96 4624.35 4270.97 4617.79C4270.97 4615.03 4270.92 4612.63 4270.84 4610.76C4267.26 4612.89 4263.89 4615.39 4260.8 4618.2C4260.63 4618.43 4260.41 4618.62 4260.17 4618.77C4259.5 4619.37 4258.84 4619.99 4258.17 4620.62C4249.43 4628.92 4240.53 4639.85 4233.88 4648.69C4230.55 4653.11 4227.77 4657 4225.82 4659.79C4224.85 4661.19 4224.09 4662.3 4223.57 4663.06C4223.06 4663.84 4222.79 4664.24 4222.79 4664.24C4222.6 4664.53 4222.36 4664.78 4222.08 4664.98C4222.08 4664.98 4221.85 4665.14 4221.46 4665.44C4220.02 4666.49 4216.33 4669.26 4212.56 4672.53C4210.69 4674.18 4208.78 4675.94 4207.13 4677.66C4205.7 4679.1 4204.41 4680.68 4203.31 4682.39C4202.89 4682.99 4202.6 4683.69 4202.47 4684.42L4202.48 4684.45C4203.05 4684.71 4203.66 4684.87 4204.28 4684.92C4207.5 4685.35 4212.46 4684.62 4218.03 4682.91L4218.03 4682.91ZM4182.75 4697.6C4184.83 4697.75 4186.89 4697.17 4188.6 4695.98C4192.08 4693.69 4195.44 4691.22 4198.66 4688.59C4198.19 4688.18 4197.78 4687.69 4197.47 4687.15C4196.81 4685.88 4196.64 4684.41 4196.98 4683.02C4197.28 4681.76 4197.79 4680.56 4198.49 4679.47C4200.01 4677.09 4201.81 4674.9 4203.85 4672.93C4208.31 4668.59 4213.07 4664.57 4218.1 4660.91C4220.31 4654.11 4221.95 4647.13 4223.01 4640.06C4225.44 4625.28 4228.38 4608.93 4229.07 4595.53C4229.44 4588.85 4229.23 4582.88 4228.22 4578.35C4227.82 4576.38 4227.13 4574.49 4226.17 4572.73C4225.46 4571.43 4224.43 4570.32 4223.17 4569.53L4223.16 4569.53C4220.59 4567.99 4217.86 4567.69 4214.54 4568.26C4209.61 4569.1 4203.69 4572.19 4197.58 4575.61C4191.44 4579 4185.11 4582.7 4178.67 4584.52C4170.18 4586.87 4160.49 4586.69 4150.88 4587.12C4141.26 4587.53 4131.78 4588.52 4123.81 4592.58C4122.75 4593.1 4121.86 4593.91 4121.24 4594.92C4120.48 4596.27 4120.09 4597.8 4120.1 4599.36C4119.97 4602.59 4120.96 4606.86 4122.59 4611.3C4125.06 4617.98 4128.95 4625.07 4132.22 4630.44C4133.85 4633.13 4135.33 4635.39 4136.41 4636.97C4136.93 4637.77 4137.36 4638.38 4137.66 4638.81C4137.95 4639.23 4138.11 4639.43 4138.11 4639.43C4138.11 4639.45 4138.11 4639.45 4138.12 4639.45C4138.17 4639.53 4138.2 4639.61 4138.25 4639.68C4138.3 4639.78 4138.36 4639.86 4138.41 4639.95L4138.41 4639.97C4138.41 4639.97 4138.47 4640.13 4138.62 4640.45C4142.54 4649.17 4146.93 4657.67 4151.78 4665.91C4155.27 4671.93 4159.17 4677.7 4163.46 4683.19C4167.63 4688.42 4172.04 4692.77 4176.13 4695.23C4178.12 4696.53 4180.39 4697.34 4182.75 4697.6L4182.75 4697.6ZM4158.17 4685.58C4146.01 4669.93 4136.19 4648.79 4133.79 4643.47C4124.45 4641 4114.73 4640.34 4105.14 4641.53C4105.03 4641.55 4104.93 4641.56 4104.82 4641.57C4102.5 4641.87 4100.33 4642.23 4098.32 4642.65C4094.51 4643.44 4090.76 4644.51 4087.11 4645.87C4086.75 4646 4086.41 4646.12 4086.1 4646.25C4088.76 4650.07 4093.99 4657.39 4100.55 4665.3C4107.34 4673.55 4115.61 4682.42 4123.57 4688.56C4123.6 4688.58 4123.62 4688.59 4123.62 4688.61C4125.4 4689.99 4127.25 4691.27 4129.17 4692.45C4131.58 4693.96 4134.18 4695.14 4136.91 4695.95C4147.51 4698.87 4160.19 4698.94 4170.42 4698.16C4166.1 4694.93 4162.03 4690.52 4158.17 4685.57L4158.17 4685.58ZM4161.3 4702.34C4160.87 4701.82 4160.27 4701.48 4159.61 4701.37C4160.27 4701.48 4160.87 4701.82 4161.3 4702.34L4161.3 4702.34ZM4158.07 4701.54C4157.35 4701.84 4156.79 4702.42 4156.52 4703.15C4156.79 4702.42 4157.35 4701.84 4158.07 4701.54L4158.07 4701.54ZM4196.25 4788.25C4196.32 4788.34 4196.38 4788.42 4196.43 4788.51C4196.38 4788.42 4196.32 4788.34 4196.25 4788.25ZM4196.57 4788.7C4196.6 4788.77 4196.63 4788.84 4196.66 4788.91C4196.63 4788.84 4196.6 4788.77 4196.57 4788.7ZM4196.79 4789.21C4196.8 4789.25 4196.81 4789.29 4196.82 4789.33C4196.81 4789.29 4196.8 4789.25 4196.79 4789.21ZM4234.31 4727.58C4233.34 4724.73 4232.16 4721.96 4230.77 4719.29C4230.75 4719.27 4230.75 4719.26 4230.74 4719.24C4228.14 4721.59 4223.8 4725.63 4219.11 4730.52C4213.22 4736.64 4206.78 4744.13 4202.55 4751.16C4200.01 4755.33 4198.29 4759.35 4197.83 4762.58C4196.57 4771.28 4197.87 4781.51 4199.53 4789.47C4200.37 4793.47 4201.29 4796.9 4201.99 4799.32C4202.01 4799.37 4202.02 4799.42 4202.04 4799.48C4204.58 4797.6 4208.42 4794.63 4212.64 4790.87C4219.25 4785.01 4226.79 4777.27 4231.71 4769.12C4234.37 4764.72 4236.26 4760.22 4236.93 4755.9C4238.36 4746.39 4237.46 4736.67 4234.31 4727.58ZM4253.19 4806.88C4257.88 4806.19 4262.32 4804.32 4266.07 4801.42C4269.83 4798.47 4273 4794.84 4275.41 4790.73C4281.19 4781.22 4283.77 4769.13 4283.31 4760.27C4283.01 4754.38 4280.98 4747.54 4277.71 4740.93C4274.42 4734.23 4270.1 4728.09 4264.91 4722.73C4264.63 4722.44 4264.32 4722.19 4263.97 4722C4263.1 4721.48 4262.07 4721.28 4261.07 4721.43C4258.96 4721.62 4255.99 4723 4252.96 4725.19C4249.03 4728.12 4245.39 4731.42 4242.1 4735.05C4243.48 4742.22 4243.62 4749.56 4242.51 4756.77C4241.67 4762.07 4239.46 4767.2 4236.53 4772.03C4231.74 4779.97 4225 4787.19 4218.74 4792.96C4221.57 4793.45 4224.41 4794.1 4227.1 4794.83C4231.61 4795.99 4236 4797.6 4240.19 4799.62C4240.87 4799.97 4241.57 4800.37 4242.27 4800.8C4245.33 4802.69 4248.23 4804.82 4250.95 4807.17C4251.68 4807.08 4252.42 4806.99 4253.19 4806.88ZM4319.79 4806.3C4323.07 4804.67 4326.72 4802.12 4328.7 4798.78L4328.88 4798.48C4329.91 4796.49 4330.5 4794.3 4330.59 4792.06C4330.91 4788.23 4330.42 4783.68 4329.69 4779.32C4328.97 4774.96 4328.06 4770.78 4327.61 4767.45C4327.06 4763.15 4326.6 4757.46 4325.64 4751.79C4324.71 4746.16 4323.25 4740.58 4321 4736.77C4319.6 4734.38 4317.22 4732.26 4314.3 4730.5C4308.68 4727.09 4301.28 4725.13 4296.47 4723.9C4295.16 4723.55 4293.92 4723.01 4292.77 4722.3C4290 4720.6 4287.58 4718.22 4284.84 4715.73C4281.91 4712.95 4278.71 4710.47 4275.28 4708.32C4272.78 4706.8 4270.11 4705.56 4267.33 4704.61C4264.19 4703.57 4260.88 4703.93 4257.39 4705.29C4252.18 4707.32 4246.95 4711.64 4243.16 4715.5C4241.23 4717.42 4239.68 4719.21 4238.6 4720.51C4238.35 4720.79 4238.14 4721.06 4237.95 4721.3C4238.51 4722.65 4239.09 4724.13 4239.65 4725.76C4239.95 4726.65 4240.24 4727.58 4240.52 4728.54C4241.19 4727.87 4241.87 4727.2 4242.57 4726.54C4246.17 4723.13 4250.14 4719.88 4254.21 4717.81C4256.17 4716.77 4258.3 4716.09 4260.5 4715.81C4263.62 4715.41 4266.75 4716.51 4268.94 4718.78C4274.55 4724.57 4279.22 4731.2 4282.77 4738.44C4285.6 4744 4287.55 4749.97 4288.55 4756.13C4288.64 4756.12 4288.74 4756.13 4288.83 4756.14C4290.12 4756.34 4291.39 4756.64 4292.62 4757.05C4295.66 4758 4298.57 4759.32 4301.28 4760.98C4306.83 4764.36 4311.57 4768.91 4315.17 4774.32C4317.62 4777.83 4319.32 4781.8 4320.16 4786C4321.23 4791.55 4320.37 4796.51 4319.31 4800.78C4318.72 4803.15 4318.07 4805.34 4317.59 4807.32C4318.3 4807.02 4319.03 4806.69 4319.78 4806.3L4319.79 4806.3ZM4281.35 4833.02C4284.14 4833.76 4286.98 4834.32 4289.85 4834.68C4292.08 4835.02 4294.36 4834.97 4296.58 4834.54C4298.52 4833.96 4300.3 4832.92 4301.76 4831.51C4303.61 4829.78 4305.2 4827.78 4306.48 4825.59C4306.82 4825.02 4307.16 4824.42 4307.48 4823.83C4308.41 4822.06 4309.21 4820.2 4309.84 4818.3C4309.98 4817.87 4310.12 4817.44 4310.24 4817.01C4310.3 4816.83 4310.35 4816.64 4310.39 4816.46C4310.55 4815.85 4310.7 4815.25 4310.82 4814.68C4311.04 4813.63 4311.19 4812.57 4311.25 4811.51L4311.25 4811.38C4311.25 4811.26 4311.26 4811.15 4311.28 4811.03C4311.35 4810.05 4311.47 4809.08 4311.66 4808.11C4311.76 4807.52 4311.89 4806.92 4312.03 4806.33C4312.04 4806.29 4312.04 4806.26 4312.06 4806.21C4312.2 4805.59 4312.36 4804.97 4312.52 4804.35C4312.62 4804.02 4312.69 4803.7 4312.79 4803.37C4313.85 4799.42 4315 4795.49 4315.01 4791.33C4315.01 4787.17 4314.01 4782.74 4310.49 4777.48C4307.35 4772.75 4303.21 4768.77 4298.37 4765.8C4296.04 4764.39 4293.56 4763.26 4290.96 4762.44C4290.15 4762.19 4289.49 4762.03 4288.99 4761.92C4288.95 4773.08 4285.93 4784.03 4280.25 4793.64C4277.46 4798.37 4273.8 4802.54 4269.48 4805.92C4265.58 4808.92 4261.06 4811.01 4256.25 4812.05C4258.79 4814.55 4261.2 4817.18 4263.47 4819.93C4266.01 4823 4268.35 4826.23 4270.46 4829.61C4272.27 4830.28 4276.56 4831.8 4281.35 4833.02L4281.35 4833.02ZM4203.21 4808.05C4206.69 4815.77 4215.4 4825.04 4224.87 4830.73C4228.06 4832.7 4231.49 4834.26 4235.07 4835.37C4241.32 4837.21 4251.31 4839.17 4259.66 4840.65C4263.83 4841.38 4267.61 4842 4270.34 4842.44C4270.4 4842.45 4270.45 4842.46 4270.51 4842.47C4269.41 4839.37 4267.99 4836.39 4266.28 4833.57C4266.18 4833.45 4266.1 4833.32 4266.02 4833.18C4263.96 4829.8 4261.66 4826.57 4259.12 4823.53C4252.87 4815.93 4245.3 4809.21 4239.35 4805.64C4238.73 4805.26 4238.13 4804.92 4237.56 4804.62C4234.84 4803.29 4232.02 4802.19 4229.12 4801.32C4223.92 4799.65 4218.56 4798.51 4213.13 4797.91C4207.83 4802.36 4203.61 4805.34 4202.44 4806.16C4202.66 4806.8 4202.92 4807.43 4203.21 4808.05L4203.21 4808.05ZM4196.34 4791.82C4195.91 4792.37 4195.28 4792.75 4194.59 4792.86C4195.28 4792.75 4195.91 4792.38 4196.34 4791.82L4196.34 4791.82ZM4196.63 4791.37C4196.61 4791.39 4196.6 4791.41 4196.59 4791.43C4196.6 4791.41 4196.62 4791.39 4196.63 4791.37L4196.63 4791.37ZM4196.22 4788.22C4195.61 4787.53 4194.7 4787.18 4193.79 4787.28C4193.75 4787.29 4193.71 4787.3 4193.68 4787.3L4193.78 4787.29C4194.7 4787.18 4195.61 4787.53 4196.22 4788.23L4196.22 4788.22ZM4096.81 4925.96C4096.99 4925.58 4097.16 4925.19 4097.34 4924.81C4097.16 4925.19 4096.99 4925.58 4096.81 4925.97L4096.81 4925.96ZM4103.46 4853.23C4107.81 4846.12 4110.87 4838.3 4112.52 4830.13C4114.34 4820.41 4113.94 4809.32 4108.09 4798.02C4099.92 4782.27 4088.77 4770.23 4079.15 4759.36C4074.36 4753.92 4069.94 4748.78 4066.51 4743.54C4064.35 4740.34 4062.61 4736.86 4061.34 4733.22C4060.45 4734.48 4059.46 4735.98 4058.43 4737.69C4054.58 4743.98 4051.7 4750.81 4049.9 4757.96C4047.98 4766.04 4047.55 4775.08 4050.44 4784.46C4055.23 4800.02 4058.8 4814.17 4063.46 4826.23C4068.13 4838.3 4073.84 4848.21 4082.82 4855.69C4084.81 4857.39 4086.93 4858.94 4089.16 4860.31C4093.05 4862.67 4095.43 4862.99 4096.57 4862.83C4096.75 4862.8 4096.92 4862.76 4097.1 4862.7C4095.87 4849.62 4093.31 4836.7 4089.47 4824.14C4086.38 4814.02 4082.34 4804.23 4077.38 4794.9C4075.59 4791.58 4074.05 4789.06 4072.97 4787.39C4072.43 4786.55 4072 4785.92 4071.72 4785.51L4071.38 4785.06L4071.3 4784.95L4071.29 4784.93C4070.38 4783.69 4070.64 4781.94 4071.88 4781.01C4073.11 4780.08 4074.86 4780.32 4075.81 4781.54C4078.23 4784.95 4080.41 4788.52 4082.34 4792.23C4087.48 4801.89 4091.67 4812.01 4094.86 4822.47C4098.18 4833.28 4100.56 4844.36 4101.99 4855.58C4102.42 4854.88 4102.92 4854.11 4103.46 4853.23Z" fill="#d8acac" fill-rule="nonzero" opacity="1" stroke="none" vectornator:layerName="path"/>
</g>
</svg>
