<?xml version="1.0" encoding="UTF-8" standalone="no"?>
<!DOCTYPE svg PUBLIC "-//W3C//DTD SVG 1.1//EN" "http://www.w3.org/Graphics/SVG/1.1/DTD/svg11.dtd">
<!-- Created with Vectornator (http://vectornator.io/) -->
<svg height="100%" stroke-miterlimit="10" style="fill-rule:nonzero;clip-rule:evenodd;stroke-linecap:round;stroke-linejoin:round;" version="1.1" viewBox="1753.68 4525.71 226.139 552.19" width="100%" xml:space="preserve" xmlns="http://www.w3.org/2000/svg" xmlns:vectornator="http://vectornator.io" xmlns:xlink="http://www.w3.org/1999/xlink">
<defs/>
<clipPath id="ArtboardFrame">
<rect height="552.19" width="226.139" x="1753.68" y="4525.71"/>
</clipPath>
<g clip-path="url(#ArtboardFrame)" id="Layer" vectornator:layerName="Layer">
<g opacity="1" vectornator:layerName="Group 1">
<path d="M1889.18 4634.4C1877.67 4630.57 1867.34 4613.06 1853.18 4607.4C1840.56 4602.35 1822.02 4609.19 1813.18 4597.4C1802.6 4583.3 1799.92 4544.54 1818.18 4535.4C1820.81 4556.42 1834.41 4577.81 1854.18 4584.4C1854.18 4584.57 1885.09 4626.22 1889.18 4634.4Z" fill="#d8acac" fill-rule="nonzero" opacity="1" stroke="#9c6051" stroke-linecap="round" stroke-linejoin="round" stroke-width="1"/>
<path d="M1768.18 4605.4C1768.18 4588.3 1781.3 4567.4 1803.18 4567.4C1804.62 4587.54 1807.22 4631.79 1818.18 4646.4C1824.47 4654.78 1834.8 4661.63 1839.18 4670.4C1799.85 4690.07 1799.02 4615.68 1768.18 4605.4Z" fill="#d8acac" fill-rule="nonzero" opacity="1" stroke="#9c6051" stroke-linecap="round" stroke-linejoin="round" stroke-width="1"/>
<path d="M1971.18 4601.4C1971.18 4606.94 1980.57 4610.48 1979.18 4617.4C1975.53 4635.68 1919.46 4673.4 1898.18 4673.4C1917.18 4663.91 1927.73 4641.81 1929.18 4621.4C1930.09 4608.75 1919.26 4587.74 1931.18 4583.4C1954.51 4574.92 1956.34 4597.69 1971.18 4601.4Z" fill="#d8acac" fill-rule="nonzero" opacity="1" stroke="#9c6051" stroke-linecap="round" stroke-linejoin="round" stroke-width="1"/>
<path d="M1865.18 5069.4C1866.18 5069.4 1866.18 5069.4 1867.18 5069.4C1866.19 5072.37 1865.43 5074.4 1869.18 5074.4C1868.68 5075.9 1868.68 5075.9 1868.18 5077.4C1854.37 5070.5 1856.18 5019.26 1856.18 5009.4C1856.18 4994.07 1855.18 4978.74 1855.18 4963.4C1855.18 4892.57 1867.03 4826.61 1863.18 4755.4C1862.25 4738.05 1870.34 4709.64 1860.18 4694.4C1861.18 4693.4 1861.18 4693.4 1862.18 4692.4C1863.3 4695.74 1864.33 4698.99 1865.18 4702.4C1868.17 4702.4 1869.42 4698.24 1872.18 4696.4C1872.68 4697.4 1872.68 4697.4 1873.18 4698.4C1853.97 4708.01 1869.01 4760.12 1865.18 4775.4C1868.13 4775.4 1868.24 4773.4 1871.18 4773.4C1871.18 4790.93 1855.7 4874.43 1863.18 4889.4C1855.89 4893.05 1858.9 4947.18 1859.18 4953.4C1863.57 4953.4 1866.87 4941.72 1870.18 4938.4C1873.69 4945.41 1857.18 4958.4 1857.18 4965.4C1857.18 5001.08 1853.93 5035.63 1865.18 5069.4Z" fill="#d8acac" fill-rule="nonzero" opacity="1" stroke="#9c6051" stroke-linecap="round" stroke-linejoin="round" stroke-width="1"/>
<path d="M1818.18 4601.4C1817.18 4601.9 1817.18 4601.9 1816.18 4602.4C1815.18 4601.4 1815.18 4601.4 1814.18 4600.4C1788.73 4638.58 1852.44 4689.34 1888.18 4681.4C1886.68 4680.9 1886.68 4680.9 1885.18 4680.4C1896.94 4674.52 1892.42 4652.58 1890.18 4641.4C1887.44 4641.4 1888.48 4642 1887.18 4639.4C1888.68 4638.4 1888.68 4638.4 1890.18 4637.4C1874.74 4606.51 1842.71 4616.16 1817.18 4603.4C1817.68 4602.4 1817.68 4602.4 1818.18 4601.4Z" fill="#d8acac" fill-rule="nonzero" opacity="1" stroke="#9c6051" stroke-linecap="round" stroke-linejoin="round" stroke-width="1"/>
<path d="M1839.18 4823.4C1838.14 4825.49 1840.35 4830.25 1836.18 4830.4C1827.52 4830.71 1818.85 4830.67 1810.18 4830.4C1777.15 4829.37 1766.62 4787.71 1758.18 4762.4C1763.68 4759.65 1789.26 4765.14 1792.18 4765.4C1820.1 4767.94 1816.28 4798.5 1831.18 4813.4C1824.51 4813.4 1819.38 4802.5 1813.18 4799.4C1815.55 4806.51 1832.32 4823.4 1839.18 4823.4Z" fill="#d8acac" fill-rule="nonzero" opacity="1" stroke="#9c6051" stroke-linecap="round" stroke-linejoin="round" stroke-width="1"/>
<path d="M1954.18 4853.4C1954.18 4867.96 1931.51 4901.05 1937.18 4912.4C1922.69 4926.9 1901.01 4922.26 1882.18 4921.4C1884.55 4917.85 1884.18 4919.6 1884.18 4916.4C1882.68 4916.9 1882.68 4916.9 1881.18 4917.4C1881.18 4863.8 1916.56 4865.94 1954.18 4853.4Z" fill="#d8acac" fill-rule="nonzero" opacity="1" stroke="#9c6051" stroke-linecap="round" stroke-linejoin="round" stroke-width="1"/>
<path d="M1933.18 4557.4C1934.48 4554.81 1933.44 4555.4 1936.18 4555.4C1935.68 4556.4 1935.68 4556.4 1935.18 4557.4C1936.18 4557.4 1936.18 4557.4 1937.18 4557.4C1936.68 4558.4 1936.68 4558.4 1936.18 4559.4C1937.18 4559.4 1937.18 4559.4 1938.18 4559.4C1935.22 4565.34 1936.71 4573.36 1933.18 4580.4C1949.08 4580.4 1953.94 4588.32 1966.18 4592.4C1964.88 4595.01 1965.01 4596.4 1968.18 4596.4C1967.68 4597.4 1967.68 4597.4 1967.18 4598.4C1968.18 4598.9 1968.18 4598.9 1969.18 4599.4C1968.18 4599.9 1968.18 4599.9 1967.18 4600.4C1960.24 4586.52 1947.32 4584.08 1932.18 4582.4C1924.65 4605 1934.49 4629.95 1920.18 4651.4C1919.18 4650.9 1919.18 4650.9 1918.18 4650.4C1926.83 4633.12 1930.42 4613.83 1927.18 4594.4C1924.68 4595.9 1924.68 4595.9 1922.18 4597.4C1923.18 4595.4 1924.18 4593.4 1925.18 4591.4C1926.18 4591.9 1926.18 4591.9 1927.18 4592.4C1921.95 4581.93 1945.87 4570.09 1933.18 4557.4Z" fill="#d8acac" fill-rule="nonzero" opacity="1" stroke="#9c6051" stroke-linecap="round" stroke-linejoin="round" stroke-width="1"/>
<path d="M1926.18 4594.4C1929.7 4615.48 1925.71 4673.4 1893.18 4673.4C1893.18 4657.46 1897.41 4621.02 1878.18 4611.4C1890.47 4599.12 1911.9 4605.11 1926.18 4594.4Z" fill="#d8acac" fill-rule="nonzero" opacity="1" stroke="#9c6051" stroke-linecap="round" stroke-linejoin="round" stroke-width="1"/>
<path d="M1885.18 4680.4C1896.94 4674.52 1892.42 4652.58 1890.18 4641.4C1887.44 4641.4 1888.48 4642 1887.18 4639.4C1893.07 4635.48 1886.49 4624.7 1882.18 4620.4C1883.18 4619.4 1883.18 4619.4 1884.18 4618.4C1889.89 4635.51 1899.29 4655.07 1893.18 4673.4C1910.79 4673.4 1921.66 4667.08 1936.18 4657.4C1936.68 4658.9 1936.68 4658.9 1937.18 4660.4C1933.98 4660.4 1896.35 4677.07 1895.18 4679.4C1900.61 4679.4 1903.52 4684.41 1906.18 4688.4C1899.34 4684.98 1892.02 4683.82 1885.18 4680.4Z" fill="#d8acac" fill-rule="nonzero" opacity="1" stroke="#9c6051" stroke-linecap="round" stroke-linejoin="round" stroke-width="1"/>
<path d="M1865.18 4533.4C1865.18 4520.28 1918.52 4531.19 1920.18 4533.4C1924.25 4538.83 1924.93 4546.73 1929.18 4552.4C1931.01 4554.84 1931.31 4554.45 1934.18 4555.4C1931.4 4560.96 1940.11 4572.46 1932.18 4578.4C1914.84 4591.41 1888.88 4535.77 1865.18 4533.4Z" fill="#d8acac" fill-rule="nonzero" opacity="1" stroke="#9c6051" stroke-linecap="round" stroke-linejoin="round" stroke-width="1"/>
<path d="M1938.18 4911.4C1940.93 4905.92 1958.62 4850.71 1958.18 4849.4C1942.81 4849.4 1918.24 4852.35 1906.18 4864.4C1922 4859.13 1938.21 4858.73 1954.18 4853.4C1954.18 4862.63 1933.76 4909.19 1938.18 4911.4Z" fill="#d8acac" fill-rule="nonzero" opacity="1" stroke="#9c6051" stroke-linecap="round" stroke-linejoin="round" stroke-width="1"/>
<path d="M1876.18 4932.4C1874.68 4931.9 1874.68 4931.9 1873.18 4931.4C1881.69 4914.4 1884.28 4894.22 1893.18 4876.4C1894.65 4879.32 1881.63 4912.06 1880.18 4916.4C1883.93 4916.4 1882.74 4915.51 1884.18 4918.4C1883.18 4919.4 1883.18 4919.4 1882.18 4920.4C1899.21 4921.18 1913.25 4925.87 1928.18 4918.4C1928.18 4932.01 1886.52 4911.73 1876.18 4932.4Z" fill="#d8acac" fill-rule="nonzero" opacity="1" stroke="#9c6051" stroke-linecap="round" stroke-linejoin="round" stroke-width="1"/>
<path d="M1876.18 4612.4C1872.46 4604.95 1854.18 4590.16 1854.18 4584.4C1870.64 4584.4 1880.57 4567.4 1899.18 4567.4C1905.07 4567.4 1908.91 4574.64 1914.18 4576.4C1913.68 4577.4 1913.68 4577.4 1913.18 4578.4C1914.18 4579.4 1914.18 4579.4 1915.18 4580.4C1908.85 4586.74 1896.13 4586.46 1889.18 4593.4C1889.68 4594.4 1889.68 4594.4 1890.18 4595.4C1885.38 4600.21 1882.45 4609.27 1876.18 4612.4Z" fill="#d8acac" fill-rule="nonzero" opacity="1" stroke="#9c6051" stroke-linecap="round" stroke-linejoin="round" stroke-width="1"/>
<path d="M1834.18 4564.4C1834.18 4547 1865.66 4529.64 1881.18 4537.4C1889.78 4541.7 1897.61 4557.46 1901.18 4566.4C1872.41 4563.37 1863.44 4554.65 1834.18 4564.4Z" fill="#d8acac" fill-rule="nonzero" opacity="1" stroke="#9c6051" stroke-linecap="round" stroke-linejoin="round" stroke-width="1"/>
<path d="M1935.18 4555.4C1931.52 4552.96 1930.3 4549.52 1927.18 4546.4C1927.68 4545.4 1927.68 4545.4 1928.18 4544.4C1923.62 4544.4 1926.18 4541.33 1926.18 4538.4C1925.18 4538.4 1925.18 4538.4 1924.18 4538.4C1924.68 4537.4 1924.68 4537.4 1925.18 4536.4C1924.18 4536.4 1924.18 4536.4 1923.18 4536.4C1923.68 4535.4 1923.68 4535.4 1924.18 4534.4C1923.18 4534.4 1923.18 4534.4 1922.18 4534.4C1919.99 4527.82 1871.94 4521.96 1865.18 4530.4C1873.38 4525.49 1915.29 4526.88 1920.18 4533.4C1924.79 4539.54 1924.62 4555.4 1935.18 4555.4Z" fill="#d8acac" fill-rule="nonzero" opacity="1" stroke="#9c6051" stroke-linecap="round" stroke-linejoin="round" stroke-width="1"/>
<path d="M1756.18 4763.4C1769.56 4756.71 1810.31 4764.77 1816.18 4782.4C1817.18 4782.4 1817.18 4782.4 1818.18 4782.4C1818.18 4758.8 1768.04 4768.26 1757.18 4757.4C1754.66 4759.93 1755.61 4758.56 1754.18 4761.4C1755.18 4762.4 1755.18 4762.4 1756.18 4763.4Z" fill="#d8acac" fill-rule="nonzero" opacity="1" stroke="#9c6051" stroke-linecap="round" stroke-linejoin="round" stroke-width="1"/>
<path d="M1883.18 4685.4C1905.93 4674.03 1910.25 4706.42 1931.18 4713.4C1931.18 4714.4 1931.18 4714.4 1931.18 4715.4C1909.63 4715.4 1904.87 4688.5 1883.18 4685.4Z" fill="#d8acac" fill-rule="nonzero" opacity="1" stroke="#9c6051" stroke-linecap="round" stroke-linejoin="round" stroke-width="1"/>
<path d="M1756.18 4763.4C1757.18 4762.9 1757.18 4762.9 1758.18 4762.4C1765.38 4776.79 1767.96 4809.79 1783.18 4817.4C1782.18 4817.9 1782.18 4817.9 1781.18 4818.4C1767.89 4805.11 1764.49 4780.01 1756.18 4763.4Z" fill="#d8acac" fill-rule="nonzero" opacity="1" stroke="#9c6051" stroke-linecap="round" stroke-linejoin="round" stroke-width="1"/>
<path d="M1832.18 4561.4C1799.4 4545.01 1846.61 4507.24 1862.18 4538.4C1848.55 4547.49 1839.92 4545.93 1832.18 4561.4Z" fill="#d8acac" fill-rule="nonzero" opacity="1" stroke="#9c6051" stroke-linecap="round" stroke-linejoin="round" stroke-width="1"/>
<path d="M1805.18 4708.4C1824.59 4703.55 1835.08 4673.85 1856.18 4684.4C1854.89 4687 1855.18 4685.66 1855.18 4688.4C1833.63 4686.01 1828.27 4708.4 1805.18 4708.4Z" fill="#d8acac" fill-rule="nonzero" opacity="1" stroke="#9c6051" stroke-linecap="round" stroke-linejoin="round" stroke-width="1"/>
<path d="M1839.18 4548.4C1839.18 4553.73 1835.5 4559.12 1834.18 4564.4C1852.72 4564.4 1860.44 4552.03 1879.18 4561.4C1871.59 4565.2 1842.54 4553.69 1835.18 4568.4C1837.18 4570.39 1837.7 4572.16 1840.18 4573.4C1834.95 4575.15 1831.44 4567.92 1829.18 4563.4C1834.61 4559.79 1833.22 4551.38 1839.18 4548.4Z" fill="#d8acac" fill-rule="nonzero" opacity="1" stroke="#9c6051" stroke-linecap="round" stroke-linejoin="round" stroke-width="1"/>
<path d="M1829.18 4659.4C1812.43 4659.4 1808.49 4599.79 1811.18 4594.4C1813.54 4596.76 1816.75 4599.54 1818.18 4602.4C1815.24 4602.4 1816.66 4602.87 1814.18 4600.4C1800.96 4620.24 1820.95 4642.94 1829.18 4659.4Z" fill="#d8acac" fill-rule="nonzero" opacity="1" stroke="#9c6051" stroke-linecap="round" stroke-linejoin="round" stroke-width="1"/>
<path d="M1845.18 4680.4C1845.18 4675.41 1812.31 4667.82 1804.18 4662.4C1805.18 4661.9 1805.18 4661.9 1806.18 4661.4C1813.53 4668.75 1827.7 4670.03 1837.18 4672.4C1837.68 4671.4 1837.68 4671.4 1838.18 4670.4C1844.34 4673.48 1849.61 4678.11 1856.18 4681.4C1855.68 4682.9 1855.68 4682.9 1855.18 4684.4C1848.73 4680.53 1852.09 4681.78 1845.18 4680.4Z" fill="#d8acac" fill-rule="nonzero" opacity="1" stroke="#9c6051" stroke-linecap="round" stroke-linejoin="round" stroke-width="1"/>
<path d="M1839.18 4826.4C1842.84 4828.23 1844.7 4834.16 1849.18 4836.4C1847.18 4836.9 1847.18 4836.9 1845.18 4837.4C1839.23 4825.49 1784.18 4840.1 1784.18 4819.4C1795.83 4825.22 1833.17 4844.44 1839.18 4826.4Z" fill="#d8acac" fill-rule="nonzero" opacity="1" stroke="#9c6051" stroke-linecap="round" stroke-linejoin="round" stroke-width="1"/>
<path d="M1883.18 4604.4C1890.7 4589.37 1913.79 4583.33 1929.18 4581.4C1929.18 4585.43 1925.43 4588.9 1927.18 4592.4C1926.18 4591.9 1926.18 4591.9 1925.18 4591.4C1920.72 4596.98 1920.23 4594.49 1922.18 4598.4C1921.18 4599.4 1921.18 4599.4 1920.18 4600.4C1913.3 4596.96 1892.13 4602.17 1883.18 4604.4Z" fill="#d8acac" fill-rule="nonzero" opacity="1" stroke="#9c6051" stroke-linecap="round" stroke-linejoin="round" stroke-width="1"/>
<path d="M1818.18 4602.4C1837.72 4592.63 1857.39 4610.51 1873.18 4618.4C1867.91 4620.16 1853.35 4609.19 1846.18 4607.4C1837.47 4605.22 1822.46 4610.95 1818.18 4602.4Z" fill="#d8acac" fill-rule="nonzero" opacity="1" stroke="#9c6051" stroke-linecap="round" stroke-linejoin="round" stroke-width="1"/>
<path d="M1835.18 4568.4C1841.36 4556.04 1871.91 4561.33 1880.18 4563.4C1878.85 4566.07 1878.85 4564.74 1880.18 4567.4C1877.66 4569.93 1879.03 4568.98 1876.18 4570.4C1876.68 4571.4 1876.68 4571.4 1877.18 4572.4C1859.5 4590.09 1848.99 4582.2 1835.18 4568.4Z" fill="#d8acac" fill-rule="nonzero" opacity="1" stroke="#9c6051" stroke-linecap="round" stroke-linejoin="round" stroke-width="1"/>
<path d="M1774.18 4609.4C1773.68 4610.4 1773.68 4610.4 1773.18 4611.4C1782.2 4620.42 1783.5 4643.56 1795.18 4649.4C1795.18 4641.84 1794.87 4629.09 1789.18 4623.4C1790.18 4622.4 1790.18 4622.4 1791.18 4621.4C1787.58 4614.2 1781.04 4612.83 1774.18 4609.4Z" fill="#d8acac" fill-rule="nonzero" opacity="1" stroke="#9c6051" stroke-linecap="round" stroke-linejoin="round" stroke-width="1"/>
<path d="M1795.18 4652.4C1794.68 4651.4 1794.68 4651.4 1794.18 4650.4C1792.68 4650.9 1792.68 4650.9 1791.18 4651.4C1785.51 4640.05 1777.04 4625.98 1773.18 4614.4C1774.68 4614.4 1774.68 4614.4 1776.18 4614.4C1776.18 4626.61 1795.18 4641.13 1795.18 4652.4Z" fill="#d8acac" fill-rule="nonzero" opacity="1" stroke="#9c6051" stroke-linecap="round" stroke-linejoin="round" stroke-width="1"/>
<path d="M1892.18 4594.4C1891.18 4593.9 1891.18 4593.9 1890.18 4593.4C1894.15 4585.47 1909.04 4586.54 1915.18 4580.4C1914.18 4579.4 1914.18 4579.4 1913.18 4578.4C1914.18 4577.4 1914.18 4577.4 1915.18 4576.4C1920.19 4583.91 1924.57 4576.09 1931.18 4579.4C1923.39 4587.19 1901.95 4584.64 1892.18 4594.4Z" fill="#d8acac" fill-rule="nonzero" opacity="1" stroke="#9c6051" stroke-linecap="round" stroke-linejoin="round" stroke-width="1"/>
<path d="M1789.18 4623.4C1790.18 4622.4 1790.18 4622.4 1791.18 4621.4C1794.98 4636.58 1800.82 4649.3 1805.18 4662.4C1800.09 4662.4 1796.45 4654.53 1792.18 4652.4C1799.29 4648.85 1793.99 4628.21 1789.18 4623.4Z" fill="#d8acac" fill-rule="nonzero" opacity="1" stroke="#9c6051" stroke-linecap="round" stroke-linejoin="round" stroke-width="1"/>
<path d="M1773.18 4614.4C1765.99 4607.21 1759.52 4594.06 1768.18 4585.4C1768.68 4586.4 1768.68 4586.4 1769.18 4587.4C1756.1 4600.48 1775.4 4608.51 1785.18 4613.4C1781.32 4613.4 1777.7 4611.16 1774.18 4609.4C1773.68 4610.4 1773.68 4610.4 1773.18 4611.4C1774.18 4612.4 1774.18 4612.4 1775.18 4613.4C1774.18 4613.9 1774.18 4613.9 1773.18 4614.4Z" fill="#d8acac" fill-rule="nonzero" opacity="1" stroke="#9c6051" stroke-linecap="round" stroke-linejoin="round" stroke-width="1"/>
<path d="M1820.18 4532.4C1824.82 4523.14 1854.84 4529.73 1862.18 4533.4C1863.52 4530.74 1862.52 4531.74 1865.18 4530.4C1865.18 4531.9 1865.18 4531.9 1865.18 4533.4C1873.48 4533.4 1874.54 4531.75 1879.18 4536.4C1861.57 4542.27 1840.1 4525.76 1820.18 4532.4Z" fill="#d8acac" fill-rule="nonzero" opacity="1" stroke="#9c6051" stroke-linecap="round" stroke-linejoin="round" stroke-width="1"/>
<path d="M1836.18 4823.4C1834.17 4817.36 1817.9 4806.12 1812.18 4800.4C1818.05 4800.4 1838.46 4818.84 1836.18 4823.4Z" fill="#d8acac" fill-rule="nonzero" opacity="1" stroke="#9c6051" stroke-linecap="round" stroke-linejoin="round" stroke-width="1"/>
<path d="M1814.18 4538.4C1804.9 4556.97 1804.69 4575.91 1811.18 4595.4C1810.18 4595.4 1810.18 4595.4 1809.18 4595.4C1809.18 4587.98 1795.74 4538.4 1814.18 4538.4Z" fill="#d8acac" fill-rule="nonzero" opacity="1" stroke="#9c6051" stroke-linecap="round" stroke-linejoin="round" stroke-width="1"/>
<path d="M1914.18 4576.4C1903.48 4572.83 1891.3 4559.29 1879.18 4571.4C1878.18 4570.9 1878.18 4570.9 1877.18 4570.4C1878.68 4568.9 1878.68 4568.9 1880.18 4567.4C1879.68 4566.4 1879.68 4566.4 1879.18 4565.4C1887.43 4557.15 1909.33 4566.7 1914.18 4576.4Z" fill="#d8acac" fill-rule="nonzero" opacity="1" stroke="#9c6051" stroke-linecap="round" stroke-linejoin="round" stroke-width="1"/>
<path d="M1818.18 4782.4C1819.18 4781.9 1819.18 4781.9 1820.18 4781.4C1819.68 4782.4 1819.68 4782.4 1819.18 4783.4C1820.18 4783.4 1820.18 4783.4 1821.18 4783.4C1819.15 4787.47 1824.7 4795.96 1826.18 4800.4C1827.18 4800.4 1827.18 4800.4 1828.18 4800.4C1826.71 4803.34 1827.57 4807.4 1831.18 4807.4C1830.68 4808.4 1830.68 4808.4 1830.18 4809.4C1831.18 4809.4 1831.18 4809.4 1832.18 4809.4C1830.84 4812.1 1832.18 4813.28 1832.18 4816.4C1828.32 4804.82 1822.05 4793.99 1818.18 4782.4Z" fill="#d8acac" fill-rule="nonzero" opacity="1" stroke="#9c6051" stroke-linecap="round" stroke-linejoin="round" stroke-width="1"/>
<path d="M1855.18 4684.4C1857.64 4679.5 1878.54 4683.49 1886.18 4682.4C1884.85 4685.07 1885.85 4684.07 1883.18 4685.4C1889.59 4685.4 1896.99 4686.01 1900.18 4692.4C1891.54 4692.4 1887.09 4687.42 1877.18 4689.4C1877.68 4688.4 1877.68 4688.4 1878.18 4687.4C1871.94 4687.01 1861.94 4684.4 1855.18 4684.4Z" fill="#d8acac" fill-rule="nonzero" opacity="1" stroke="#9c6051" stroke-linecap="round" stroke-linejoin="round" stroke-width="1"/>
<path d="M1821.18 4532.4C1821.18 4544.34 1823.67 4553.89 1832.18 4562.4C1824.88 4564.84 1814.77 4535.61 1821.18 4532.4Z" fill="#d8acac" fill-rule="nonzero" opacity="1" stroke="#9c6051" stroke-linecap="round" stroke-linejoin="round" stroke-width="1"/>
<path d="M1906.18 4688.4C1907.18 4688.4 1907.18 4688.4 1908.18 4688.4C1908.18 4691.49 1910.06 4695.4 1913.18 4695.4C1913.18 4700.15 1919.56 4706.25 1924.18 4707.4C1920.85 4714.06 1906.18 4693.15 1906.18 4688.4Z" fill="#d8acac" fill-rule="nonzero" opacity="1" stroke="#9c6051" stroke-linecap="round" stroke-linejoin="round" stroke-width="1"/>
<path d="M1865.18 4702.4C1865.18 4695.66 1862.72 4692.7 1859.18 4687.4C1868.68 4686.9 1868.68 4686.9 1878.18 4686.4C1877.68 4687.4 1877.68 4687.4 1877.18 4688.4C1882.98 4691.3 1867.63 4702.4 1865.18 4702.4Z" fill="#d8acac" fill-rule="nonzero" opacity="1" stroke="#9c6051" stroke-linecap="round" stroke-linejoin="round" stroke-width="1"/>
<path d="M1918.18 4599.4C1918.18 4607.64 1889.65 4605.04 1880.18 4607.4C1889.19 4598.4 1906.45 4605.27 1918.18 4599.4Z" fill="#d8acac" fill-rule="nonzero" opacity="1" stroke="#9c6051" stroke-linecap="round" stroke-linejoin="round" stroke-width="1"/>
<path d="M1862.18 4692.4C1850.44 4692.4 1846.21 4689.89 1835.18 4695.4C1838.14 4686.55 1848.85 4688.4 1856.18 4688.4C1856.18 4686.9 1856.18 4686.9 1856.18 4685.4C1860.18 4684.07 1858.18 4684.07 1862.18 4685.4C1860.68 4686.4 1860.68 4686.4 1859.18 4687.4C1861.93 4690.15 1860.89 4688.51 1862.18 4692.4Z" fill="#d8acac" fill-rule="nonzero" opacity="1" stroke="#9c6051" stroke-linecap="round" stroke-linejoin="round" stroke-width="1"/>
<path d="M1795.18 4706.4C1807.46 4705.38 1810.3 4702.7 1820.18 4699.4C1820.68 4700.4 1820.68 4700.4 1821.18 4701.4C1813.92 4706.25 1803.36 4710.49 1795.18 4706.4Z" fill="#d8acac" fill-rule="nonzero" opacity="1" stroke="#9c6051" stroke-linecap="round" stroke-linejoin="round" stroke-width="1"/>
<path d="M1826.18 4703.4C1822.35 4711.07 1806.81 4712.72 1800.18 4709.4C1804.24 4707.37 1820.87 4703.4 1826.18 4703.4Z" fill="#d8acac" fill-rule="nonzero" opacity="1" stroke="#9c6051" stroke-linecap="round" stroke-linejoin="round" stroke-width="1"/>
<path d="M1922.18 4709.4C1925.53 4707.73 1936.29 4712.75 1940.18 4713.4C1932.41 4717.29 1922.64 4718.86 1916.18 4712.4C1920.12 4710.44 1926.95 4714.34 1931.18 4715.4C1931.18 4714.4 1931.18 4714.4 1931.18 4713.4C1927.24 4713.4 1924.96 4712.18 1922.18 4709.4Z" fill="#d8acac" fill-rule="nonzero" opacity="1" stroke="#9c6051" stroke-linecap="round" stroke-linejoin="round" stroke-width="1"/>
</g>
</g>
</svg>
